<?xml version="1.0" standalone="no"?>
<!DOCTYPE svg PUBLIC "-//W3C//DTD SVG 1.1//EN" "http://www.w3.org/Graphics/SVG/1.1/DTD/svg11.dtd" >
<svg xmlns="http://www.w3.org/2000/svg" xmlns:xlink="http://www.w3.org/1999/xlink" version="1.1">
<metadata>
Created by FontForge 20170731 at Thu Oct 29 10:06:22 2020
 By Aleksey,,,
Copyright (C)2015 Commercial Type.
</metadata>
<defs>
<font id="VoltaModernText-55Roman" horiz-adv-x="1331" >
  <font-face 
    font-family="Volta Modern Text 55 Roman"
    font-weight="400"
    font-stretch="normal"
    units-per-em="2048"
    panose-1="0 0 0 0 0 0 0 0 0 0"
    ascent="1675"
    descent="-373"
    x-height="1100"
    cap-height="1524"
    bbox="-569 -498 2671 2003"
    underline-thickness="139"
    underline-position="-353"
    unicode-range="U+0020-FB04"
  />
<missing-glyph horiz-adv-x="1024" 
 />
    <glyph glyph-name="f_f" unicode="ff" horiz-adv-x="1310" 
d="M827 0v950h-403v-950h-191v950h-170v150h170v143q0 150 78 219q75 64 242 64q26 0 96 -4v-158q-133 9 -179 -17.5t-46 -111.5v-135h403v151q0 150 78 219q75 64 242 64q28 0 98 -4v-158q-135 9 -181 -17.5t-46 -111.5v-143h225v-150h-225v-950h-191z" />
    <glyph glyph-name="fi" unicode="fi" horiz-adv-x="1148" 
d="M649 950h-225v-950h-191v950h-170v150h170v151q0 150 78 219q75 64 242 64q28 0 98 -4v-158q-135 9 -181 -17.5t-46 -111.5v-143h225v-150zM922 1526q51 0 83.5 -33t32.5 -84t-32.5 -84t-83.5 -33t-84 33t-33 84t33 84t84 33zM827 0v1100h191v-1100h-191z" />
    <glyph glyph-name="fl" unicode="fl" horiz-adv-x="1155" 
d="M649 950h-225v-950h-191v950h-170v150h170v151q0 150 78 219q75 64 242 64q28 0 98 -4v-158q-135 9 -181 -17.5t-46 -111.5v-143h225v-150zM827 0v1524h191v-1524h-191z" />
    <glyph glyph-name="f_f_i" unicode="ffi" horiz-adv-x="1742" 
d="M827 0v950h-403v-950h-191v950h-170v150h170v143q0 150 78 219q75 64 242 64q26 0 96 -4v-158q-133 9 -179 -17.5t-46 -111.5v-135h403v151q0 150 78 219q75 64 242 64q28 0 98 -4v-158q-135 9 -181 -17.5t-46 -111.5v-143h225v-150h-225v-950h-191zM1516 1526
q51 0 83.5 -33t32.5 -84t-32.5 -84t-83.5 -33t-84 33t-33 84t33 84t84 33zM1421 0v1100h191v-1100h-191z" />
    <glyph glyph-name="f_f_l" unicode="ffl" horiz-adv-x="1748" 
d="M827 0v950h-403v-950h-191v950h-170v150h170v143q0 150 78 219q75 64 242 64q26 0 96 -4v-158q-133 9 -179 -17.5t-46 -111.5v-135h403v151q0 150 78 219q75 64 242 64q28 0 98 -4v-158q-135 9 -181 -17.5t-46 -111.5v-143h225v-150h-225v-950h-191zM1421 0v1524h191
v-1524h-191z" />
    <glyph glyph-name=".notdef" horiz-adv-x="1024" 
 />
    <glyph glyph-name=".null" horiz-adv-x="0" 
 />
    <glyph glyph-name="nonmarkingreturn" horiz-adv-x="682" 
 />
    <glyph glyph-name="space" unicode=" " horiz-adv-x="544" 
 />
    <glyph glyph-name="exclam" unicode="!" horiz-adv-x="540" 
d="M219 442l-53 605v477h207v-477l-49 -605h-105zM270 233q53 0 88 -35t35 -87t-35 -86.5t-88 -34.5t-88 34.5t-35 86.5t35 87t88 35z" />
    <glyph glyph-name="quotedbl" unicode="&#x22;" horiz-adv-x="722" 
d="M109 1016v508h172v-508h-172zM442 1016v508h172v-508h-172z" />
    <glyph glyph-name="numbersign" unicode="#" horiz-adv-x="1273" 
d="M756 582l45 317h-281l-45 -317h281zM674 0l59 416h-282l-58 -416h-153l59 416h-217l27 166h213l45 317h-213l24 164h213l55 397h152l-55 -397h282l56 397h153l-55 -397h213l-27 -164h-211l-45 -317h211l-26 -166h-207l-60 -416h-153z" />
    <glyph glyph-name="dollar" unicode="$" horiz-adv-x="1310" 
d="M322 1094q0 -95 66 -148t212 -86v471q-127 -9 -202.5 -71t-75.5 -166zM1022 408q0 55 -18 94t-59.5 66.5t-92 45.5t-131.5 37v-506q129 11 215 81.5t86 181.5zM721 -225h-121v213q-132 9 -234 51.5t-163.5 109t-94.5 145t-38 167.5h196q16 -139 95.5 -219.5t238.5 -94.5
v531q-75 17 -128 32t-110 38t-95 52t-70 69t-47 93.5t-15 120.5q0 179 127 285t338 115v149h121v-149q414 -29 463 -383h-193q-12 98 -81 157t-189 72v-493q67 -14 116.5 -26.5t104 -31.5t93 -40.5t75 -53t58.5 -69t35.5 -88t13.5 -111.5q0 -188 -138.5 -302t-357.5 -126
v-213z" />
    <glyph glyph-name="percent" unicode="%" horiz-adv-x="1835" 
d="M424 647q-155 0 -251.5 116t-96.5 308q0 190 98.5 306t249.5 116q153 0 250.5 -114.5t97.5 -307.5q0 -192 -96 -308t-252 -116zM426 0l834 1458h149l-831 -1458h-152zM424 782q88 0 134 79t46 210q0 126 -48 207.5t-132 81.5t-130 -80t-46 -209q0 -128 46 -208.5
t130 -80.5zM1411 -31q-156 0 -252 115.5t-96 306.5t98.5 306.5t249.5 115.5q154 0 251 -114t97 -308q0 -191 -96 -306.5t-252 -115.5zM1411 104q88 0 133 78t45 209q0 127 -47 209t-131 82t-130 -80.5t-46 -210.5q0 -127 46 -207t130 -80z" />
    <glyph glyph-name="ampersand" unicode="&#x26;" horiz-adv-x="1351" 
d="M1006 145l-5 5q-170 -181 -428 -181q-95 0 -182.5 30.5t-155.5 84.5t-108.5 135t-40.5 176q0 84 25 152.5t77 124t107.5 95.5t140.5 89l-24 31q-142 179 -142 344q0 135 101.5 227t251.5 92q93 0 170.5 -35.5t128.5 -112.5t51 -183q0 -55 -16.5 -104.5t-41 -86t-65 -73.5
t-77 -62.5t-89.5 -58.5q193 -240 311 -390q55 138 58 304h166q-3 -257 -107 -445l242 -303h-234zM584 137q181 0 311 146l-367 458q-121 -77 -183 -155t-62 -189q0 -115 87.5 -187.5t213.5 -72.5zM563 983l29 -35q100 63 147 128t47 147q0 78 -44.5 125t-118.5 47
q-73 0 -121.5 -46.5t-48.5 -117.5q0 -65 27 -123t83 -125z" />
    <glyph glyph-name="quotesingle" unicode="'" horiz-adv-x="389" 
d="M109 1016v508h172v-508h-172z" />
    <glyph glyph-name="parenleft" unicode="(" horiz-adv-x="692" 
d="M487 -256q-153 214 -238 447.5t-85 513.5q0 487 323 901h154q-258 -413 -258 -901q0 -275 64.5 -505.5t193.5 -455.5h-154z" />
    <glyph glyph-name="parenright" unicode=")" horiz-adv-x="692" 
d="M51 -256q131 226 196.5 456t65.5 505q0 493 -262 901h158q319 -414 319 -901q0 -279 -84 -512.5t-235 -448.5h-158z" />
    <glyph glyph-name="asterisk" unicode="*" horiz-adv-x="833" 
d="M270 879l-100 67l143 211l-223 76l41 108l221 -69v252h131v-252l219 69l41 -108l-221 -76l146 -211l-101 -67l-147 223z" />
    <glyph glyph-name="plus" unicode="+" horiz-adv-x="1230" 
d="M1102 621h-408v-424h-157v424h-408v149h408v422h157v-422h408v-149z" />
    <glyph glyph-name="comma" unicode="," horiz-adv-x="442" 
d="M125 -279v117q89 38 98 160q-55 -6 -90 28.5t-35 86.5t34 86t85 34q60 0 95.5 -53.5t35.5 -138.5q0 -124 -57.5 -206.5t-165.5 -113.5z" />
    <glyph glyph-name="hyphen" unicode="-" horiz-adv-x="765" 
d="M98 498v172h570v-172h-570z" />
    <glyph glyph-name="period" unicode="." horiz-adv-x="442" 
d="M221 233q53 0 88 -35t35 -87t-35 -86.5t-88 -34.5t-88 34.5t-35 86.5t35 87t88 35z" />
    <glyph glyph-name="slash" unicode="/" horiz-adv-x="897" 
d="M-47 -256l739 1860h193l-742 -1860h-190z" />
    <glyph glyph-name="zero" unicode="0" horiz-adv-x="1366" 
d="M682 -33q-268 0 -420.5 206.5t-152.5 557.5t156.5 556.5t418.5 205.5q264 0 418.5 -203.5t154.5 -558.5q0 -353 -151.5 -558.5t-423.5 -205.5zM684 135q186 0 277.5 155.5t91.5 440.5q0 279 -93.5 437.5t-275.5 158.5q-184 0 -278.5 -157.5t-94.5 -438.5
q0 -279 95 -437.5t278 -158.5z" />
    <glyph glyph-name="one" unicode="1" horiz-adv-x="806" 
d="M426 0v1051h-338v131q73 2 134.5 17t115 47t88.5 88.5t45 133.5h154v-1468h-199z" />
    <glyph glyph-name="two" unicode="2" horiz-adv-x="1224" 
d="M82 0q11 236 156 401q23 26 48 49.5t58 48.5t53 40.5t63 42.5t56.5 35.5t64.5 39.5t58 35q79 45 124 75.5t87 72t60 89.5t18 109q0 130 -82.5 209.5t-220.5 79.5q-140 0 -224 -90q-82 -91 -82 -262h-202q0 233 135 371q136 145 389 145q221 0 356.5 -126.5t135.5 -322.5
q0 -76 -22 -140t-48 -105.5t-87.5 -89.5t-99 -71t-122.5 -72q-13 -7 -19 -11q-5 -3 -46 -27.5t-50 -30.5t-47 -30t-50.5 -33.5t-44.5 -32.5t-46 -37t-38 -36.5t-36.5 -40.5t-26.5 -41t-22 -45l-4 -17h782v-182h-1024z" />
    <glyph glyph-name="three" unicode="3" horiz-adv-x="1255" 
d="M641 -33q-254 0 -412 131q-169 137 -172 375h193q5 -161 106.5 -252.5t278.5 -91.5q151 0 241.5 76t90.5 221q0 133 -95.5 202.5t-273.5 69.5h-92v152h90q161 0 245.5 64t84.5 180q0 112 -87 178.5t-218 66.5q-150 0 -237 -87.5t-89 -227.5h-191q2 209 142 339t381 130
q138 0 248.5 -47t176.5 -139t66 -215q0 -227 -241 -306v-6q292 -76 292 -370q0 -139 -70.5 -240.5t-189 -152t-268.5 -50.5z" />
    <glyph glyph-name="four" unicode="4" horiz-adv-x="1275" 
d="M246 500q133 8 217 8h330v496q0 35 2.5 88.5t4.5 89.5l3 37h-4q-68 -115 -127 -191l-271 -344q-25 -32 -64 -77t-65 -74l-26 -29v-4zM1223 354h-238v-354h-192v354h-707v176l737 945h162v-967h238v-154z" />
    <glyph glyph-name="five" unicode="5" horiz-adv-x="1208" 
d="M596 -31q-225 0 -370.5 120.5t-159.5 301.5h194q25 -117 107 -184.5t225 -67.5q152 0 242 93t90 249q0 154 -90.5 245t-225.5 91q-113 0 -193 -38t-126 -97h-189l158 776h778v-172h-639l-94 -434h4q128 131 338 131q93 0 178.5 -34.5t153 -97t107.5 -160t40 -214.5
q0 -231 -148.5 -369.5t-379.5 -138.5z" />
    <glyph glyph-name="six" unicode="6" horiz-adv-x="1282" 
d="M684 -33q-231 0 -373 139q-110 101 -156 252t-46 379q0 350 145 551q150 205 426 205q105 0 191.5 -33t141.5 -87.5t88 -119.5t44 -135h-195q-12 84 -82 148.5t-184 64.5q-199 0 -290 -152t-99 -448h4q71 119 169.5 174.5t231.5 55.5q132 0 243.5 -66t176.5 -179t66 -247
q1 -136 -65.5 -251.5t-182.5 -183t-254 -67.5zM680 125q139 0 230 94.5t91 243.5t-93 243.5t-234 94.5q-153 0 -247.5 -92t-94.5 -244q0 -149 99.5 -244.5t248.5 -95.5z" />
    <glyph glyph-name="seven" unicode="7" horiz-adv-x="1136" 
d="M272 0q23 376 199.5 730t429.5 558v4q-114 -8 -268 -8h-567v174h1026v-158q-115 -102 -216.5 -235.5t-188 -297t-141.5 -362.5t-65 -405h-209z" />
    <glyph glyph-name="eight" unicode="8" horiz-adv-x="1286" 
d="M649 -33q-86 0 -166 15.5t-153.5 50.5t-127.5 86t-86 128t-32 171q0 149 86 244t233 135v6q-118 35 -181.5 114.5t-63.5 192.5q0 172 138 278.5t347 106.5q211 0 349 -105.5t138 -277.5q0 -112 -63 -192t-180 -117v-6q143 -36 228 -135.5t85 -243.5q0 -95 -30.5 -172
t-82.5 -128t-123.5 -85.5t-150 -50t-164.5 -15.5zM643 870q137 0 216 62.5t79 171.5q0 108 -79 169.5t-216 61.5t-216 -61.5t-79 -169.5q0 -109 79 -171.5t216 -62.5zM649 129q165 0 260 77.5t95 213.5q0 139 -96.5 220t-264.5 81q-166 0 -261 -81t-95 -220
q0 -138 95.5 -214.5t266.5 -76.5z" />
    <glyph glyph-name="nine" unicode="9" horiz-adv-x="1282" 
d="M614 657q159 0 254 94t95 246q0 148 -100 243t-247 95q-148 0 -240.5 -93.5t-92.5 -244.5q0 -148 95.5 -244t235.5 -96zM625 -33q-212 0 -352 113.5t-154 279.5h198q15 -98 93.5 -164.5t210.5 -66.5q158 0 243 98q117 128 129 478h-4q-151 -207 -401 -207
q-202 0 -345 144.5t-145 350.5q-1 102 38.5 194.5t107.5 159.5t165 106.5t207 39.5q198 0 345 -113q120 -92 169.5 -249t49.5 -406q0 -452 -201 -633q-134 -125 -354 -125z" />
    <glyph glyph-name="colon" unicode=":" horiz-adv-x="454" 
d="M227 881q53 0 88 -35.5t35 -87.5t-35 -86.5t-88 -34.5t-88 34.5t-35 86.5t35 87.5t88 35.5zM227 233q53 0 88 -35t35 -87t-35 -86.5t-88 -34.5t-88 34.5t-35 86.5t35 87t88 35z" />
    <glyph glyph-name="semicolon" unicode=";" horiz-adv-x="454" 
d="M227 881q53 0 88 -35.5t35 -87.5t-35 -86.5t-88 -34.5t-88 34.5t-35 86.5t35 87.5t88 35.5zM131 -279v117q89 38 98 160q-55 -6 -90 28.5t-35 86.5t34 86t85 34q60 0 95.5 -53.5t35.5 -138.5q0 -124 -57.5 -206.5t-165.5 -113.5z" />
    <glyph glyph-name="less" unicode="&#x3c;" horiz-adv-x="1122" 
d="M991 199l-868 368v191l868 368v-170l-469 -190q-47 -19 -115.5 -44t-113.5 -40l-45 -16v-4q168 -56 274 -99l469 -190v-174z" />
    <glyph glyph-name="equal" unicode="=" horiz-adv-x="1230" 
d="M131 782v150h969v-150h-969zM131 401v150h969v-150h-969z" />
    <glyph glyph-name="greater" unicode="&#x3e;" horiz-adv-x="1122" 
d="M131 1126l868 -368v-191l-868 -368v172l471 188q46 19 114 44t113 41l45 15v5q-168 55 -272 98l-471 190v174z" />
    <glyph glyph-name="question" unicode="?" horiz-adv-x="1120" 
d="M440 442q1 102 24 174.5t66.5 128t126.5 127.5q88 77 114 106q69 81 69 175q0 100 -72 164.5t-197 64.5q-154 0 -237 -89.5t-88 -235.5h-193q2 96 34.5 182t93.5 157t161.5 112.5t228.5 41.5q214 0 341.5 -111.5t127.5 -281.5q0 -60 -15 -112t-44.5 -94.5t-59.5 -73.5
t-73 -66q-137 -115 -180 -172q-27 -37 -37.5 -82t-12.5 -115h-178zM528 233q53 0 88 -35t35 -87t-35 -86.5t-88 -34.5t-87.5 34.5t-34.5 86.5q0 53 35 87.5t87 34.5z" />
    <glyph glyph-name="at" unicode="@" horiz-adv-x="1914" 
d="M944 -225q-250 0 -444.5 102.5t-303 292t-108.5 436.5q0 170 50.5 318.5t137.5 255.5t202.5 184.5t247 115.5t269.5 38q128 0 249 -32t227 -97.5t185 -157.5t125 -221.5t46 -280.5q0 -250 -113 -388t-299 -138q-91 0 -155.5 44t-88.5 118h-4q-48 -81 -121.5 -125.5
t-164.5 -44.5q-156 0 -249 105t-93 275q0 224 117.5 363t291.5 139q87 0 149.5 -38t94.5 -103h4l14 123h181l-68 -555q-9 -77 17.5 -119.5t84.5 -42.5q47 0 89 20t79 63t58.5 120t21.5 180q0 162 -52 288t-145 205t-216 119.5t-269 40.5q-150 0 -284.5 -53.5t-237.5 -150.5
t-163 -244.5t-60 -325.5q0 -150 46 -277t132 -219.5t217.5 -145t294.5 -52.5q216 0 405 76l52 -119q-199 -92 -449 -92zM907 334q123 0 190.5 101.5t67.5 262.5q0 112 -52 176t-148 64q-118 0 -179 -99.5t-61 -258.5q0 -112 45.5 -179t136.5 -67z" />
    <glyph glyph-name="A" unicode="A" horiz-adv-x="1429" 
d="M616 1034l-149 -426h487l-145 426q-23 65 -46 146t-35 130l-11 48h-6q-46 -183 -95 -324zM1161 0l-151 444h-600l-156 -444h-215l557 1524h233l562 -1524h-230z" />
    <glyph glyph-name="B" unicode="B" horiz-adv-x="1415" 
d="M158 0v1524h655q236 0 365 -129q102 -107 102 -265q0 -123 -66.5 -203t-191.5 -116v-6q146 -34 232.5 -128t86.5 -239q0 -181 -116 -297q-135 -141 -381 -141h-686zM367 874h417q134 0 209.5 63.5t75.5 178.5q0 107 -68.5 167t-191.5 60h-442v-469zM367 184h464
q154 0 230 76q67 64 67 172q0 132 -84.5 202.5t-224.5 70.5h-452v-521z" />
    <glyph glyph-name="C" unicode="C" horiz-adv-x="1548" 
d="M817 -31q-213 0 -377 102t-252 282t-88 409q0 168 50 313.5t141 252t228.5 167.5t303.5 61q260 0 424 -135q164 -132 195 -358h-209q-27 143 -135 227t-279 84q-158 0 -274 -80.5t-174 -218t-58 -313.5q0 -274 139 -442t369 -168q100 0 180 32t131 88.5t80.5 127.5
t36.5 155h209q-2 -114 -51.5 -230t-130.5 -194q-162 -162 -459 -162z" />
    <glyph glyph-name="D" unicode="D" horiz-adv-x="1499" 
d="M158 0v1524h563q168 0 298 -55.5t213 -157.5t126 -242t43 -313q0 -171 -44.5 -310t-130.5 -238.5t-218 -153.5t-301 -54h-549zM369 182h329q249 0 367.5 150.5t118.5 423.5q0 585 -473 585h-342v-1159z" />
    <glyph glyph-name="E" unicode="E" horiz-adv-x="1363" 
d="M1264 190v-190h-1106v1524h1083v-185h-874v-460h790v-174h-790v-515h897z" />
    <glyph glyph-name="F" unicode="F" horiz-adv-x="1273" 
d="M1061 705h-694v-705h-209v1524h1042v-185h-833v-456h694v-178z" />
    <glyph glyph-name="G" unicode="G" horiz-adv-x="1599" 
d="M815 -33q-157 0 -289 57.5t-227 163.5q-96 105 -147.5 250.5t-51.5 317.5t50 320t145 255q197 223 539 223q260 0 419 -127.5t203 -345.5h-217q-35 136 -137.5 214.5t-270.5 78.5q-130 0 -230.5 -47t-162.5 -131t-93.5 -195t-31.5 -245q0 -270 142.5 -438t369.5 -168
q110 0 197 35.5t141 97t82 141.5t29 172v33h-443v178h650v-807h-133l-56 215h-6q-163 -248 -471 -248z" />
    <glyph glyph-name="H" unicode="H" horiz-adv-x="1521" 
d="M1153 0v713h-786v-713h-209v1524h209v-641h786v641h211v-1524h-211z" />
    <glyph glyph-name="I" unicode="I" horiz-adv-x="532" 
d="M162 0v1524h209v-1524h-209z" />
    <glyph glyph-name="J" unicode="J" horiz-adv-x="1103" 
d="M520 -31q-220 0 -338.5 123.5t-118.5 378.5v33h205v-27q0 -186 60.5 -260t193.5 -74q236 0 236 260v1121h209v-1133q0 -190 -109 -299q-120 -123 -338 -123z" />
    <glyph glyph-name="K" unicode="K" horiz-adv-x="1404" 
d="M1161 0l-563 778l-231 -225v-553h-209v1524h209v-471q0 -115 -9 -281l736 754h262l-611 -611l660 -915h-244z" />
    <glyph glyph-name="L" unicode="L" horiz-adv-x="1218" 
d="M158 0v1524h209v-1334h788v-190h-997z" />
    <glyph glyph-name="M" unicode="M" horiz-adv-x="1804" 
d="M158 0v1524h270l317 -828q27 -74 65.5 -193t63.5 -201l25 -83h4q95 309 156 477l311 828h279v-1524h-201v922q0 60 3 157.5t6 165.5l3 68h-4q-61 -229 -106 -348l-371 -965h-164l-371 965q-19 53 -45.5 140t-43.5 147l-17 61h-4q12 -256 12 -391v-922h-188z" />
    <glyph glyph-name="N" unicode="N" horiz-adv-x="1517" 
d="M158 0v1524h219l624 -955q33 -50 75.5 -126t68.5 -127l26 -50h7q-15 199 -15 326v932h197v-1524h-217l-623 954q-33 51 -76.5 126.5t-70.5 125.5l-27 49h-4q12 -198 12 -321v-934h-196z" />
    <glyph glyph-name="O" unicode="O" horiz-adv-x="1691" 
d="M846 -33q-226 0 -396.5 104t-260 283.5t-89.5 407.5q0 229 89.5 408t260 282.5t396.5 103.5q169 0 310 -60t236.5 -165.5t148 -251.5t52.5 -317q0 -227 -90 -407t-261 -284t-396 -104zM846 152q168 0 289.5 80.5t181 217t59.5 312.5q0 177 -59.5 314.5t-181 218.5
t-289.5 81q-169 0 -291 -81t-182 -218.5t-60 -314.5q0 -176 60 -312.5t182 -217t291 -80.5z" />
    <glyph glyph-name="P" unicode="P" horiz-adv-x="1325" 
d="M369 1341v-544h389q152 0 228.5 71.5t76.5 202.5q0 132 -77.5 201t-219.5 69h-397zM778 627h-409v-627h-211v1524h641q241 0 364 -148q109 -128 109 -299q0 -214 -125 -332t-369 -118z" />
    <glyph glyph-name="Q" unicode="Q" horiz-adv-x="1689" 
d="M1481 -135l-248 201q-171 -99 -387 -99q-226 0 -396.5 104t-260 283.5t-89.5 407.5q0 229 89.5 408t260 282.5t396.5 103.5q225 0 395.5 -103.5t260 -283t89.5 -407.5q0 -181 -58 -334t-167 -260l219 -176zM846 147q124 0 229 48l-198 159l102 127l233 -188
q164 167 164 469q0 177 -59.5 314.5t-181 218.5t-289.5 81q-169 0 -291 -81t-182 -218.5t-60 -314.5q0 -176 60 -313.5t182.5 -219.5t290.5 -82z" />
    <glyph glyph-name="R" unicode="R" horiz-adv-x="1433" 
d="M367 1343v-540h436q152 0 230.5 71.5t78.5 198.5q0 137 -70.5 203.5t-228.5 66.5h-446zM772 635h-405v-635h-209v1524h712q204 0 330.5 -115.5t126.5 -304.5q0 -145 -65.5 -240t-212.5 -141v-6q125 -37 174.5 -120t60.5 -253q13 -172 29 -245t41 -89v-10h-224
q-25 20 -33.5 80t-21.5 262q-10 159 -81 226t-222 67z" />
    <glyph glyph-name="S" unicode="S" horiz-adv-x="1376" 
d="M717 -31q-155 0 -278.5 41t-203 113t-123 166t-49.5 205h207q19 -173 133.5 -265t319.5 -92q158 0 254 70.5t96 204.5q0 42 -11.5 76.5t-29 60.5t-51 48.5t-64 37.5t-83 31t-94 26t-109.5 25q-93 20 -158 38.5t-135.5 52.5t-113 76.5t-70 109t-27.5 151.5q0 189 145 298
t383 109q268 0 409 -120t171 -328h-203q-20 138 -117 211.5t-258 73.5q-153 0 -242 -61t-89 -173q0 -41 12.5 -73.5t40 -57.5t58.5 -43.5t80.5 -34.5t93.5 -27t110 -24q73 -15 124.5 -27.5t115 -33t106.5 -44t87.5 -59.5t70.5 -79t42.5 -102t16.5 -130q0 -212 -156.5 -331.5
t-410.5 -119.5z" />
    <glyph glyph-name="T" unicode="T" horiz-adv-x="1339" 
d="M1276 1339h-502v-1339h-211v1339h-500v185h1213v-185z" />
    <glyph glyph-name="U" unicode="U" horiz-adv-x="1441" 
d="M721 -23q-131 0 -236.5 30t-185 91.5t-123 162.5t-43.5 235v1028h209v-1010q0 -358 383 -358q375 0 375 358v1010h209v-1028q0 -134 -44.5 -235.5t-125 -162.5t-185.5 -91t-233 -30z" />
    <glyph glyph-name="V" unicode="V" horiz-adv-x="1359" 
d="M563 0l-526 1524h225l334 -1016q16 -49 38.5 -130.5t37.5 -138.5l14 -57h4q53 220 88 326l330 1016h217l-532 -1524h-230z" />
    <glyph glyph-name="W" unicode="W" horiz-adv-x="1976" 
d="M434 0l-397 1524h219l219 -897q16 -67 34 -168t28 -169l10 -67h4q41 256 80 406l246 895h221l237 -895q17 -67 37 -168.5t32 -169.5l11 -68h4q39 254 76 404l227 897h215l-424 -1524h-202l-250 975q-16 60 -34 155.5t-28 160.5l-10 65h-4q-39 -246 -74 -379l-268 -977
h-209z" />
    <glyph glyph-name="X" unicode="X" horiz-adv-x="1366" 
d="M47 0l524 782l-485 742h242l227 -367q26 -43 61 -105.5t56 -103.5l22 -41h4q83 154 144 250l229 367h229l-493 -744l512 -780h-250l-242 397q-26 44 -61 107.5t-56 105.5l-22 41h-4q-86 -156 -149 -254l-250 -397h-238z" />
    <glyph glyph-name="Y" unicode="Y" horiz-adv-x="1388" 
d="M795 0h-209v639l-549 885h233l275 -459q28 -48 65.5 -119.5t60.5 -118.5l23 -47h4q89 176 152 285l276 459h224l-555 -895v-629z" />
    <glyph glyph-name="Z" unicode="Z" horiz-adv-x="1368" 
d="M80 0v195l743 948q29 37 75 88.5t77 84.5l31 32v6q-169 -8 -273 -8h-598v178h1104v-164l-733 -948q-33 -41 -83 -98t-84 -94l-34 -36v-6q172 8 285 8h684v-186h-1194z" />
    <glyph glyph-name="bracketleft" unicode="[" horiz-adv-x="729" 
d="M178 -256v1862h467v-152h-274v-1550h274v-160h-467z" />
    <glyph glyph-name="backslash" unicode="\" horiz-adv-x="897" 
d="M944 -256h-190l-742 1860h193z" />
    <glyph glyph-name="bracketright" unicode="]" horiz-adv-x="729" 
d="M82 -256v160h272v1550h-272v152h469v-1862h-469z" />
    <glyph glyph-name="asciicircum" unicode="^" horiz-adv-x="1005" 
d="M43 911l358 613h203l359 -613h-203l-254 447h-4l-256 -447h-203z" />
    <glyph glyph-name="underscore" unicode="_" horiz-adv-x="874" 
d="M-4 -354v139h883v-139h-883z" />
    <glyph glyph-name="grave" unicode="`" horiz-adv-x="1101" 
d="M485 1280l-182 297h234l108 -297h-160z" />
    <glyph glyph-name="a" unicode="a" horiz-adv-x="1150" 
d="M506 117q78 0 141.5 27t101.5 70t58 93t20 99v180q-77 -49 -241 -78q-62 -11 -101 -20t-81 -25.5t-64.5 -37.5t-37.5 -54t-15 -78q0 -176 219 -176zM459 -23q-165 0 -269 81t-104 233q0 75 23 131t60.5 91.5t101 60.5t128.5 38t160 25q54 6 90.5 12.5t72.5 18.5t57 28
t33.5 41t12.5 58q0 90 -61 141t-174 51q-127 0 -193 -56t-71 -157h-185q3 71 32 133.5t82.5 112t139 78t193.5 28.5q165 0 266 -59q147 -88 147 -299v-514q0 -72 24.5 -100.5t92.5 -14.5h8v-133q-54 -16 -102 -16q-87 0 -133.5 41.5t-61.5 130.5h-2q-135 -185 -368 -185z
" />
    <glyph glyph-name="b" unicode="b" horiz-adv-x="1216" 
d="M670 -33q-111 0 -200.5 48.5t-143.5 140.5h-7v-156h-188v1524h191v-389q0 -45 -7 -209h7q57 92 147.5 146t206.5 54q212 0 340.5 -155.5t128.5 -423.5q0 -267 -127 -423.5t-348 -156.5zM649 125q147 0 224 115.5t77 304.5t-76.5 305.5t-222.5 116.5q-85 0 -151 -33
t-106.5 -91t-61.5 -133.5t-21 -164.5q0 -187 87.5 -303.5t250.5 -116.5z" />
    <glyph glyph-name="c" unicode="c" horiz-adv-x="1146" 
d="M608 -31q-121 0 -222.5 45.5t-169.5 124t-106 184.5t-38 226q0 160 64 290.5t187.5 208.5t284.5 78q196 0 320.5 -103t154.5 -282h-190q-21 109 -94 170.5t-191 61.5q-163 0 -252.5 -119t-89.5 -305t89.5 -305t252.5 -119q128 0 203 70t86 194h188q-19 -198 -144 -309
t-333 -111z" />
    <glyph glyph-name="d" unicode="d" horiz-adv-x="1220" 
d="M571 125q170 0 254 114.5t84 305.5t-88 306.5t-250 115.5q-147 0 -226 -116.5t-79 -305.5t79 -304.5t226 -115.5zM557 -33q-223 0 -354 157t-131 423q0 265 136 422t345 157q114 0 204 -52t144 -142h4q-6 153 -6 203v389h191v-1524h-189v158h-4q-54 -91 -140.5 -141
t-199.5 -50z" />
    <glyph glyph-name="e" unicode="e" horiz-adv-x="1181" 
d="M598 979q-143 0 -225.5 -92t-102.5 -246h637q-8 160 -88 249t-221 89zM1087 313q-37 -157 -164.5 -250.5t-314.5 -93.5q-164 0 -287.5 78.5t-186 209t-62.5 292.5q0 159 65 290.5t186 209t275 77.5q239 0 377 -170q135 -164 135 -452h-844q11 -168 100.5 -273.5
t243.5 -105.5q113 0 188.5 49.5t102.5 138.5h186z" />
    <glyph glyph-name="f" unicode="f" horiz-adv-x="716" 
d="M649 950h-225v-950h-191v950h-170v150h170v151q0 150 78 219q75 64 242 64q28 0 98 -4v-158q-135 9 -181 -17.5t-46 -111.5v-143h225v-150z" />
    <glyph glyph-name="g" unicode="g" horiz-adv-x="1218" 
d="M588 205q321 0 321 391q0 177 -81 275t-242 98q-147 0 -225 -102.5t-78 -280.5t79 -279.5t226 -101.5zM596 -385q-215 0 -336.5 80.5t-136.5 228.5h178q23 -162 291 -162q305 0 305 275v31q0 52 6 157h-6q-60 -87 -138 -131.5t-190 -44.5q-211 0 -346 150t-135 389
q0 124 37.5 226.5t101.5 170t149.5 104.5t182.5 37q226 0 334 -172h4v146h188v-1055q0 -212 -133 -326q-124 -104 -356 -104z" />
    <glyph glyph-name="h" unicode="h" horiz-adv-x="1169" 
d="M322 670v-670h-191v1524h191v-400q0 -91 -7 -184h7q130 186 352 186q173 0 271.5 -94t98.5 -264v-768h-188v745q0 105 -64.5 163.5t-177.5 58.5q-128 0 -210 -83t-82 -214z" />
    <glyph glyph-name="i" unicode="i" horiz-adv-x="452" 
d="M225 1526q51 0 84 -33t33 -84t-33 -84t-84 -33t-83.5 33t-32.5 84t32.5 84t83.5 33zM131 0v1100h191v-1100h-191z" />
    <glyph glyph-name="j" unicode="j" horiz-adv-x="454" 
d="M225 1526q51 0 84 -33t33 -84t-33 -84t-84 -33t-83.5 33t-32.5 84t32.5 84t83.5 33zM61 -348q-33 0 -106 10v152h6q35 -7 59 -7q57 2 84 27t27 82v1184h191v-1194q0 -144 -74 -205q-65 -49 -187 -49z" />
    <glyph glyph-name="k" unicode="k" horiz-adv-x="1110" 
d="M854 0l-377 580l-155 -148v-432h-191v1524h191v-723q0 -23 -3.5 -91t-3.5 -79l476 469h237l-420 -395l469 -705h-223z" />
    <glyph glyph-name="l" unicode="l" horiz-adv-x="464" 
d="M137 0v1524h191v-1524h-191z" />
    <glyph glyph-name="m" unicode="m" horiz-adv-x="1744" 
d="M131 0v1100h188v-164h7q52 90 136 140t189 50q102 0 177 -52.5t108 -151.5h4q57 100 147 152t193 52q154 0 247 -94.5t93 -263.5v-768h-190v752q0 99 -56.5 157t-142.5 58q-106 0 -183 -82.5t-77 -206.5v-678h-189v752q0 100 -51 157.5t-137 57.5q-103 0 -187.5 -84
t-84.5 -205v-678h-191z" />
    <glyph glyph-name="n" unicode="n" horiz-adv-x="1169" 
d="M322 670v-670h-191v1100h188v-156h7q131 182 348 182q173 0 271.5 -94t98.5 -264v-768h-188v745q0 105 -64.5 163.5t-177.5 58.5q-128 0 -210 -83t-82 -214z" />
    <glyph glyph-name="o" unicode="o" horiz-adv-x="1216" 
d="M610 -31q-162 0 -285.5 78t-188 209t-64.5 293q0 160 64.5 290.5t188 208.5t285.5 78t285 -78t186.5 -208.5t63.5 -290.5q0 -162 -63.5 -293t-186.5 -209t-285 -78zM608 125q163 0 252.5 119t89.5 305t-89.5 306t-252.5 120t-252.5 -120t-89.5 -306t89.5 -305t252.5 -119
z" />
    <glyph glyph-name="p" unicode="p" horiz-adv-x="1220" 
d="M649 125q147 0 226 115.5t79 302.5q0 189 -78 305.5t-225 116.5q-85 0 -151 -33t-106.5 -91t-61.5 -133.5t-21 -164.5t19 -163t58 -132t105.5 -90.5t155.5 -32.5zM322 -39v-334h-191v1473h188v-172h7q130 198 350 198q213 0 343 -155.5t130 -423.5q0 -265 -128.5 -422.5
t-350.5 -157.5q-230 0 -346 178h-7q5 -97 5 -184z" />
    <glyph glyph-name="q" unicode="q" horiz-adv-x="1220" 
d="M1087 -373h-188v334q0 5 1 36t2.5 78t2.5 70h-6q-65 -90 -146.5 -134t-195.5 -44q-222 0 -350.5 157.5t-128.5 422.5q0 266 132.5 422.5t340.5 156.5q229 0 344 -190h6v164h186v-1473zM573 125q117 0 194 55.5t109.5 146.5t32.5 216q0 194 -85 308t-253 114
q-147 0 -224 -116t-77 -306q0 -188 77.5 -303t225.5 -115z" />
    <glyph glyph-name="r" unicode="r" horiz-adv-x="776" 
d="M322 0h-191v1100h188v-199h7q53 99 136.5 156t188.5 57q40 0 70 -12v-180h-6q-34 10 -78 10q-132 0 -223.5 -91.5t-91.5 -242.5v-598z" />
    <glyph glyph-name="s" unicode="s" horiz-adv-x="1069" 
d="M553 -33q-224 0 -352 98.5t-140 268.5h193q31 -213 303 -213q125 0 186.5 48t61.5 126q0 36 -12 62.5t-32 45t-58.5 33.5t-78.5 25.5t-106 23.5q-58 12 -91.5 20t-83 23t-78 30.5t-62.5 40.5t-51.5 54.5t-30 71t-12.5 92.5q0 142 106.5 224.5t296.5 82.5q200 0 309 -85
t129 -234h-190q-25 176 -252 176q-107 0 -160 -43t-53 -111q0 -24 7.5 -44t17.5 -34.5t33 -27t41 -20.5t55.5 -17.5t62.5 -15t76 -15.5q56 -11 92.5 -19.5t83.5 -23.5t77 -31.5t62 -42.5t50 -57.5t30 -75.5t12 -98q0 -163 -121 -250.5t-321 -87.5z" />
    <glyph glyph-name="t" unicode="t" horiz-adv-x="718" 
d="M639 10q-77 -18 -154 -18q-249 3 -249 223v737h-173v148h173v346h188v-346h227v-148h-227v-694q0 -57 28.5 -79.5t84.5 -22.5q49 0 96 14h6v-160z" />
    <glyph glyph-name="u" unicode="u" horiz-adv-x="1155" 
d="M498 -25q-171 0 -272 98t-101 269v758h190v-748q0 -104 63 -162.5t177 -58.5q124 0 200 84.5t76 214.5v670h191v-1100h-188v154h-5q-63 -88 -141 -133.5t-190 -45.5z" />
    <glyph glyph-name="v" unicode="v" horiz-adv-x="1009" 
d="M393 0l-383 1100h203l193 -594q21 -65 46 -152.5t40 -142.5l14 -55h4q47 203 96 350l197 594h196l-395 -1100h-211z" />
    <glyph glyph-name="w" unicode="w" horiz-adv-x="1599" 
d="M369 0l-349 1100h203l172 -611q16 -56 34 -136t28 -133l10 -52h4q37 184 74 317l166 615h180l164 -615q14 -52 31 -131.5t28 -133.5l10 -54h4q31 188 72 323l182 611h197l-358 -1100h-191l-162 606l-69 307h-4q-41 -203 -68 -307l-166 -606h-192z" />
    <glyph glyph-name="x" unicode="x" horiz-adv-x="1138" 
d="M41 0l414 575l-367 525h221l164 -252l88 -152h4q55 99 90 152l170 252h207l-358 -506l424 -594h-221l-211 311q-18 26 -43.5 67.5t-41.5 69.5l-16 29h-4q-59 -107 -98 -166l-209 -311h-213z" />
    <glyph glyph-name="y" unicode="y" horiz-adv-x="1062" 
d="M266 -383q-103 0 -162 23v163h9q33 -20 114 -20q60 0 98 29t66 104q0 1 10.5 33.5t20.5 66.5t8 39l-420 1045h207l227 -611q20 -56 43.5 -130t36.5 -120l13 -46h4q51 173 94 296l219 611h199l-467 -1200q-65 -166 -136.5 -224.5t-183.5 -58.5z" />
    <glyph glyph-name="z" unicode="z" horiz-adv-x="1048" 
d="M90 0v147l492 641q20 25 53 62.5l55 62.5l23 25v6q-131 -6 -207 -6h-379v162h825v-119l-499 -653q-21 -26 -56 -66t-59 -67l-25 -27v-6q139 6 219 6h445v-168h-887z" />
    <glyph glyph-name="braceleft" unicode="{" horiz-adv-x="692" 
d="M582 -256q-174 0 -260 80.5t-86 269.5v367q0 73 -38.5 107.5t-129.5 37.5v154q91 3 129.5 37t38.5 106v359q0 189 85.5 266.5t260.5 77.5h63v-152h-57q-87 0 -122.5 -40.5t-35.5 -153.5v-371q0 -167 -125 -203v-6q65 -22 95 -71t30 -132v-381q0 -111 35.5 -151.5
t122.5 -40.5h57v-160h-63z" />
    <glyph glyph-name="bar" unicode="|" horiz-adv-x="512" 
d="M178 -256v1862h156v-1862h-156z" />
    <glyph glyph-name="braceright" unicode="}" horiz-adv-x="692" 
d="M82 -256v160h37q87 0 122 38t35 148v381q0 85 29.5 133t95.5 70v6q-66 20 -95.5 69t-29.5 134v372q0 112 -36 155.5t-121 43.5h-37v152h41q175 0 260.5 -80.5t85.5 -268.5v-358q0 -74 33.5 -108t120.5 -37v-156q-83 -3 -118.5 -37t-35.5 -106v-365q0 -190 -85 -268
t-261 -78h-41z" />
    <glyph glyph-name="asciitilde" unicode="~" horiz-adv-x="884" 
d="M596 573q-49 0 -154 43q-18 8 -45 20.5t-38 17t-26.5 8.5t-29.5 4q-60 0 -63 -91h-148q3 122 57 192.5t142 70.5q75 0 166 -50q45 -24 68.5 -33.5t47.5 -9.5q71 0 74 89h146q-3 -120 -51.5 -190.5t-145.5 -70.5z" />
    <glyph glyph-name="uni00A0" unicode="&#xa0;" horiz-adv-x="544" 
 />
    <glyph glyph-name="exclamdown" unicode="&#xa1;" horiz-adv-x="540" 
d="M322 811l53 -604v-477h-207v477l49 604h105zM270 1020q-52 0 -87.5 35t-35.5 88q0 52 35 86.5t88 34.5t88 -34.5t35 -86.5q0 -53 -35.5 -88t-87.5 -35z" />
    <glyph glyph-name="cent" unicode="&#xa2;" horiz-adv-x="1148" 
d="M1085 389q-15 -185 -126 -295t-295 -123v-215h-121v217q-143 16 -251 97t-164 205t-56 274q0 228 128.5 390t342.5 185v176h121v-174q173 -15 283 -117.5t138 -267.5h-190q-17 96 -77 156.5t-154 73.5v-842q103 13 163.5 81.5t71.5 178.5h186zM264 549q0 -165 73 -279.5
t206 -138.5v838q-133 -24 -206 -139.5t-73 -280.5z" />
    <glyph glyph-name="sterling" unicode="&#xa3;" horiz-adv-x="1218" 
d="M1174 106q-152 -131 -332 -131q-65 0 -127.5 17.5t-103 38t-97 38t-111.5 17.5q-39 0 -80.5 -16t-65.5 -31.5t-64 -44.5l-111 153q42 30 71 53.5t60 56.5t49.5 65.5t30.5 75.5t12 91q0 66 -24 150h-181v143h127q-22 57 -34.5 93.5t-23.5 91.5t-11 106q0 185 133 301.5
t358 116.5q209 0 336 -113q149 -129 152 -366h-195q-3 161 -83.5 238t-213.5 77q-135 0 -209 -68.5t-74 -189.5q0 -18 2 -37t4 -33.5t8 -37.5t8.5 -34t11.5 -37.5t11.5 -34t13.5 -38t13 -35.5h301v-143h-260q12 -55 12 -117q0 -103 -47 -180t-147 -158l4 -6q61 31 100.5 42
t94.5 11q64 0 126.5 -21t120 -42t107.5 -21q105 0 221 101z" />
    <glyph glyph-name="currency" unicode="&#xa4;" horiz-adv-x="1036" 
d="M131 256l-92 88l141 145q-78 113 -78 259q0 143 78 253l-141 146l92 88l137 -141q110 82 250 82t250 -82l137 141l92 -88l-141 -146q76 -112 76 -253t-78 -256l143 -148l-92 -88l-139 141q-101 -75 -248 -75t-248 75zM518 455q114 0 179 81.5t65 211.5q0 129 -65 211.5
t-179 82.5t-180 -83t-66 -211q0 -129 66 -211t180 -82z" />
    <glyph glyph-name="yen" unicode="&#xa5;" horiz-adv-x="1251" 
d="M1114 293h-381v-293h-196v293h-381v117h381v165h-381v117h348l-461 766h221l180 -325q34 -59 81 -152.5t77 -156.5l31 -64h4q112 240 188 373l181 325h213l-457 -766h352v-117h-381v-165h381v-117z" />
    <glyph glyph-name="brokenbar" unicode="&#xa6;" horiz-adv-x="512" 
d="M178 768v838h156v-838h-156zM178 -256v872h156v-872h-156z" />
    <glyph glyph-name="section" unicode="&#xa7;" horiz-adv-x="1286" 
d="M569 403q201 -111 287 -172q86 25 125 77.5t39 121.5q0 78 -70 138q-51 44 -222 137h-1l-1 1h-1l-1 1h-1l-1 1h-1l-1 1h-1l-1 1h-1l-1 1h-1l-1 1h-1l-1 1l-1 1h-1l-1 1h-1l-1 1h-1l-1 1h-1l-1 1h-1q-22 13 -34 19q-143 78 -240 142q-79 -20 -121.5 -69.5t-42.5 -111.5
q0 -34 11 -62t29.5 -52t59.5 -54t84 -56t121 -71zM653 -393q-211 0 -336.5 114.5t-130.5 282.5h191q8 -106 78.5 -170.5t199.5 -64.5q104 0 158.5 42t54.5 111q0 31 -14 59.5t-35.5 51.5t-66 52.5t-86 54t-114.5 64.5q-42 23 -65 36q-89 49 -141.5 81t-110.5 76t-88 82.5
t-49.5 89t-19.5 109.5q0 216 252 287q-97 97 -97 209q0 146 112 233.5t298 87.5q196 0 307.5 -102t124.5 -267h-190q-11 95 -71.5 150t-172.5 55q-105 0 -160 -41t-55 -110q0 -38 19.5 -70.5t58.5 -61.5t94 -60.5t128 -69.5l30 -15q50 -26 73 -38.5t67 -37t66 -39t58 -39
t54.5 -42.5t44 -43t38.5 -48.5t26.5 -52t19 -58.5t5.5 -63q0 -230 -250 -301q105 -102 105 -217q0 -144 -110 -230.5t-300 -86.5z" />
    <glyph glyph-name="dieresis" unicode="&#xa8;" horiz-adv-x="1024" 
d="M713 1520q49 0 81.5 -32.5t32.5 -82.5q0 -48 -32.5 -80.5t-81.5 -32.5t-82 32.5t-33 80.5q0 49 33 82t82 33zM311 1520q49 0 82 -33t33 -82q0 -48 -33 -80.5t-82 -32.5t-81.5 32.5t-32.5 80.5q0 50 32.5 82.5t81.5 32.5z" />
    <glyph glyph-name="copyright" unicode="&#xa9;" horiz-adv-x="1767" 
d="M883 -37q-216 0 -394.5 102.5t-281.5 284.5t-103 406q0 225 103 407t281 284.5t395 102.5q162 0 306.5 -60.5t249 -165t165.5 -252.5t61 -316t-61 -315.5t-165.5 -252t-249 -165t-306.5 -60.5zM883 49q192 0 347.5 91.5t244 253.5t88.5 362q0 201 -88.5 363.5t-244 254.5
t-347.5 92q-191 0 -346.5 -91.5t-244.5 -254.5t-89 -364q0 -200 89 -362t244.5 -253.5t346.5 -91.5zM893 293q-187 0 -307.5 131t-120.5 332q0 204 118 337.5t310 133.5q156 0 256 -84q98 -79 117 -215h-176q-9 66 -61 108.5t-136 42.5q-120 0 -184 -90.5t-64 -232.5
q0 -139 68 -225.5t182 -86.5q90 0 143.5 50.5t61.5 126.5h170q-2 -64 -29.5 -126.5t-73.5 -103.5q-106 -98 -274 -98z" />
    <glyph glyph-name="ordfeminine" unicode="&#xaa;" horiz-adv-x="1064" 
d="M475 616q69 0 124 22t87.5 58.5t49 78.5t16.5 85v146q-70 -40 -213 -58q-134 -19 -193 -55.5t-59 -124.5q0 -152 188 -152zM438 485q-146 0 -242 73t-96 204q0 66 21.5 116.5t57.5 82.5t92.5 54t115.5 33t139 19q59 6 97 14t68.5 23t44.5 40t14 62q0 156 -197 156
q-217 0 -236 -180h-172q10 134 114 222.5t290 88.5q172 0 260 -66q109 -79 109 -245v-537q0 -108 34 -131v-10h-178q-26 34 -29 133h-4q-105 -152 -303 -152z" />
    <glyph glyph-name="guillemotleft" unicode="&#xab;" horiz-adv-x="1054" 
d="M469 168l-307 307v199l307 307v-205l-205 -198v-5l205 -200v-205zM893 168l-305 307v199l305 307v-205l-203 -198v-5l203 -200v-205z" />
    <glyph glyph-name="logicalnot" unicode="&#xac;" horiz-adv-x="1163" 
d="M129 741v150h870v-533h-157v383h-713z" />
    <glyph glyph-name="uni00AD" unicode="&#xad;" horiz-adv-x="765" 
d="M98 498v172h570v-172h-570z" />
    <glyph glyph-name="registered" unicode="&#xae;" horiz-adv-x="1341" 
d="M672 352q-162 0 -297 77t-214 214.5t-79 306.5q0 170 79 308t214 215t297 77t296.5 -77t213 -215t78.5 -308q0 -127 -46 -238.5t-124.5 -190t-187.5 -124t-230 -45.5zM672 432q215 0 356 147t141 371q0 226 -141 374.5t-356 148.5q-214 0 -355 -148.5t-141 -374.5
q0 -224 141 -371t355 -147zM563 1171v-182h144q53 0 80.5 25t27.5 67q0 41 -27 65.5t-79 24.5h-146zM678 893h-115v-258h-125v641h297q89 0 147 -49.5t58 -130.5q0 -121 -129 -154v-2q54 -13 77.5 -43t29.5 -90q2 -20 5 -49t4.5 -44.5t4 -32.5t6.5 -25.5t10 -10.5v-10h-123
q-4 2 -7 6.5t-5 14t-3.5 18t-3 24t-2.5 25.5t-2.5 30t-2.5 31q-6 109 -121 109z" />
    <glyph glyph-name="macron" unicode="&#xaf;" horiz-adv-x="1024" 
d="M233 1350v153h560v-153h-560z" />
    <glyph glyph-name="degree" unicode="&#xb0;" horiz-adv-x="782" 
d="M391 881q-129 0 -220 89t-91 216t91 217t220 90q130 0 222 -89.5t92 -217.5q0 -127 -91.5 -216t-222.5 -89zM391 993q80 0 128 54t48 139q0 84 -48 138t-128 54q-77 0 -126.5 -54.5t-49.5 -137.5q0 -84 49 -138.5t127 -54.5z" />
    <glyph glyph-name="plusminus" unicode="&#xb1;" horiz-adv-x="1230" 
d="M1102 682h-408v-363h-157v363h-408v149h408v361h157v-361h408v-149zM129 0v150h973v-150h-973z" />
    <glyph glyph-name="twosuperior" unicode="&#xb2;" horiz-adv-x="806" 
d="M57 586q2 61 21 115.5t43.5 93t66.5 78.5t73 63.5t79 56.5q16 10 50.5 32t49.5 32.5t41.5 30t39 34.5t27 35.5t20 42.5t5.5 47q0 74 -44 117t-119 43q-81 0 -126.5 -53t-47.5 -142h-158q0 151 93 241.5t249 90.5q143 0 232 -85t89 -210q0 -62 -16.5 -109.5t-61.5 -90.5
t-69.5 -60.5t-93.5 -60.5q-10 -7 -15 -10q-59 -34 -93.5 -56.5t-78 -63t-55.5 -77.5h481v-135h-682z" />
    <glyph glyph-name="threesuperior" unicode="&#xb3;" horiz-adv-x="825" 
d="M416 567q-171 0 -272 88t-103 236h154q5 -91 58.5 -143t156.5 -52q88 0 139 43.5t51 126.5q0 75 -52.5 115.5t-150.5 40.5h-59v125h57q85 0 131.5 36t46.5 101t-44.5 102t-116.5 37q-86 0 -135 -49.5t-52 -128.5h-155q3 135 95 218t249 83q140 0 228.5 -70t88.5 -188
q0 -148 -166 -194v-4q201 -45 201 -236q0 -137 -100 -212t-250 -75z" />
    <glyph glyph-name="acute" unicode="&#xb4;" horiz-adv-x="1024" 
d="M418 1280l108 297h234l-182 -297h-160z" />
    <glyph glyph-name="mu" unicode="&#xb5;" horiz-adv-x="1163" 
d="M133 -373v1473h191v-748q0 -105 62.5 -163t176.5 -58q124 0 200.5 84.5t76.5 214.5v670h190v-1100h-188v154h-4q-128 -179 -314 -179q-71 0 -118 16t-82 54h-7q7 -76 7 -203v-215h-191z" />
    <glyph glyph-name="paragraph" unicode="&#xb6;" horiz-adv-x="1169" 
d="M565 748h-59q-206 0 -316 103.5t-110 287.5q0 166 108 280q102 105 310 105h514v-1811h-140v1639h-167v-1639h-140v1035z" />
    <glyph glyph-name="periodcentered" unicode="&#xb7;" horiz-adv-x="479" 
d="M240 788q52 0 87 -35t35 -87t-34.5 -86.5t-87.5 -34.5t-88 34.5t-35 86.5t35 87t88 35z" />
    <glyph glyph-name="cedilla" unicode="&#xb8;" horiz-adv-x="1024" 
d="M465 -426q-134 0 -227 64l32 63q74 -33 154 -33q129 0 129 72q0 67 -86 67q-44 0 -88 -14l-33 51l150 156h120l-131 -115v-4q34 4 69 -0.5t68 -19t53.5 -46t20.5 -75.5q0 -80 -63.5 -123t-167.5 -43z" />
    <glyph glyph-name="onesuperior" unicode="&#xb9;" horiz-adv-x="579" 
d="M289 586v661h-228v109q229 7 250 176h142v-946h-164z" />
    <glyph glyph-name="ordmasculine" unicode="&#xba;" horiz-adv-x="1122" 
d="M563 475q-143 0 -251.5 68t-165 183t-56.5 257q0 218 129.5 364t343.5 146q143 0 251 -69t163 -184t55 -257q0 -218 -127.5 -363t-341.5 -145zM563 616q138 0 211.5 102t73.5 265q0 164 -73.5 266.5t-211.5 102.5q-139 0 -213 -102.5t-74 -266.5t73.5 -265.5
t213.5 -101.5z" />
    <glyph glyph-name="guillemotright" unicode="&#xbb;" horiz-adv-x="1054" 
d="M588 981l305 -307v-199l-305 -307v205l203 198v4l-203 201v205zM162 981l307 -307v-199l-307 -307v205l205 198v4l-205 201v205z" />
    <glyph glyph-name="onequarter" unicode="&#xbc;" horiz-adv-x="1710" 
d="M295 586v661h-227v109q228 7 249 176h142v-946h-164zM68 -266l1329 1790h176l-1331 -1790h-174zM1010 106q90 9 145 9h205v262q0 30 3.5 73t6.5 71l4 28h-6q-63 -97 -108 -152l-138 -164q-18 -23 -46 -53.5t-47 -49.5l-19 -19v-5zM1667 -10h-149v-215h-158v215h-463v162
l465 573h156v-610h149v-125z" />
    <glyph glyph-name="onehalf" unicode="&#xbd;" horiz-adv-x="1826" 
d="M295 586v661h-227v109q228 7 249 176h142v-946h-164zM70 -266l1329 1790h176l-1331 -1790h-174zM1071 -225q2 61 21 115.5t43.5 93t66.5 78.5t73 63.5t79 56.5q16 10 50.5 32t49.5 32.5t41.5 30t39 34.5t27 35.5t20 42.5t5.5 47q0 73 -44.5 116.5t-119.5 43.5
q-81 0 -126.5 -53t-47.5 -142h-157q0 151 93 241.5t249 90.5q143 0 232 -85t89 -210q0 -62 -19 -111.5t-57 -87.5t-75 -64.5t-91 -60.5q-3 -1 -5 -2.5t-4.5 -3t-4.5 -2.5q-45 -26 -69.5 -41.5t-63 -43.5t-61.5 -55.5t-33 -55.5h481v-135h-682z" />
    <glyph glyph-name="threequarters" unicode="&#xbe;" horiz-adv-x="1890" 
d="M422 567q-171 0 -272 88t-103 236h154q5 -91 58.5 -143t156.5 -52q88 0 139 43.5t51 126.5q0 75 -52.5 115.5t-150.5 40.5h-59v125h57q85 0 132 36t47 101t-45 102t-117 37q-86 0 -135 -49.5t-52 -128.5h-155q3 135 95 218t249 83q140 0 228.5 -70t88.5 -188
q0 -148 -166 -194v-4q201 -45 201 -236q0 -137 -100 -212t-250 -75zM250 -266l1329 1790h176l-1331 -1790h-174zM1190 106q90 9 145 9h205v262q0 30 3.5 73t6.5 71l4 28h-6q-63 -97 -108 -152l-137 -164q-18 -23 -46.5 -53.5t-47.5 -49.5l-19 -19v-5zM1847 -10h-149v-215
h-158v215h-463v162l465 573h156v-610h149v-125z" />
    <glyph glyph-name="questiondown" unicode="&#xbf;" horiz-adv-x="1120" 
d="M680 811q-1 -102 -24 -174.5t-66.5 -128t-126.5 -127.5q-88 -77 -115 -108q-67 -79 -67 -173q0 -100 71.5 -164.5t196.5 -64.5q154 0 237 90t88 236h193q-2 -96 -34.5 -182.5t-93.5 -157t-161.5 -112.5t-228.5 -42q-214 0 -341.5 111.5t-127.5 281.5q0 60 15 112
t44.5 94.5t59.5 73.5t73 66q140 118 181 172q27 37 37 81.5t12 115.5h178zM592 1020q-52 0 -87.5 35t-35.5 88q0 52 35 86.5t88 34.5t88 -34.5t35 -86.5q0 -53 -35.5 -88t-87.5 -35z" />
    <glyph glyph-name="Agrave" unicode="&#xc0;" horiz-adv-x="1429" 
d="M616 1034l-149 -426h487l-145 426q-23 65 -46 146t-35 130l-11 48h-6q-46 -183 -95 -324zM1161 0l-151 444h-600l-156 -444h-215l557 1524h233l562 -1524h-230zM637 1608l-182 256h233l109 -256h-160z" />
    <glyph glyph-name="Aacute" unicode="&#xc1;" horiz-adv-x="1429" 
d="M616 1034l-149 -426h487l-145 426q-23 65 -46 146t-35 130l-11 48h-6q-46 -183 -95 -324zM1161 0l-151 444h-600l-156 -444h-215l557 1524h233l562 -1524h-230zM627 1608l108 256h234l-183 -256h-159z" />
    <glyph glyph-name="Acircumflex" unicode="&#xc2;" horiz-adv-x="1429" 
d="M616 1034l-149 -426h487l-145 426q-23 65 -46 146t-35 130l-11 48h-6q-46 -183 -95 -324zM1161 0l-151 444h-600l-156 -444h-215l557 1524h233l562 -1524h-230zM406 1608l206 231h211l201 -231h-197l-110 125h-4l-115 -125h-192z" />
    <glyph glyph-name="Atilde" unicode="&#xc3;" horiz-adv-x="1429" 
d="M616 1034l-149 -426h487l-145 426q-23 65 -46 146t-35 130l-11 48h-6q-46 -183 -95 -324zM1161 0l-151 444h-600l-156 -444h-215l557 1524h233l562 -1524h-230zM852 1610q-46 0 -96.5 20t-92 40t-63.5 20q-24 0 -40 -23t-19 -55h-131q4 105 49.5 162t122.5 57
q50 0 96.5 -20t85.5 -40t70 -20q49 0 57 76h131q-10 -217 -170 -217z" />
    <glyph glyph-name="Adieresis" unicode="&#xc4;" horiz-adv-x="1429" 
d="M616 1034l-149 -426h487l-145 426q-23 65 -46 146t-35 130l-11 48h-6q-46 -183 -95 -324zM1161 0l-151 444h-600l-156 -444h-215l557 1524h233l562 -1524h-230zM918 1831q49 0 81.5 -32.5t32.5 -82.5q0 -48 -32.5 -80t-81.5 -32t-82 32.5t-33 79.5q0 50 32.5 82.5
t82.5 32.5zM512 1831q50 0 82.5 -32.5t32.5 -82.5q0 -47 -33 -79.5t-82 -32.5t-82 32.5t-33 79.5q0 50 32.5 82.5t82.5 32.5z" />
    <glyph glyph-name="Aring" unicode="&#xc5;" horiz-adv-x="1429" 
d="M616 1034l-149 -426h487l-145 426q-23 65 -46 146t-35 130l-11 48h-6q-46 -183 -95 -324zM1161 0l-151 444h-600l-156 -444h-215l557 1524h233l562 -1524h-230zM717 1593q-88 0 -149.5 60.5t-61.5 146.5q0 85 61.5 144t149.5 59q86 0 147.5 -59t61.5 -144
q0 -86 -61.5 -146.5t-147.5 -60.5zM717 1679q49 0 80.5 34t31.5 87q0 51 -31.5 85t-80.5 34q-51 0 -83 -34t-32 -85q0 -53 32 -87t83 -34z" />
    <glyph glyph-name="AE" unicode="&#xc6;" horiz-adv-x="2068" 
d="M733 1339l-258 -727h473v727h-215zM1944 1524v-185h-785v-460h701v-174h-701v-512h809v-193h-1020v444h-532l-156 -444h-211l551 1524h1344z" />
    <glyph glyph-name="Ccedilla" unicode="&#xc7;" horiz-adv-x="1548" 
d="M735 -426q-134 0 -227 64l33 63q74 -33 153 -33q129 0 129 72q0 67 -86 67q-44 0 -88 -14l-33 51l123 129q-291 28 -465 245.5t-174 543.5q0 168 50 313.5t141 252t228.5 167.5t303.5 61q260 0 424 -135q164 -132 195 -358h-209q-27 143 -135 227t-279 84
q-158 0 -274 -80.5t-174 -218t-58 -313.5q0 -274 139 -442t369 -168q100 0 180 32t131 88.5t80.5 127.5t36.5 155h209q-2 -114 -51.5 -230t-130.5 -194q-153 -153 -424 -162l-96 -84v-4q34 4 69 -0.5t68 -19t53.5 -46t20.5 -75.5q0 -80 -64 -123t-168 -43z" />
    <glyph glyph-name="Egrave" unicode="&#xc8;" horiz-adv-x="1363" 
d="M1264 190v-190h-1106v1524h1083v-185h-874v-460h790v-174h-790v-515h897zM645 1608l-182 256h233l109 -256h-160z" />
    <glyph glyph-name="Eacute" unicode="&#xc9;" horiz-adv-x="1363" 
d="M1264 190v-190h-1106v1524h1083v-185h-874v-460h790v-174h-790v-515h897zM635 1608l108 256h234l-182 -256h-160z" />
    <glyph glyph-name="Ecircumflex" unicode="&#xca;" horiz-adv-x="1363" 
d="M1264 190v-190h-1106v1524h1083v-185h-874v-460h790v-174h-790v-515h897zM414 1608l207 231h210l201 -231h-196l-111 125h-4l-115 -125h-192z" />
    <glyph glyph-name="Edieresis" unicode="&#xcb;" horiz-adv-x="1363" 
d="M1264 190v-190h-1106v1524h1083v-185h-874v-460h790v-174h-790v-515h897zM926 1831q49 0 81.5 -32.5t32.5 -82.5q0 -48 -32.5 -80t-81.5 -32t-82 32.5t-33 79.5q0 50 32.5 82.5t82.5 32.5zM520 1831q50 0 82.5 -32.5t32.5 -82.5q0 -47 -33 -79.5t-82 -32.5t-81.5 32
t-32.5 80q0 50 32.5 82.5t81.5 32.5z" />
    <glyph glyph-name="Igrave" unicode="&#xcc;" horiz-adv-x="532" 
d="M162 0v1524h209v-1524h-209zM188 1608l-182 256h234l108 -256h-160z" />
    <glyph glyph-name="Iacute" unicode="&#xcd;" horiz-adv-x="532" 
d="M162 0v1524h209v-1524h-209zM178 1608l109 256h233l-182 -256h-160z" />
    <glyph glyph-name="Icircumflex" unicode="&#xce;" horiz-adv-x="532" 
d="M162 0v1524h209v-1524h-209zM-43 1608l207 231h211l200 -231h-196l-111 125h-4l-114 -125h-193z" />
    <glyph glyph-name="Idieresis" unicode="&#xcf;" horiz-adv-x="532" 
d="M330 1716q0 50 32.5 82.5t81.5 32.5q50 0 82.5 -32.5t32.5 -82.5q0 -47 -33 -79.5t-82 -32.5t-81.5 32t-32.5 80zM-27 1716q0 50 32.5 82.5t82.5 32.5t82.5 -32.5t32.5 -82.5q0 -47 -33 -79.5t-82 -32.5t-82 32.5t-33 79.5zM162 0v1524h209v-1524h-209z" />
    <glyph glyph-name="Eth" unicode="&#xd0;" horiz-adv-x="1519" 
d="M727 0h-549v678h-151v176h151v670h563q168 0 298.5 -55.5t213.5 -157.5t125.5 -242t42.5 -313q0 -172 -44.5 -310.5t-130 -238t-218 -153.5t-301.5 -54zM389 182h330q250 0 368.5 150.5t118.5 423.5q0 585 -475 585h-342v-487h430v-176h-430v-496z" />
    <glyph glyph-name="Ntilde" unicode="&#xd1;" horiz-adv-x="1517" 
d="M158 0v1524h219l624 -955q33 -50 75.5 -126t68.5 -127l26 -50h7q-15 199 -15 326v932h197v-1524h-217l-623 954q-33 51 -76.5 126.5t-70.5 125.5l-27 49h-4q12 -198 12 -321v-934h-196zM911 1610q-46 0 -96.5 20t-92 40t-63.5 20q-24 0 -40 -23t-19 -55h-131
q4 105 49.5 162t122.5 57q50 0 96.5 -20t85.5 -40t70 -20q49 0 57 76h131q-10 -217 -170 -217z" />
    <glyph glyph-name="Ograve" unicode="&#xd2;" horiz-adv-x="1691" 
d="M846 -33q-226 0 -396.5 104t-260 283.5t-89.5 407.5q0 229 89.5 408t260 282.5t396.5 103.5q169 0 310 -60t236.5 -165.5t148 -251.5t52.5 -317q0 -227 -90 -407t-261 -284t-396 -104zM846 152q168 0 289.5 80.5t181 217t59.5 312.5q0 177 -59.5 314.5t-181 218.5
t-289.5 81q-169 0 -291 -81t-182 -218.5t-60 -314.5q0 -176 60 -312.5t182 -217t291 -80.5zM768 1608l-182 256h233l109 -256h-160z" />
    <glyph glyph-name="Oacute" unicode="&#xd3;" horiz-adv-x="1691" 
d="M846 -33q-226 0 -396.5 104t-260 283.5t-89.5 407.5q0 229 89.5 408t260 282.5t396.5 103.5q169 0 310 -60t236.5 -165.5t148 -251.5t52.5 -317q0 -227 -90 -407t-261 -284t-396 -104zM846 152q168 0 289.5 80.5t181 217t59.5 312.5q0 177 -59.5 314.5t-181 218.5
t-289.5 81q-169 0 -291 -81t-182 -218.5t-60 -314.5q0 -176 60 -312.5t182 -217t291 -80.5zM758 1608l108 256h234l-182 -256h-160z" />
    <glyph glyph-name="Ocircumflex" unicode="&#xd4;" horiz-adv-x="1691" 
d="M846 -33q-226 0 -396.5 104t-260 283.5t-89.5 407.5q0 229 89.5 408t260 282.5t396.5 103.5q169 0 310 -60t236.5 -165.5t148 -251.5t52.5 -317q0 -227 -90 -407t-261 -284t-396 -104zM846 152q168 0 289.5 80.5t181 217t59.5 312.5q0 177 -59.5 314.5t-181 218.5
t-289.5 81q-169 0 -291 -81t-182 -218.5t-60 -314.5q0 -176 60 -312.5t182 -217t291 -80.5zM537 1608l206 231h211l201 -231h-197l-110 125h-4l-115 -125h-192z" />
    <glyph glyph-name="Otilde" unicode="&#xd5;" horiz-adv-x="1691" 
d="M846 -33q-226 0 -396.5 104t-260 283.5t-89.5 407.5q0 229 89.5 408t260 282.5t396.5 103.5q169 0 310 -60t236.5 -165.5t148 -251.5t52.5 -317q0 -227 -90 -407t-261 -284t-396 -104zM846 152q168 0 289.5 80.5t181 217t59.5 312.5q0 177 -59.5 314.5t-181 218.5
t-289.5 81q-169 0 -291 -81t-182 -218.5t-60 -314.5q0 -176 60 -312.5t182 -217t291 -80.5zM983 1610q-46 0 -96.5 20t-92 40t-63.5 20q-24 0 -40 -23t-19 -55h-131q4 105 49.5 162t122.5 57q50 0 96.5 -20t85.5 -40t70 -20q49 0 57 76h131q-10 -217 -170 -217z" />
    <glyph glyph-name="Odieresis" unicode="&#xd6;" horiz-adv-x="1691" 
d="M846 -33q-226 0 -396.5 104t-260 283.5t-89.5 407.5q0 229 89.5 408t260 282.5t396.5 103.5q169 0 310 -60t236.5 -165.5t148 -251.5t52.5 -317q0 -227 -90 -407t-261 -284t-396 -104zM846 152q168 0 289.5 80.5t181 217t59.5 312.5q0 177 -59.5 314.5t-181 218.5
t-289.5 81q-169 0 -291 -81t-182 -218.5t-60 -314.5q0 -176 60 -312.5t182 -217t291 -80.5zM1049 1831q49 0 81.5 -32.5t32.5 -82.5q0 -48 -32.5 -80t-81.5 -32t-82 32.5t-33 79.5q0 50 33 82.5t82 32.5zM643 1831q49 0 82 -32.5t33 -82.5q0 -47 -33 -79.5t-82 -32.5
t-82 32.5t-33 79.5q0 50 33 82.5t82 32.5z" />
    <glyph glyph-name="multiply" unicode="&#xd7;" horiz-adv-x="1230" 
d="M961 242l-345 348l-346 -348l-104 100l348 352l-348 350l104 103l346 -348l345 348l106 -103l-348 -350l348 -350z" />
    <glyph glyph-name="Oslash" unicode="&#xd8;" horiz-adv-x="1691" 
d="M313 762q0 -227 99 -383l798 856q-141 141 -364 141q-169 0 -291 -81t-182 -218.5t-60 -314.5zM846 152q168 0 289.5 80.5t181 217t59.5 312.5q0 226 -94 381l-797 -856q138 -135 361 -135zM846 -33q-298 0 -496 176l-207 -221l-86 80l213 227q-170 213 -170 533
q0 229 89.5 408t260 282.5t396.5 103.5q301 0 500 -180l184 199l86 -76l-193 -207q170 -214 170 -530q0 -227 -90 -407t-261 -284t-396 -104z" />
    <glyph glyph-name="Ugrave" unicode="&#xd9;" horiz-adv-x="1441" 
d="M721 -23q-131 0 -236.5 30t-185 91.5t-123 162.5t-43.5 235v1028h209v-1010q0 -358 383 -358q375 0 375 358v1010h209v-1028q0 -134 -44.5 -235.5t-125 -162.5t-185.5 -91t-233 -30zM643 1608l-182 256h233l109 -256h-160z" />
    <glyph glyph-name="Uacute" unicode="&#xda;" horiz-adv-x="1441" 
d="M721 -23q-131 0 -236.5 30t-185 91.5t-123 162.5t-43.5 235v1028h209v-1010q0 -358 383 -358q375 0 375 358v1010h209v-1028q0 -134 -44.5 -235.5t-125 -162.5t-185.5 -91t-233 -30zM633 1608l108 256h234l-182 -256h-160z" />
    <glyph glyph-name="Ucircumflex" unicode="&#xdb;" horiz-adv-x="1441" 
d="M721 -23q-131 0 -236.5 30t-185 91.5t-123 162.5t-43.5 235v1028h209v-1010q0 -358 383 -358q375 0 375 358v1010h209v-1028q0 -134 -44.5 -235.5t-125 -162.5t-185.5 -91t-233 -30zM412 1608l206 231h211l201 -231h-196l-111 125h-4l-115 -125h-192z" />
    <glyph glyph-name="Udieresis" unicode="&#xdc;" horiz-adv-x="1441" 
d="M721 -23q-131 0 -236.5 30t-185 91.5t-123 162.5t-43.5 235v1028h209v-1010q0 -358 383 -358q375 0 375 358v1010h209v-1028q0 -134 -44.5 -235.5t-125 -162.5t-185.5 -91t-233 -30zM924 1831q49 0 81.5 -32.5t32.5 -82.5q0 -48 -32.5 -80t-81.5 -32t-82 32.5t-33 79.5
q0 50 32.5 82.5t82.5 32.5zM518 1831q50 0 82.5 -32.5t32.5 -82.5q0 -47 -33 -79.5t-82 -32.5t-82 32.5t-33 79.5q0 50 32.5 82.5t82.5 32.5z" />
    <glyph glyph-name="Yacute" unicode="&#xdd;" horiz-adv-x="1388" 
d="M795 0h-209v639l-549 885h233l275 -459q28 -48 65.5 -119.5t60.5 -118.5l23 -47h4q89 176 152 285l276 459h224l-555 -895v-629zM610 1608l109 256h233l-182 -256h-160z" />
    <glyph glyph-name="Thorn" unicode="&#xde;" horiz-adv-x="1325" 
d="M766 1075h-397v-545h389q152 0 228.5 72.5t76.5 202.5q0 132 -77.5 201t-219.5 69zM778 360h-409v-360h-211v1524h211v-264h430q241 0 364 -148q109 -128 109 -299q0 -215 -125.5 -334t-368.5 -119z" />
    <glyph glyph-name="germandbls" unicode="&#xdf;" horiz-adv-x="1124" 
d="M578 -23q-56 0 -113 13v149h4q171 -31 281 54.5t110 259.5q0 154 -84 239.5t-239 85.5h-58v137h60q117 0 189.5 69t72.5 181q0 101 -62.5 162.5t-173.5 61.5q-116 0 -179.5 -67t-63.5 -179v-1143h-191v1153q0 175 118.5 282t321.5 107q179 0 297.5 -102t118.5 -266
q0 -234 -250 -312v-4q148 -37 232 -138t84 -263q0 -221 -127.5 -350.5t-347.5 -129.5z" />
    <glyph glyph-name="agrave" unicode="&#xe0;" horiz-adv-x="1150" 
d="M506 117q78 0 141.5 27t101.5 70t58 93t20 99v180q-77 -49 -241 -78q-62 -11 -101 -20t-81 -25.5t-64.5 -37.5t-37.5 -54t-15 -78q0 -176 219 -176zM459 -23q-165 0 -269 81t-104 233q0 75 23 131t60.5 91.5t101 60.5t128.5 38t160 25q54 6 90.5 12.5t72.5 18.5t57 28
t33.5 41t12.5 58q0 90 -61 141t-174 51q-127 0 -193 -56t-71 -157h-185q3 71 32 133.5t82.5 112t139 78t193.5 28.5q165 0 266 -59q147 -88 147 -299v-514q0 -72 24.5 -100.5t92.5 -14.5h8v-133q-54 -16 -102 -16q-87 0 -133.5 41.5t-61.5 130.5h-2q-135 -185 -368 -185z
M500 1280l-183 297h234l108 -297h-159z" />
    <glyph glyph-name="aacute" unicode="&#xe1;" horiz-adv-x="1150" 
d="M506 117q78 0 141.5 27t101.5 70t58 93t20 99v180q-77 -49 -241 -78q-62 -11 -101 -20t-81 -25.5t-64.5 -37.5t-37.5 -54t-15 -78q0 -176 219 -176zM459 -23q-165 0 -269 81t-104 233q0 75 23 131t60.5 91.5t101 60.5t128.5 38t160 25q54 6 90.5 12.5t72.5 18.5t57 28
t33.5 41t12.5 58q0 90 -61 141t-174 51q-127 0 -193 -56t-71 -157h-185q3 71 32 133.5t82.5 112t139 78t193.5 28.5q165 0 266 -59q147 -88 147 -299v-514q0 -72 24.5 -100.5t92.5 -14.5h8v-133q-54 -16 -102 -16q-87 0 -133.5 41.5t-61.5 130.5h-2q-135 -185 -368 -185z
M481 1280l109 297h233l-182 -297h-160z" />
    <glyph glyph-name="acircumflex" unicode="&#xe2;" horiz-adv-x="1150" 
d="M506 117q78 0 141.5 27t101.5 70t58 93t20 99v180q-77 -49 -241 -78q-62 -11 -101 -20t-81 -25.5t-64.5 -37.5t-37.5 -54t-15 -78q0 -176 219 -176zM459 -23q-165 0 -269 81t-104 233q0 75 23 131t60.5 91.5t101 60.5t128.5 38t160 25q54 6 90.5 12.5t72.5 18.5t57 28
t33.5 41t12.5 58q0 90 -61 141t-174 51q-127 0 -193 -56t-71 -157h-185q3 71 32 133.5t82.5 112t139 78t193.5 28.5q165 0 266 -59q147 -88 147 -299v-514q0 -72 24.5 -100.5t92.5 -14.5h8v-133q-54 -16 -102 -16q-87 0 -133.5 41.5t-61.5 130.5h-2q-135 -185 -368 -185z
M268 1288l199 252h211l192 -252h-192l-107 154h-4l-110 -154h-189z" />
    <glyph glyph-name="atilde" unicode="&#xe3;" horiz-adv-x="1150" 
d="M506 117q78 0 141.5 27t101.5 70t58 93t20 99v180q-77 -49 -241 -78q-62 -11 -101 -20t-81 -25.5t-64.5 -37.5t-37.5 -54t-15 -78q0 -176 219 -176zM459 -23q-165 0 -269 81t-104 233q0 75 23 131t60.5 91.5t101 60.5t128.5 38t160 25q54 6 90.5 12.5t72.5 18.5t57 28
t33.5 41t12.5 58q0 90 -61 141t-174 51q-127 0 -193 -56t-71 -157h-185q3 71 32 133.5t82.5 112t139 78t193.5 28.5q165 0 266 -59q147 -88 147 -299v-514q0 -72 24.5 -100.5t92.5 -14.5h8v-133q-54 -16 -102 -16q-87 0 -133.5 41.5t-61.5 130.5h-2q-135 -185 -368 -185z
M707 1292q-46 0 -96.5 20t-92 40t-63.5 20q-24 0 -40.5 -23t-19.5 -55h-131q4 105 49.5 162t122.5 57q39 0 77.5 -12.5t63.5 -27t55 -27t56 -12.5q49 0 57 75h132q-10 -217 -170 -217z" />
    <glyph glyph-name="adieresis" unicode="&#xe4;" horiz-adv-x="1150" 
d="M506 117q78 0 141.5 27t101.5 70t58 93t20 99v180q-77 -49 -241 -78q-62 -11 -101 -20t-81 -25.5t-64.5 -37.5t-37.5 -54t-15 -78q0 -176 219 -176zM459 -23q-165 0 -269 81t-104 233q0 75 23 131t60.5 91.5t101 60.5t128.5 38t160 25q54 6 90.5 12.5t72.5 18.5t57 28
t33.5 41t12.5 58q0 90 -61 141t-174 51q-127 0 -193 -56t-71 -157h-185q3 71 32 133.5t82.5 112t139 78t193.5 28.5q165 0 266 -59q147 -88 147 -299v-514q0 -72 24.5 -100.5t92.5 -14.5h8v-133q-54 -16 -102 -16q-87 0 -133.5 41.5t-61.5 130.5h-2q-135 -185 -368 -185z
M770 1520q50 0 82.5 -33t32.5 -82q0 -48 -33 -80.5t-82 -32.5t-82 32.5t-33 80.5q0 49 32.5 82t82.5 33zM369 1520q49 0 81.5 -32.5t32.5 -82.5q0 -48 -32.5 -80.5t-81.5 -32.5t-82 32.5t-33 80.5q0 49 33 82t82 33z" />
    <glyph glyph-name="aring" unicode="&#xe5;" horiz-adv-x="1150" 
d="M506 117q78 0 141.5 27t101.5 70t58 93t20 99v180q-77 -49 -241 -78q-62 -11 -101 -20t-81 -25.5t-64.5 -37.5t-37.5 -54t-15 -78q0 -176 219 -176zM459 -23q-165 0 -269 81t-104 233q0 75 23 131t60.5 91.5t101 60.5t128.5 38t160 25q54 6 90.5 12.5t72.5 18.5t57 28
t33.5 41t12.5 58q0 90 -61 141t-174 51q-127 0 -193 -56t-71 -157h-185q3 71 32 133.5t82.5 112t139 78t193.5 28.5q165 0 266 -59q147 -88 147 -299v-514q0 -72 24.5 -100.5t92.5 -14.5h8v-133q-54 -16 -102 -16q-87 0 -133.5 41.5t-61.5 130.5h-2q-135 -185 -368 -185z
M571 1227q-88 0 -149.5 60.5t-61.5 146.5q0 85 61.5 143.5t149.5 58.5q87 0 148 -59t61 -143q0 -86 -61.5 -146.5t-147.5 -60.5zM571 1313q49 0 81 34t32 87q0 51 -32 84.5t-81 33.5q-51 0 -82.5 -33.5t-31.5 -84.5q0 -53 31.5 -87t82.5 -34z" />
    <glyph glyph-name="ae" unicode="&#xe6;" horiz-adv-x="1880" 
d="M1315 979q-133 0 -210 -92t-95 -246h598q-4 157 -83.5 247.5t-209.5 90.5zM506 117q78 0 141.5 27t101.5 70t58 93t20 99v180q-77 -49 -241 -78q-62 -11 -101 -20t-81 -25.5t-64.5 -37.5t-37.5 -54t-15 -78q0 -176 219 -176zM1792 313q-31 -159 -153 -251.5t-300 -92.5
q-293 0 -421 242h-5q-80 -126 -186.5 -181t-243.5 -55q-184 0 -290.5 81t-106.5 235q0 75 23 131t60.5 91.5t101 60.5t128.5 38t160 25q54 6 90.5 12.5t72.5 18.5t57 28t33.5 41t12.5 58q0 90 -61 141t-174 51q-127 0 -193 -56t-71 -157h-185q3 71 32 133.5t82.5 112t139 78
t193.5 28.5q286 0 366 -184q127 184 361 184q231 0 366 -170q127 -164 127 -452h-800q10 -171 92.5 -275t238.5 -104q101 0 172 51t95 137h186z" />
    <glyph glyph-name="ccedilla" unicode="&#xe7;" horiz-adv-x="1146" 
d="M535 -426q-135 0 -228 64l33 63q74 -33 154 -33q129 0 129 72q0 67 -86 67q-44 0 -88 -14l-33 51l123 129q-141 16 -248 96.5t-163 205t-56 274.5q0 160 64 290.5t187.5 208.5t284.5 78q196 0 320.5 -103t154.5 -282h-190q-21 109 -94 170.5t-191 61.5
q-163 0 -252.5 -119t-89.5 -305t89.5 -305t252.5 -119q128 0 203 70t86 194h188q-19 -187 -131.5 -296.5t-302.5 -121.5l-96 -86v-4q34 4 69 -0.5t68 -19t53.5 -46t20.5 -75.5q0 -80 -63.5 -123t-167.5 -43z" />
    <glyph glyph-name="egrave" unicode="&#xe8;" horiz-adv-x="1181" 
d="M598 979q-143 0 -225.5 -92t-102.5 -246h637q-8 160 -88 249t-221 89zM1087 313q-37 -157 -164.5 -250.5t-314.5 -93.5q-164 0 -287.5 78.5t-186 209t-62.5 292.5q0 159 65 290.5t186 209t275 77.5q239 0 377 -170q135 -164 135 -452h-844q11 -168 100.5 -273.5
t243.5 -105.5q113 0 188.5 49.5t102.5 138.5h186zM530 1280l-182 297h234l108 -297h-160z" />
    <glyph glyph-name="eacute" unicode="&#xe9;" horiz-adv-x="1181" 
d="M598 979q-143 0 -225.5 -92t-102.5 -246h637q-8 160 -88 249t-221 89zM1087 313q-37 -157 -164.5 -250.5t-314.5 -93.5q-164 0 -287.5 78.5t-186 209t-62.5 292.5q0 159 65 290.5t186 209t275 77.5q239 0 377 -170q135 -164 135 -452h-844q11 -168 100.5 -273.5
t243.5 -105.5q113 0 188.5 49.5t102.5 138.5h186zM512 1280l109 297h233l-182 -297h-160z" />
    <glyph glyph-name="ecircumflex" unicode="&#xea;" horiz-adv-x="1181" 
d="M598 979q-143 0 -225.5 -92t-102.5 -246h637q-8 160 -88 249t-221 89zM1087 313q-37 -157 -164.5 -250.5t-314.5 -93.5q-164 0 -287.5 78.5t-186 209t-62.5 292.5q0 159 65 290.5t186 209t275 77.5q239 0 377 -170q135 -164 135 -452h-844q11 -168 100.5 -273.5
t243.5 -105.5q113 0 188.5 49.5t102.5 138.5h186zM299 1288l199 252h211l192 -252h-192l-107 154h-4l-111 -154h-188z" />
    <glyph glyph-name="edieresis" unicode="&#xeb;" horiz-adv-x="1181" 
d="M598 979q-143 0 -225.5 -92t-102.5 -246h637q-8 160 -88 249t-221 89zM1087 313q-37 -157 -164.5 -250.5t-314.5 -93.5q-164 0 -287.5 78.5t-186 209t-62.5 292.5q0 159 65 290.5t186 209t275 77.5q239 0 377 -170q135 -164 135 -452h-844q11 -168 100.5 -273.5
t243.5 -105.5q113 0 188.5 49.5t102.5 138.5h186zM801 1520q49 0 81.5 -32.5t32.5 -82.5q0 -48 -32.5 -80.5t-81.5 -32.5t-82 32.5t-33 80.5q0 49 33 82t82 33zM399 1520q49 0 82 -33t33 -82q0 -48 -33 -80.5t-82 -32.5t-81.5 32.5t-32.5 80.5q0 50 32.5 82.5t81.5 32.5z
" />
    <glyph glyph-name="igrave" unicode="&#xec;" horiz-adv-x="452" 
d="M131 0v1100h191v-1100h-191zM156 1280l-183 297h234l108 -297h-159z" />
    <glyph glyph-name="iacute" unicode="&#xed;" horiz-adv-x="452" 
d="M131 0v1100h191v-1100h-191zM137 1280l109 297h233l-182 -297h-160z" />
    <glyph glyph-name="icircumflex" unicode="&#xee;" horiz-adv-x="452" 
d="M131 0v1100h191v-1100h-191zM-76 1288l199 252h211l192 -252h-192l-107 154h-4l-110 -154h-189z" />
    <glyph glyph-name="idieresis" unicode="&#xef;" horiz-adv-x="452" 
d="M272 1405q0 49 33 82t82 33t82 -33t33 -82q0 -48 -33 -80.5t-82 -32.5t-82 32.5t-33 80.5zM-51 1405q0 50 32.5 82.5t81.5 32.5t82 -33t33 -82q0 -48 -33 -80.5t-82 -32.5t-81.5 32.5t-32.5 80.5zM131 0v1100h191v-1100h-191z" />
    <glyph glyph-name="eth" unicode="&#xf0;" horiz-adv-x="1222" 
d="M610 -31q-122 0 -224 46t-170 124.5t-106 184.5t-38 225q0 160 60 289.5t175.5 206.5t267.5 77q205 0 310 -133h6q-60 147 -203 297l-278 -86l-33 98l223 70q-72 63 -180 141v15h225q84 -57 135 -103l226 70l34 -98l-176 -54q281 -299 281 -727q0 -187 -62.5 -332
t-185 -228t-287.5 -83zM608 125q109 0 187.5 58t116.5 154t38 218q0 184 -91.5 302t-256.5 118q-160 0 -248 -119.5t-88 -306.5q0 -186 89.5 -305t252.5 -119z" />
    <glyph glyph-name="ntilde" unicode="&#xf1;" horiz-adv-x="1169" 
d="M322 670v-670h-191v1100h188v-156h7q131 182 348 182q173 0 271.5 -94t98.5 -264v-768h-188v745q0 105 -64.5 163.5t-177.5 58.5q-128 0 -210 -83t-82 -214zM731 1292q-46 0 -96.5 20t-92 40t-63.5 20q-24 0 -40 -23t-19 -55h-131q4 105 49.5 162t122.5 57
q39 0 77.5 -12.5t63.5 -27t55 -27t56 -12.5q49 0 57 75h131q-10 -217 -170 -217z" />
    <glyph glyph-name="ograve" unicode="&#xf2;" horiz-adv-x="1216" 
d="M610 -31q-162 0 -285.5 78t-188 209t-64.5 293q0 160 64.5 290.5t188 208.5t285.5 78t285 -78t186.5 -208.5t63.5 -290.5q0 -162 -63.5 -293t-186.5 -209t-285 -78zM608 125q163 0 252.5 119t89.5 305t-89.5 306t-252.5 120t-252.5 -120t-89.5 -306t89.5 -305t252.5 -119
zM539 1280l-183 297h234l108 -297h-159z" />
    <glyph glyph-name="oacute" unicode="&#xf3;" horiz-adv-x="1216" 
d="M610 -31q-162 0 -285.5 78t-188 209t-64.5 293q0 160 64.5 290.5t188 208.5t285.5 78t285 -78t186.5 -208.5t63.5 -290.5q0 -162 -63.5 -293t-186.5 -209t-285 -78zM608 125q163 0 252.5 119t89.5 305t-89.5 306t-252.5 120t-252.5 -120t-89.5 -306t89.5 -305t252.5 -119
zM520 1280l109 297h233l-182 -297h-160z" />
    <glyph glyph-name="ocircumflex" unicode="&#xf4;" horiz-adv-x="1216" 
d="M610 -31q-162 0 -285.5 78t-188 209t-64.5 293q0 160 64.5 290.5t188 208.5t285.5 78t285 -78t186.5 -208.5t63.5 -290.5q0 -162 -63.5 -293t-186.5 -209t-285 -78zM608 125q163 0 252.5 119t89.5 305t-89.5 306t-252.5 120t-252.5 -120t-89.5 -306t89.5 -305t252.5 -119
zM307 1288l199 252h211l192 -252h-192l-107 154h-4l-110 -154h-189z" />
    <glyph glyph-name="otilde" unicode="&#xf5;" horiz-adv-x="1216" 
d="M610 -31q-162 0 -285.5 78t-188 209t-64.5 293q0 160 64.5 290.5t188 208.5t285.5 78t285 -78t186.5 -208.5t63.5 -290.5q0 -162 -63.5 -293t-186.5 -209t-285 -78zM608 125q163 0 252.5 119t89.5 305t-89.5 306t-252.5 120t-252.5 -120t-89.5 -306t89.5 -305t252.5 -119
zM745 1292q-46 0 -96.5 20t-91.5 40t-63 20q-24 0 -40.5 -23t-19.5 -55h-131q4 105 49.5 162t122.5 57q39 0 77.5 -12.5t63.5 -27t55 -27t56 -12.5q49 0 57 75h131q-10 -217 -170 -217z" />
    <glyph glyph-name="odieresis" unicode="&#xf6;" horiz-adv-x="1216" 
d="M610 -31q-162 0 -285.5 78t-188 209t-64.5 293q0 160 64.5 290.5t188 208.5t285.5 78t285 -78t186.5 -208.5t63.5 -290.5q0 -162 -63.5 -293t-186.5 -209t-285 -78zM608 125q163 0 252.5 119t89.5 305t-89.5 306t-252.5 120t-252.5 -120t-89.5 -306t89.5 -305t252.5 -119
zM809 1520q49 0 82 -33t33 -82q0 -48 -33 -80.5t-82 -32.5t-82 32.5t-33 80.5q0 49 33 82t82 33zM408 1520q49 0 81.5 -32.5t32.5 -82.5q0 -48 -32.5 -80.5t-81.5 -32.5t-82 32.5t-33 80.5q0 49 32.5 82t82.5 33z" />
    <glyph glyph-name="divide" unicode="&#xf7;" horiz-adv-x="1228" 
d="M614 1188q52 0 87.5 -35t35.5 -88q0 -52 -35 -86.5t-88 -34.5t-87.5 34.5t-34.5 86.5q0 53 35 88t87 35zM129 621v149h971v-149h-971zM614 444q53 0 88 -35t35 -87t-35 -86.5t-88 -34.5t-87.5 34.5t-34.5 86.5t35 87t87 35z" />
    <glyph glyph-name="oslash" unicode="&#xf8;" horiz-adv-x="1216" 
d="M264 549q0 -136 51 -244l531 572q-92 98 -238 98q-163 0 -253.5 -120t-90.5 -306zM608 125q163 0 253.5 119t90.5 305q0 142 -51 244l-528 -572q93 -96 235 -96zM610 -31q-209 0 -352 127l-145 -155l-74 65l151 164q-118 155 -118 379q0 160 64.5 290.5t188 208.5
t285.5 78q208 0 351 -127l141 154l74 -66l-150 -159q119 -156 119 -379q0 -162 -63.5 -293t-186.5 -209t-285 -78z" />
    <glyph glyph-name="ugrave" unicode="&#xf9;" horiz-adv-x="1155" 
d="M498 -25q-171 0 -272 98t-101 269v758h190v-748q0 -104 63 -162.5t177 -58.5q124 0 200 84.5t76 214.5v670h191v-1100h-188v154h-5q-63 -88 -141 -133.5t-190 -45.5zM504 1280l-182 297h233l109 -297h-160z" />
    <glyph glyph-name="uacute" unicode="&#xfa;" horiz-adv-x="1155" 
d="M498 -25q-171 0 -272 98t-101 269v758h190v-748q0 -104 63 -162.5t177 -58.5q124 0 200 84.5t76 214.5v670h191v-1100h-188v154h-5q-63 -88 -141 -133.5t-190 -45.5zM485 1280l109 297h233l-182 -297h-160z" />
    <glyph glyph-name="ucircumflex" unicode="&#xfb;" horiz-adv-x="1155" 
d="M498 -25q-171 0 -272 98t-101 269v758h190v-748q0 -104 63 -162.5t177 -58.5q124 0 200 84.5t76 214.5v670h191v-1100h-188v154h-5q-63 -88 -141 -133.5t-190 -45.5zM272 1288l199 252h211l192 -252h-192l-107 154h-4l-110 -154h-189z" />
    <glyph glyph-name="udieresis" unicode="&#xfc;" horiz-adv-x="1155" 
d="M498 -25q-171 0 -272 98t-101 269v758h190v-748q0 -104 63 -162.5t177 -58.5q124 0 200 84.5t76 214.5v670h191v-1100h-188v154h-5q-63 -88 -141 -133.5t-190 -45.5zM774 1520q50 0 82.5 -33t32.5 -82q0 -48 -33 -80.5t-82 -32.5t-82 32.5t-33 80.5q0 49 32.5 82t82.5 33
zM373 1520q49 0 81.5 -32.5t32.5 -82.5q0 -48 -32.5 -80.5t-81.5 -32.5t-82 32.5t-33 80.5q0 49 33 82t82 33z" />
    <glyph glyph-name="yacute" unicode="&#xfd;" horiz-adv-x="1062" 
d="M266 -383q-103 0 -162 23v163h9q33 -20 114 -20q60 0 98 29t66 104q0 1 10.5 33.5t20.5 66.5t8 39l-420 1045h207l227 -611q20 -56 43.5 -130t36.5 -120l13 -46h4q51 173 94 296l219 611h199l-467 -1200q-65 -166 -136.5 -224.5t-183.5 -58.5zM449 1280l108 297h234
l-183 -297h-159z" />
    <glyph glyph-name="thorn" unicode="&#xfe;" horiz-adv-x="1220" 
d="M649 125q147 0 226 115.5t79 302.5q0 189 -78 305.5t-225 116.5q-85 0 -151 -33t-106.5 -91t-61.5 -133.5t-21 -164.5t19 -163t58 -132t105.5 -90.5t155.5 -32.5zM322 -39v-315h-191v1878h191v-389q0 -45 -7 -209h7q56 92 148 146t206 54q213 0 343 -155.5t130 -423.5
q0 -265 -128.5 -422.5t-350.5 -157.5q-111 0 -200 45.5t-146 132.5h-7q5 -97 5 -184z" />
    <glyph glyph-name="ydieresis" unicode="&#xff;" horiz-adv-x="1062" 
d="M266 -383q-103 0 -162 23v163h9q33 -20 114 -20q60 0 98 29t66 104q0 1 10.5 33.5t20.5 66.5t8 39l-420 1045h207l227 -611q20 -56 43.5 -130t36.5 -120l13 -46h4q51 173 94 296l219 611h199l-467 -1200q-65 -166 -136.5 -224.5t-183.5 -58.5zM737 1520q49 0 82 -33
t33 -82q0 -48 -33 -80.5t-82 -32.5t-81.5 32.5t-32.5 80.5q0 50 32.5 82.5t81.5 32.5zM336 1520q50 0 82.5 -33t32.5 -82q0 -48 -33 -80.5t-82 -32.5t-82 32.5t-33 80.5q0 49 32.5 82t82.5 33z" />
    <glyph glyph-name="Amacron" unicode="&#x100;" horiz-adv-x="1429" 
d="M616 1034l-149 -426h487l-145 426q-23 65 -46 146t-35 130l-11 48h-6q-46 -183 -95 -324zM1161 0l-151 444h-600l-156 -444h-215l557 1524h233l562 -1524h-230zM424 1628v154h584v-154h-584z" />
    <glyph glyph-name="amacron" unicode="&#x101;" horiz-adv-x="1150" 
d="M506 117q78 0 141.5 27t101.5 70t58 93t20 99v180q-77 -49 -241 -78q-62 -11 -101 -20t-81 -25.5t-64.5 -37.5t-37.5 -54t-15 -78q0 -176 219 -176zM459 -23q-165 0 -269 81t-104 233q0 75 23 131t60.5 91.5t101 60.5t128.5 38t160 25q54 6 90.5 12.5t72.5 18.5t57 28
t33.5 41t12.5 58q0 90 -61 141t-174 51q-127 0 -193 -56t-71 -157h-185q3 71 32 133.5t82.5 112t139 78t193.5 28.5q165 0 266 -59q147 -88 147 -299v-514q0 -72 24.5 -100.5t92.5 -14.5h8v-133q-54 -16 -102 -16q-87 0 -133.5 41.5t-61.5 130.5h-2q-135 -185 -368 -185z
M291 1350v153h559v-153h-559z" />
    <glyph glyph-name="Abreve" unicode="&#x102;" horiz-adv-x="1429" 
d="M616 1034l-149 -426h487l-145 426q-23 65 -46 146t-35 130l-11 48h-6q-46 -183 -95 -324zM1161 0l-151 444h-600l-156 -444h-215l557 1524h233l562 -1524h-230zM715 1597q-115 0 -194 72t-85 191h135q19 -121 142 -121q63 0 101 32t46 89h133q-5 -113 -81.5 -188
t-196.5 -75z" />
    <glyph glyph-name="abreve" unicode="&#x103;" horiz-adv-x="1150" 
d="M506 117q78 0 141.5 27t101.5 70t58 93t20 99v180q-77 -49 -241 -78q-62 -11 -101 -20t-81 -25.5t-64.5 -37.5t-37.5 -54t-15 -78q0 -176 219 -176zM459 -23q-165 0 -269 81t-104 233q0 75 23 131t60.5 91.5t101 60.5t128.5 38t160 25q54 6 90.5 12.5t72.5 18.5t57 28
t33.5 41t12.5 58q0 90 -61 141t-174 51q-127 0 -193 -56t-71 -157h-185q3 71 32 133.5t82.5 112t139 78t193.5 28.5q165 0 266 -59q147 -88 147 -299v-514q0 -72 24.5 -100.5t92.5 -14.5h8v-133q-54 -16 -102 -16q-87 0 -133.5 41.5t-61.5 130.5h-2q-135 -185 -368 -185z
M569 1270q-115 0 -193.5 71.5t-84.5 190.5h135q19 -121 141 -121q63 0 101.5 32t46.5 89h133q-5 -113 -81.5 -187.5t-197.5 -74.5z" />
    <glyph glyph-name="Aogonek" unicode="&#x104;" horiz-adv-x="1429" 
d="M1280 -391q-113 0 -171 48.5t-58 131.5q0 125 163 211h-53l-151 444h-600l-156 -444h-215l557 1524h233l562 -1524q-72 -35 -118 -86.5t-46 -95.5q0 -72 88 -72q49 0 84 14h6v-133q-61 -18 -125 -18zM616 1034l-149 -426h487l-145 426q-23 65 -46 146t-35 130l-11 48h-6
q-46 -183 -95 -324z" />
    <glyph glyph-name="aogonek" unicode="&#x105;" horiz-adv-x="1150" 
d="M1006 -391q-113 0 -171.5 48.5t-58.5 131.5q0 67 47 122t115 93q-89 33 -107 158h-4q-135 -185 -368 -185q-165 0 -269 81t-104 233q0 75 23 131t60.5 91.5t101 60.5t128.5 38t160 25q54 6 90.5 12.5t72.5 18.5t57 28t33.5 41t12.5 58q0 90 -61 141t-174 51
q-127 0 -193 -56t-71 -157h-185q3 71 32 133.5t82.5 112t139 78t193.5 28.5q165 0 266 -59q147 -88 147 -299v-514q0 -72 24.5 -100.5t92.5 -14.5h8v-133q-80 -26 -127 -82t-47 -106q0 -72 88 -72q49 0 84 14h6v-133q-61 -18 -124 -18zM506 117q78 0 141.5 27t101.5 70
t58 93t20 99v180q-77 -49 -241 -78q-62 -11 -101 -20t-81 -25.5t-64.5 -37.5t-37.5 -54t-15 -78q0 -176 219 -176z" />
    <glyph glyph-name="Cacute" unicode="&#x106;" horiz-adv-x="1548" 
d="M817 -31q-213 0 -377 102t-252 282t-88 409q0 168 50 313.5t141 252t228.5 167.5t303.5 61q260 0 424 -135q164 -132 195 -358h-209q-27 143 -135 227t-279 84q-158 0 -274 -80.5t-174 -218t-58 -313.5q0 -274 139 -442t369 -168q100 0 180 32t131 88.5t80.5 127.5
t36.5 155h209q-2 -114 -51.5 -230t-130.5 -194q-162 -162 -459 -162zM709 1608l108 256h234l-183 -256h-159z" />
    <glyph glyph-name="cacute" unicode="&#x107;" horiz-adv-x="1146" 
d="M608 -31q-121 0 -222.5 45.5t-169.5 124t-106 184.5t-38 226q0 160 64 290.5t187.5 208.5t284.5 78q196 0 320.5 -103t154.5 -282h-190q-21 109 -94 170.5t-191 61.5q-163 0 -252.5 -119t-89.5 -305t89.5 -305t252.5 -119q128 0 203 70t86 194h188q-19 -198 -144 -309
t-333 -111zM508 1280l108 297h234l-182 -297h-160z" />
    <glyph glyph-name="Ccircumflex" unicode="&#x108;" horiz-adv-x="1548" 
d="M817 -31q-213 0 -377 102t-252 282t-88 409q0 168 50 313.5t141 252t228.5 167.5t303.5 61q260 0 424 -135q164 -132 195 -358h-209q-27 143 -135 227t-279 84q-158 0 -274 -80.5t-174 -218t-58 -313.5q0 -274 139 -442t369 -168q100 0 180 32t131 88.5t80.5 127.5
t36.5 155h209q-2 -114 -51.5 -230t-130.5 -194q-162 -162 -459 -162zM487 1608l207 231h211l201 -231h-197l-110 125h-4l-115 -125h-193z" />
    <glyph glyph-name="ccircumflex" unicode="&#x109;" horiz-adv-x="1146" 
d="M608 -31q-121 0 -222.5 45.5t-169.5 124t-106 184.5t-38 226q0 160 64 290.5t187.5 208.5t284.5 78q196 0 320.5 -103t154.5 -282h-190q-21 109 -94 170.5t-191 61.5q-163 0 -252.5 -119t-89.5 -305t89.5 -305t252.5 -119q128 0 203 70t86 194h188q-19 -198 -144 -309
t-333 -111zM295 1288l199 252h211l192 -252h-192l-107 154h-4l-111 -154h-188z" />
    <glyph glyph-name="Cdotaccent" unicode="&#x10a;" horiz-adv-x="1548" 
d="M817 -31q-213 0 -377 102t-252 282t-88 409q0 168 50 313.5t141 252t228.5 167.5t303.5 61q260 0 424 -135q164 -132 195 -358h-209q-27 143 -135 227t-279 84q-158 0 -274 -80.5t-174 -218t-58 -313.5q0 -274 139 -442t369 -168q100 0 180 32t131 88.5t80.5 127.5
t36.5 155h209q-2 -114 -51.5 -230t-130.5 -194q-162 -162 -459 -162zM797 1837q51 0 83.5 -33t32.5 -84t-32.5 -83.5t-83.5 -32.5t-84 32.5t-33 83.5t33 84t84 33z" />
    <glyph glyph-name="cdotaccent" unicode="&#x10b;" horiz-adv-x="1146" 
d="M608 -31q-121 0 -222.5 45.5t-169.5 124t-106 184.5t-38 226q0 160 64 290.5t187.5 208.5t284.5 78q196 0 320.5 -103t154.5 -282h-190q-21 109 -94 170.5t-191 61.5q-163 0 -252.5 -119t-89.5 -305t89.5 -305t252.5 -119q128 0 203 70t86 194h188q-19 -198 -144 -309
t-333 -111zM596 1526q51 0 84 -33t33 -84t-33 -84t-84 -33t-84 33t-33 84t33 84t84 33z" />
    <glyph glyph-name="Ccaron" unicode="&#x10c;" horiz-adv-x="1548" 
d="M817 -31q-213 0 -377 102t-252 282t-88 409q0 168 50 313.5t141 252t228.5 167.5t303.5 61q260 0 424 -135q164 -132 195 -358h-209q-27 143 -135 227t-279 84q-158 0 -274 -80.5t-174 -218t-58 -313.5q0 -274 139 -442t369 -168q100 0 180 32t131 88.5t80.5 127.5
t36.5 155h209q-2 -114 -51.5 -230t-130.5 -194q-162 -162 -459 -162zM1106 1839l-207 -231h-211l-201 231h197l111 -125h4l114 125h193z" />
    <glyph glyph-name="ccaron" unicode="&#x10d;" horiz-adv-x="1146" 
d="M608 -31q-121 0 -222.5 45.5t-169.5 124t-106 184.5t-38 226q0 160 64 290.5t187.5 208.5t284.5 78q196 0 320.5 -103t154.5 -282h-190q-21 109 -94 170.5t-191 61.5q-163 0 -252.5 -119t-89.5 -305t89.5 -305t252.5 -119q128 0 203 70t86 194h188q-19 -198 -144 -309
t-333 -111zM897 1534l-199 -254h-211l-192 254h192l107 -156h4l111 156h188z" />
    <glyph glyph-name="Dcaron" unicode="&#x10e;" horiz-adv-x="1499" 
d="M158 0v1524h563q168 0 298 -55.5t213 -157.5t126 -242t43 -313q0 -171 -44.5 -310t-130.5 -238.5t-218 -153.5t-301 -54h-549zM369 182h329q249 0 367.5 150.5t118.5 423.5q0 585 -473 585h-342v-1159zM1001 1839l-206 -231h-211l-201 231h197l110 -125h4l115 125h192z
" />
    <glyph glyph-name="dcaron" unicode="&#x10f;" horiz-adv-x="1220" 
d="M571 125q170 0 254 114.5t84 305.5t-88 306.5t-250 115.5q-147 0 -226 -116.5t-79 -305.5t79 -304.5t226 -115.5zM557 -33q-223 0 -354 157t-131 423q0 265 136 422t345 157q114 0 204 -52t144 -142h4q-6 153 -6 203v389h191v-1524h-189v158h-4q-54 -91 -140.5 -141
t-199.5 -50zM1200 1186l27 338h172l-64 -338h-135z" />
    <glyph glyph-name="Dcroat" unicode="&#x110;" horiz-adv-x="1519" 
d="M727 0h-549v678h-151v176h151v670h563q168 0 298.5 -55.5t213.5 -157.5t125.5 -242t42.5 -313q0 -172 -44.5 -310.5t-130 -238t-218 -153.5t-301.5 -54zM389 182h330q250 0 368.5 150.5t118.5 423.5q0 585 -475 585h-342v-487h430v-176h-430v-496z" />
    <glyph glyph-name="dcroat" unicode="&#x111;" horiz-adv-x="1220" 
d="M571 125q170 0 254 114.5t84 305.5t-88 306.5t-250 115.5q-147 0 -226 -116.5t-79 -305.5t79 -304.5t226 -115.5zM557 -33q-223 0 -354 157t-131 423q0 265 136 422t345 157q114 0 204 -52t144 -142h4q-6 153 -6 203v110h-311v127h311v152h191v-152h147v-127h-147v-1245
h-189v158h-4q-54 -91 -140.5 -141t-199.5 -50z" />
    <glyph glyph-name="Emacron" unicode="&#x112;" horiz-adv-x="1363" 
d="M1264 190v-190h-1106v1524h1083v-185h-874v-460h790v-174h-790v-515h897zM432 1628v154h584v-154h-584z" />
    <glyph glyph-name="emacron" unicode="&#x113;" horiz-adv-x="1181" 
d="M598 979q-143 0 -225.5 -92t-102.5 -246h637q-8 160 -88 249t-221 89zM1087 313q-37 -157 -164.5 -250.5t-314.5 -93.5q-164 0 -287.5 78.5t-186 209t-62.5 292.5q0 159 65 290.5t186 209t275 77.5q239 0 377 -170q135 -164 135 -452h-844q11 -168 100.5 -273.5
t243.5 -105.5q113 0 188.5 49.5t102.5 138.5h186zM322 1350v153h559v-153h-559z" />
    <glyph glyph-name="Ebreve" unicode="&#x114;" horiz-adv-x="1363" 
d="M1264 190v-190h-1106v1524h1083v-185h-874v-460h790v-174h-790v-515h897zM723 1597q-115 0 -194 72t-85 191h136q19 -121 141 -121q63 0 101 32t46 89h133q-5 -113 -81.5 -188t-196.5 -75z" />
    <glyph glyph-name="ebreve" unicode="&#x115;" horiz-adv-x="1181" 
d="M598 979q-143 0 -225.5 -92t-102.5 -246h637q-8 160 -88 249t-221 89zM1087 313q-37 -157 -164.5 -250.5t-314.5 -93.5q-164 0 -287.5 78.5t-186 209t-62.5 292.5q0 159 65 290.5t186 209t275 77.5q239 0 377 -170q135 -164 135 -452h-844q11 -168 100.5 -273.5
t243.5 -105.5q113 0 188.5 49.5t102.5 138.5h186zM600 1270q-115 0 -193.5 71.5t-84.5 190.5h135q19 -121 141 -121q63 0 101 32t46 89h134q-5 -113 -81.5 -187.5t-197.5 -74.5z" />
    <glyph glyph-name="Edotaccent" unicode="&#x116;" horiz-adv-x="1363" 
d="M1264 190v-190h-1106v1524h1083v-185h-874v-460h790v-174h-790v-515h897zM723 1837q51 0 84 -33t33 -84t-33 -83.5t-84 -32.5t-84 32.5t-33 83.5t33 84t84 33z" />
    <glyph glyph-name="edotaccent" unicode="&#x117;" horiz-adv-x="1181" 
d="M598 979q-143 0 -225.5 -92t-102.5 -246h637q-8 160 -88 249t-221 89zM1087 313q-37 -157 -164.5 -250.5t-314.5 -93.5q-164 0 -287.5 78.5t-186 209t-62.5 292.5q0 159 65 290.5t186 209t275 77.5q239 0 377 -170q135 -164 135 -452h-844q11 -168 100.5 -273.5
t243.5 -105.5q113 0 188.5 49.5t102.5 138.5h186zM600 1526q51 0 84 -33t33 -84t-33 -84t-84 -33t-84 33t-33 84t33 84t84 33z" />
    <glyph glyph-name="Eogonek" unicode="&#x118;" horiz-adv-x="1363" 
d="M158 0v1524h1083v-185h-874v-460h790v-174h-790v-515h897v-190h-115q-129 -105 -129 -182q0 -72 88 -72q49 0 84 14h6v-133q-61 -18 -125 -18q-113 0 -171 48.5t-58 131.5q0 69 48 122t116 89h-850z" />
    <glyph glyph-name="eogonek" unicode="&#x119;" horiz-adv-x="1181" 
d="M758 -391q-113 0 -171.5 48.5t-58.5 131.5q0 103 113 182q-10 -2 -33 -2q-164 0 -287.5 78.5t-186 209t-62.5 292.5q0 159 65 290.5t186 209t275 77.5q239 0 377 -170q135 -164 135 -452h-844q11 -168 100.5 -273.5t243.5 -105.5q113 0 188.5 49.5t102.5 138.5h186
q-14 -57 -38.5 -105t-56.5 -82t-55.5 -53.5t-53.5 -39.5q-178 -120 -178 -215q0 -72 88 -72q49 0 84 14h6v-133q-61 -18 -125 -18zM598 979q-143 0 -225.5 -92t-102.5 -246h637q-8 160 -88 249t-221 89z" />
    <glyph glyph-name="Ecaron" unicode="&#x11a;" horiz-adv-x="1363" 
d="M1264 190v-190h-1106v1524h1083v-185h-874v-460h790v-174h-790v-515h897zM1032 1839l-207 -231h-211l-200 231h196l111 -125h4l115 125h192z" />
    <glyph glyph-name="ecaron" unicode="&#x11b;" horiz-adv-x="1181" 
d="M598 979q-143 0 -225.5 -92t-102.5 -246h637q-8 160 -88 249t-221 89zM1087 313q-37 -157 -164.5 -250.5t-314.5 -93.5q-164 0 -287.5 78.5t-186 209t-62.5 292.5q0 159 65 290.5t186 209t275 77.5q239 0 377 -170q135 -164 135 -452h-844q11 -168 100.5 -273.5
t243.5 -105.5q113 0 188.5 49.5t102.5 138.5h186zM901 1534l-199 -254h-210l-193 254h193l106 -156h4l111 156h188z" />
    <glyph glyph-name="Gcircumflex" unicode="&#x11c;" horiz-adv-x="1599" 
d="M815 -33q-157 0 -289 57.5t-227 163.5q-96 105 -147.5 250.5t-51.5 317.5t50 320t145 255q197 223 539 223q260 0 419 -127.5t203 -345.5h-217q-35 136 -137.5 214.5t-270.5 78.5q-130 0 -230.5 -47t-162.5 -131t-93.5 -195t-31.5 -245q0 -270 142.5 -438t369.5 -168
q110 0 197 35.5t141 97t82 141.5t29 172v33h-443v178h650v-807h-133l-56 215h-6q-163 -248 -471 -248zM512 1608l207 231h211l200 -231h-196l-111 125h-4l-114 -125h-193z" />
    <glyph glyph-name="gcircumflex" unicode="&#x11d;" horiz-adv-x="1218" 
d="M588 205q321 0 321 391q0 177 -81 275t-242 98q-147 0 -225 -102.5t-78 -280.5t79 -279.5t226 -101.5zM596 -385q-215 0 -336.5 80.5t-136.5 228.5h178q23 -162 291 -162q305 0 305 275v31q0 52 6 157h-6q-60 -87 -138 -131.5t-190 -44.5q-211 0 -346 150t-135 389
q0 124 37.5 226.5t101.5 170t149.5 104.5t182.5 37q226 0 334 -172h4v146h188v-1055q0 -212 -133 -326q-124 -104 -356 -104zM297 1288l199 252h211l192 -252h-192l-107 154h-4l-111 -154h-188z" />
    <glyph glyph-name="Gbreve" unicode="&#x11e;" horiz-adv-x="1599" 
d="M815 -33q-157 0 -289 57.5t-227 163.5q-96 105 -147.5 250.5t-51.5 317.5t50 320t145 255q197 223 539 223q260 0 419 -127.5t203 -345.5h-217q-35 136 -137.5 214.5t-270.5 78.5q-130 0 -230.5 -47t-162.5 -131t-93.5 -195t-31.5 -245q0 -270 142.5 -438t369.5 -168
q110 0 197 35.5t141 97t82 141.5t29 172v33h-443v178h650v-807h-133l-56 215h-6q-163 -248 -471 -248zM821 1597q-115 0 -193.5 72t-84.5 191h135q19 -121 141 -121q63 0 101.5 32t46.5 89h133q-5 -113 -81.5 -188t-197.5 -75z" />
    <glyph glyph-name="gbreve" unicode="&#x11f;" horiz-adv-x="1218" 
d="M588 205q321 0 321 391q0 177 -81 275t-242 98q-147 0 -225 -102.5t-78 -280.5t79 -279.5t226 -101.5zM596 -385q-215 0 -336.5 80.5t-136.5 228.5h178q23 -162 291 -162q305 0 305 275v31q0 52 6 157h-6q-60 -87 -138 -131.5t-190 -44.5q-211 0 -346 150t-135 389
q0 124 37.5 226.5t101.5 170t149.5 104.5t182.5 37q226 0 334 -172h4v146h188v-1055q0 -212 -133 -326q-124 -104 -356 -104zM598 1270q-115 0 -194 71.5t-85 190.5h136q19 -121 141 -121q63 0 101 32t46 89h134q-5 -113 -81.5 -187.5t-197.5 -74.5z" />
    <glyph glyph-name="Gdotaccent" unicode="&#x120;" horiz-adv-x="1599" 
d="M815 -33q-157 0 -289 57.5t-227 163.5q-96 105 -147.5 250.5t-51.5 317.5t50 320t145 255q197 223 539 223q260 0 419 -127.5t203 -345.5h-217q-35 136 -137.5 214.5t-270.5 78.5q-130 0 -230.5 -47t-162.5 -131t-93.5 -195t-31.5 -245q0 -270 142.5 -438t369.5 -168
q110 0 197 35.5t141 97t82 141.5t29 172v33h-443v178h650v-807h-133l-56 215h-6q-163 -248 -471 -248zM821 1837q51 0 84 -33t33 -84t-33 -83.5t-84 -32.5t-83.5 32.5t-32.5 83.5t32.5 84t83.5 33z" />
    <glyph glyph-name="gdotaccent" unicode="&#x121;" horiz-adv-x="1218" 
d="M588 205q321 0 321 391q0 177 -81 275t-242 98q-147 0 -225 -102.5t-78 -280.5t79 -279.5t226 -101.5zM596 -385q-215 0 -336.5 80.5t-136.5 228.5h178q23 -162 291 -162q305 0 305 275v31q0 52 6 157h-6q-60 -87 -138 -131.5t-190 -44.5q-211 0 -346 150t-135 389
q0 124 37.5 226.5t101.5 170t149.5 104.5t182.5 37q226 0 334 -172h4v146h188v-1055q0 -212 -133 -326q-124 -104 -356 -104zM598 1526q51 0 84 -33t33 -84t-33 -84t-84 -33t-84 33t-33 84t33 84t84 33z" />
    <glyph glyph-name="uni0122" unicode="&#x122;" horiz-adv-x="1599" 
d="M815 -33q-157 0 -289 57.5t-227 163.5q-96 105 -147.5 250.5t-51.5 317.5t50 320t145 255q197 223 539 223q260 0 419 -127.5t203 -345.5h-217q-35 136 -137.5 214.5t-270.5 78.5q-130 0 -230.5 -47t-162.5 -131t-93.5 -195t-31.5 -245q0 -270 142.5 -438t369.5 -168
q110 0 197 35.5t141 97t82 141.5t29 172v33h-443v178h650v-807h-133l-56 215h-6q-163 -248 -471 -248zM727 -498v95q83 23 98 102q-47 -6 -81.5 21t-34.5 71q0 49 31.5 79t78.5 30q54 0 88.5 -44t34.5 -112q0 -100 -57.5 -165t-157.5 -77z" />
    <glyph glyph-name="uni0123" unicode="&#x123;" horiz-adv-x="1218" 
d="M588 205q321 0 321 391q0 177 -81 275t-242 98q-147 0 -225 -102.5t-78 -280.5t79 -279.5t226 -101.5zM596 -385q-215 0 -336.5 80.5t-136.5 228.5h178q23 -162 291 -162q305 0 305 275v31q0 52 6 157h-6q-60 -87 -138 -131.5t-190 -44.5q-211 0 -346 150t-135 389
q0 124 37.5 226.5t101.5 170t149.5 104.5t182.5 37q226 0 334 -172h4v146h188v-1055q0 -212 -133 -326q-124 -104 -356 -104zM694 1696v-94q-83 -23 -98 -103q48 6 82.5 -21t34.5 -71q0 -48 -32 -78.5t-79 -30.5q-54 0 -88.5 44t-34.5 112q0 100 57.5 165t157.5 77z" />
    <glyph glyph-name="Hcircumflex" unicode="&#x124;" horiz-adv-x="1521" 
d="M1153 0v713h-786v-713h-209v1524h209v-641h786v641h211v-1524h-211zM451 1608l206 231h211l201 -231h-197l-110 125h-4l-115 -125h-192z" />
    <glyph glyph-name="hcircumflex" unicode="&#x125;" horiz-adv-x="1169" 
d="M322 670v-670h-191v1524h191v-400q0 -91 -7 -184h7q130 186 352 186q173 0 271.5 -94t98.5 -264v-768h-188v745q0 105 -64.5 163.5t-177.5 58.5q-128 0 -210 -83t-82 -214zM279 1608l206 231h211l201 -231h-197l-110 125h-4l-115 -125h-192z" />
    <glyph glyph-name="Hbar" unicode="&#x126;" horiz-adv-x="1521" 
d="M1153 883v223h-786v-223h786zM1153 0v713h-786v-713h-209v1106h-154v149h154v269h209v-269h786v269h211v-269h154v-149h-154v-1106h-211z" />
    <glyph glyph-name="hbar" unicode="&#x127;" horiz-adv-x="1169" 
d="M322 670v-670h-191v1245h-147v127h147v152h191v-152h311v-127h-311v-121q0 -91 -7 -184h7q130 186 352 186q173 0 271.5 -94t98.5 -264v-768h-188v745q0 105 -64.5 163.5t-177.5 58.5q-128 0 -210 -83t-82 -214z" />
    <glyph glyph-name="Itilde" unicode="&#x128;" horiz-adv-x="532" 
d="M162 0v1524h209v-1524h-209zM403 1610q-46 0 -96.5 20t-91.5 40t-63 20q-24 0 -40.5 -23t-19.5 -55h-131q4 105 49.5 162t122.5 57q50 0 96.5 -20t85.5 -40t70 -20q49 0 57 76h131q-10 -217 -170 -217z" />
    <glyph glyph-name="itilde" unicode="&#x129;" horiz-adv-x="452" 
d="M131 0v1100h191v-1100h-191zM362 1292q-46 0 -96.5 20t-91.5 40t-63 20q-24 0 -40.5 -23t-19.5 -55h-131q4 105 49.5 162t122.5 57q39 0 77.5 -12.5t63.5 -27t55 -27t56 -12.5q49 0 57 75h131q-10 -217 -170 -217z" />
    <glyph glyph-name="Imacron" unicode="&#x12a;" horiz-adv-x="532" 
d="M16 1628v154h502v-154h-502zM162 0v1524h209v-1524h-209z" />
    <glyph glyph-name="imacron" unicode="&#x12b;" horiz-adv-x="452" 
d="M8 1350v153h438v-153h-438zM131 0v1100h191v-1100h-191z" />
    <glyph glyph-name="Ibreve" unicode="&#x12c;" horiz-adv-x="532" 
d="M162 0v1524h209v-1524h-209zM266 1597q-115 0 -193.5 72t-84.5 191h135q19 -121 141 -121q63 0 101.5 32t46.5 89h133q-5 -113 -81.5 -188t-197.5 -75z" />
    <glyph glyph-name="ibreve" unicode="&#x12d;" horiz-adv-x="452" 
d="M131 0v1100h191v-1100h-191zM225 1270q-115 0 -193.5 71.5t-84.5 190.5h135q19 -121 141 -121q63 0 101.5 32t46.5 89h133q-5 -113 -81.5 -187.5t-197.5 -74.5z" />
    <glyph glyph-name="Iogonek" unicode="&#x12e;" horiz-adv-x="532" 
d="M162 0v1524h209v-1524q-63 -35 -104.5 -86.5t-41.5 -95.5q0 -72 88 -72q49 0 84 14h6v-133q-61 -18 -124 -18q-113 0 -171.5 48.5t-58.5 131.5q0 69 48 122t116 89h-51z" />
    <glyph glyph-name="iogonek" unicode="&#x12f;" horiz-adv-x="452" 
d="M225 1526q51 0 84 -33t33 -84t-33 -84t-84 -33t-83.5 33t-32.5 84t32.5 84t83.5 33zM231 -391q-113 0 -171 48.5t-58 131.5q0 111 129 191v1120h191v-1100q-63 -37 -103.5 -88t-40.5 -94q0 -72 88 -72q49 0 84 14h6v-133q-61 -18 -125 -18z" />
    <glyph glyph-name="Idotaccent" unicode="&#x130;" horiz-adv-x="532" 
d="M162 0v1524h209v-1524h-209zM266 1837q51 0 84 -33t33 -84t-33 -83.5t-84 -32.5t-83.5 32.5t-32.5 83.5t32.5 84t83.5 33z" />
    <glyph glyph-name="dotlessi" unicode="&#x131;" horiz-adv-x="452" 
d="M131 0v1100h191v-1100h-191z" />
    <glyph glyph-name="IJ" unicode="&#x132;" horiz-adv-x="1574" 
d="M162 0v1524h209v-1524h-209zM991 -31q-220 0 -338 123.5t-118 378.5v33h204v-27q0 -186 60.5 -260t193.5 -74q236 0 236 260v1121h209v-1133q0 -190 -109 -299q-120 -123 -338 -123z" />
    <glyph glyph-name="ij" unicode="&#x133;" horiz-adv-x="907" 
d="M225 1526q51 0 84 -33t33 -84t-33 -84t-84 -33t-83.5 33t-32.5 84t32.5 84t83.5 33zM131 0v1100h191v-1100h-191zM678 1526q51 0 84 -33t33 -84t-33 -84t-84 -33t-84 33t-33 84t33 84t84 33zM514 -348q-33 0 -106 10v152h6q35 -7 59 -7q57 2 84 27t27 82v1184h190v-1194
q0 -144 -74 -205q-65 -49 -186 -49z" />
    <glyph glyph-name="Jcircumflex" unicode="&#x134;" horiz-adv-x="1103" 
d="M520 -31q-220 0 -338.5 123.5t-118.5 378.5v33h205v-27q0 -186 60.5 -260t193.5 -74q236 0 236 260v1121h209v-1133q0 -190 -109 -299q-120 -123 -338 -123zM549 1608l207 231h211l200 -231h-196l-111 125h-4l-115 -125h-192z" />
    <glyph glyph-name="jcircumflex" unicode="&#x135;" horiz-adv-x="454" 
d="M61 -348q-33 0 -106 10v152h6q35 -7 59 -7q57 2 84 27t27 82v1184h191v-1194q0 -144 -74 -205q-65 -49 -187 -49zM-78 1288l199 252h211l192 -252h-192l-107 154h-4l-110 -154h-189z" />
    <glyph glyph-name="uni0136" unicode="&#x136;" horiz-adv-x="1404" 
d="M1161 0l-563 778l-231 -225v-553h-209v1524h209v-471q0 -115 -9 -281l736 754h262l-611 -611l660 -915h-244zM618 -498v95q84 24 99 102q-48 -6 -82.5 21t-34.5 71q0 48 32 78.5t79 30.5q54 0 88.5 -44t34.5 -112q0 -100 -58 -165t-158 -77z" />
    <glyph glyph-name="uni0137" unicode="&#x137;" horiz-adv-x="1110" 
d="M854 0l-377 580l-155 -148v-432h-191v1524h191v-723q0 -23 -3.5 -91t-3.5 -79l476 469h237l-420 -395l469 -705h-223zM461 -498v95q83 23 98 102q-48 -6 -82.5 21t-34.5 71q0 48 32 78.5t79 30.5q54 0 88.5 -44t34.5 -112q0 -100 -57.5 -165t-157.5 -77z" />
    <glyph glyph-name="Lacute" unicode="&#x139;" horiz-adv-x="1218" 
d="M158 0v1524h209v-1334h788v-190h-997zM172 1608l109 256h233l-182 -256h-160z" />
    <glyph glyph-name="lacute" unicode="&#x13a;" horiz-adv-x="464" 
d="M137 0v1524h191v-1524h-191zM143 1608l109 256h233l-182 -256h-160z" />
    <glyph glyph-name="uni013B" unicode="&#x13b;" horiz-adv-x="1218" 
d="M158 0v1524h209v-1334h788v-190h-997zM567 -498v95q84 24 99 102q-48 -6 -82.5 21t-34.5 71q0 49 31.5 79t78.5 30q54 0 88.5 -44t34.5 -112q0 -100 -57.5 -165t-157.5 -77z" />
    <glyph glyph-name="uni013C" unicode="&#x13c;" horiz-adv-x="464" 
d="M137 0v1524h191v-1524h-191zM137 -498v95q84 24 99 102q-48 -6 -82.5 21t-34.5 71q0 49 31.5 79t78.5 30q54 0 88.5 -44t34.5 -112q0 -100 -57.5 -165t-157.5 -77z" />
    <glyph glyph-name="Lcaron" unicode="&#x13d;" horiz-adv-x="1218" 
d="M610 1163l27 361h182l-63 -361h-146zM158 0v1524h209v-1334h788v-190h-997z" />
    <glyph glyph-name="lcaron" unicode="&#x13e;" horiz-adv-x="464" 
d="M137 0v1524h191v-1524h-191zM438 1186l27 338h172l-64 -338h-135z" />
    <glyph glyph-name="Ldot" unicode="&#x13f;" horiz-adv-x="1218" 
d="M158 0v1524h209v-1334h788v-190h-997zM899 930q53 0 88 -35t35 -88q0 -52 -35 -86.5t-88 -34.5t-88 34.5t-35 86.5q0 53 35 88t88 35z" />
    <glyph glyph-name="ldot" unicode="&#x140;" horiz-adv-x="714" 
d="M137 0v1524h191v-1524h-191zM590 860q52 0 87.5 -35t35.5 -88q0 -52 -35 -86.5t-88 -34.5t-88 34.5t-35 86.5q0 53 35.5 88t87.5 35z" />
    <glyph glyph-name="Lslash" unicode="&#x141;" horiz-adv-x="1220" 
d="M1155 0h-995v506l-152 -82v174l152 82v844h209v-733l516 276v-172l-516 -277v-428h786v-190z" />
    <glyph glyph-name="lslash" unicode="&#x142;" horiz-adv-x="546" 
d="M369 0h-191v618l-164 -126v172l164 127v733h191v-584l184 143v-172l-184 -143v-768z" />
    <glyph glyph-name="Nacute" unicode="&#x143;" horiz-adv-x="1517" 
d="M158 0v1524h219l624 -955q33 -50 75.5 -126t68.5 -127l26 -50h7q-15 199 -15 326v932h197v-1524h-217l-623 954q-33 51 -76.5 126.5t-70.5 125.5l-27 49h-4q12 -198 12 -321v-934h-196zM686 1608l109 256h233l-182 -256h-160z" />
    <glyph glyph-name="nacute" unicode="&#x144;" horiz-adv-x="1169" 
d="M322 670v-670h-191v1100h188v-156h7q131 182 348 182q173 0 271.5 -94t98.5 -264v-768h-188v745q0 105 -64.5 163.5t-177.5 58.5q-128 0 -210 -83t-82 -214zM506 1280l108 297h234l-182 -297h-160z" />
    <glyph glyph-name="uni0145" unicode="&#x145;" horiz-adv-x="1517" 
d="M158 0v1524h219l624 -955q33 -50 75.5 -126t68.5 -127l26 -50h7q-15 199 -15 326v932h197v-1524h-217l-623 954q-33 51 -76.5 126.5t-70.5 125.5l-27 49h-4q12 -198 12 -321v-934h-196zM680 -498v95q83 23 98 102q-47 -6 -81.5 21t-34.5 71q0 49 31.5 79t78.5 30
q54 0 88.5 -44t34.5 -112q0 -100 -57.5 -165t-157.5 -77z" />
    <glyph glyph-name="uni0146" unicode="&#x146;" horiz-adv-x="1169" 
d="M322 670v-670h-191v1100h188v-156h7q131 182 348 182q173 0 271.5 -94t98.5 -264v-768h-188v745q0 105 -64.5 163.5t-177.5 58.5q-128 0 -210 -83t-82 -214zM500 -498v95q83 23 98 102q-48 -6 -82.5 21t-34.5 71q0 48 32 78.5t79 30.5q54 0 88.5 -44t34.5 -112
q0 -100 -57.5 -165t-157.5 -77z" />
    <glyph glyph-name="Ncaron" unicode="&#x147;" horiz-adv-x="1517" 
d="M158 0v1524h219l624 -955q33 -50 75.5 -126t68.5 -127l26 -50h7q-15 199 -15 326v932h197v-1524h-217l-623 954q-33 51 -76.5 126.5t-70.5 125.5l-27 49h-4q12 -198 12 -321v-934h-196zM1083 1839l-206 -231h-211l-201 231h197l110 -125h4l115 125h192z" />
    <glyph glyph-name="ncaron" unicode="&#x148;" horiz-adv-x="1169" 
d="M322 670v-670h-191v1100h188v-156h7q131 182 348 182q173 0 271.5 -94t98.5 -264v-768h-188v745q0 105 -64.5 163.5t-177.5 58.5q-128 0 -210 -83t-82 -214zM895 1534l-199 -254h-211l-192 254h192l107 -156h4l111 156h188z" />
    <glyph glyph-name="napostrophe" unicode="&#x149;" horiz-adv-x="1169" 
d="M322 670v-670h-191v1100h188v-156h7q131 182 348 182q173 0 271.5 -94t98.5 -264v-768h-188v745q0 105 -64.5 163.5t-177.5 58.5q-128 0 -210 -83t-82 -214zM-98 1049v106q89 40 98 156q-52 -3 -84.5 26.5t-32.5 81.5q0 49 31.5 81t79.5 32q56 0 90.5 -50t34.5 -126
q0 -116 -56.5 -197t-160.5 -110z" />
    <glyph glyph-name="Omacron" unicode="&#x14c;" horiz-adv-x="1691" 
d="M846 -33q-226 0 -396.5 104t-260 283.5t-89.5 407.5q0 229 89.5 408t260 282.5t396.5 103.5q169 0 310 -60t236.5 -165.5t148 -251.5t52.5 -317q0 -227 -90 -407t-261 -284t-396 -104zM846 152q168 0 289.5 80.5t181 217t59.5 312.5q0 177 -59.5 314.5t-181 218.5
t-289.5 81q-169 0 -291 -81t-182 -218.5t-60 -314.5q0 -176 60 -312.5t182 -217t291 -80.5zM555 1628v154h584v-154h-584z" />
    <glyph glyph-name="omacron" unicode="&#x14d;" horiz-adv-x="1216" 
d="M610 -31q-162 0 -285.5 78t-188 209t-64.5 293q0 160 64.5 290.5t188 208.5t285.5 78t285 -78t186.5 -208.5t63.5 -290.5q0 -162 -63.5 -293t-186.5 -209t-285 -78zM608 125q163 0 252.5 119t89.5 305t-89.5 306t-252.5 120t-252.5 -120t-89.5 -306t89.5 -305t252.5 -119
zM330 1350v153h559v-153h-559z" />
    <glyph glyph-name="Obreve" unicode="&#x14e;" horiz-adv-x="1691" 
d="M846 -33q-226 0 -396.5 104t-260 283.5t-89.5 407.5q0 229 89.5 408t260 282.5t396.5 103.5q169 0 310 -60t236.5 -165.5t148 -251.5t52.5 -317q0 -227 -90 -407t-261 -284t-396 -104zM846 152q168 0 289.5 80.5t181 217t59.5 312.5q0 177 -59.5 314.5t-181 218.5
t-289.5 81q-169 0 -291 -81t-182 -218.5t-60 -314.5q0 -176 60 -312.5t182 -217t291 -80.5zM846 1597q-115 0 -194 72t-85 191h135q19 -121 142 -121q63 0 101 32t46 89h133q-5 -113 -81.5 -188t-196.5 -75z" />
    <glyph glyph-name="obreve" unicode="&#x14f;" horiz-adv-x="1216" 
d="M610 -31q-162 0 -285.5 78t-188 209t-64.5 293q0 160 64.5 290.5t188 208.5t285.5 78t285 -78t186.5 -208.5t63.5 -290.5q0 -162 -63.5 -293t-186.5 -209t-285 -78zM608 125q163 0 252.5 119t89.5 305t-89.5 306t-252.5 120t-252.5 -120t-89.5 -306t89.5 -305t252.5 -119
zM608 1270q-115 0 -193.5 71.5t-84.5 190.5h135q19 -121 141 -121q63 0 101.5 32t46.5 89h133q-5 -113 -81.5 -187.5t-197.5 -74.5z" />
    <glyph glyph-name="Ohungarumlaut" unicode="&#x150;" horiz-adv-x="1691" 
d="M846 -33q-226 0 -396.5 104t-260 283.5t-89.5 407.5q0 229 89.5 408t260 282.5t396.5 103.5q169 0 310 -60t236.5 -165.5t148 -251.5t52.5 -317q0 -227 -90 -407t-261 -284t-396 -104zM846 152q168 0 289.5 80.5t181 217t59.5 312.5q0 177 -59.5 314.5t-181 218.5
t-289.5 81q-169 0 -291 -81t-182 -218.5t-60 -314.5q0 -176 60 -312.5t182 -217t291 -80.5zM616 1608l62 256h203l-119 -256h-146zM915 1608l64 256h199l-121 -256h-142z" />
    <glyph glyph-name="ohungarumlaut" unicode="&#x151;" horiz-adv-x="1216" 
d="M610 -31q-162 0 -285.5 78t-188 209t-64.5 293q0 160 64.5 290.5t188 208.5t285.5 78t285 -78t186.5 -208.5t63.5 -290.5q0 -162 -63.5 -293t-186.5 -209t-285 -78zM608 125q163 0 252.5 119t89.5 305t-89.5 306t-252.5 120t-252.5 -120t-89.5 -306t89.5 -305t252.5 -119
zM397 1280l70 297h192l-122 -297h-140zM690 1280l68 297h190l-121 -297h-137z" />
    <glyph glyph-name="OE" unicode="&#x152;" horiz-adv-x="2318" 
d="M805 147q98 0 183.5 36.5t140.5 107t55 160.5v596q0 97 -55 173.5t-140.5 116t-183.5 39.5q-152 0 -264.5 -81t-170 -219t-57.5 -314q0 -175 57 -313.5t169.5 -220t265.5 -81.5zM1186 0v147q-131 -180 -387 -180q-203 0 -363.5 103.5t-248 284.5t-87.5 407
q0 169 53 316.5t145 252.5t222 165t279 60q251 0 387 -188v156h1009v-185h-806v-460h720v-174h-720v-512h831v-193h-1034z" />
    <glyph glyph-name="oe" unicode="&#x153;" horiz-adv-x="1976" 
d="M1419 979q-136 0 -216.5 -92.5t-98.5 -245.5h600q-8 161 -80 249.5t-205 88.5zM586 125q156 0 241.5 119t85.5 305q0 121 -36 216t-111.5 152.5t-179.5 57.5q-103 0 -176.5 -57.5t-108.5 -152t-35 -216.5q0 -187 83 -305.5t237 -118.5zM1882 313q-36 -157 -154.5 -250.5
t-297.5 -93.5q-146 0 -254 68.5t-170 189.5q-61 -121 -167.5 -189.5t-252.5 -68.5q-154 0 -272 78t-180 209.5t-62 292.5q0 160 62 290.5t180.5 208.5t271.5 78q147 0 254.5 -69t167.5 -191q62 122 167.5 191t243.5 69q231 0 359 -170q127 -165 127 -452h-805
q11 -167 98.5 -273t233.5 -106q207 0 266 188h184z" />
    <glyph glyph-name="Racute" unicode="&#x154;" horiz-adv-x="1433" 
d="M367 1343v-540h436q152 0 230.5 71.5t78.5 198.5q0 137 -70.5 203.5t-228.5 66.5h-446zM772 635h-405v-635h-209v1524h712q204 0 330.5 -115.5t126.5 -304.5q0 -145 -65.5 -240t-212.5 -141v-6q125 -37 174.5 -120t60.5 -253q13 -172 29 -245t41 -89v-10h-224
q-25 20 -33.5 80t-21.5 262q-10 159 -81 226t-222 67zM633 1608l108 256h234l-182 -256h-160z" />
    <glyph glyph-name="racute" unicode="&#x155;" horiz-adv-x="776" 
d="M322 0h-191v1100h188v-199h7q53 99 136.5 156t188.5 57q40 0 70 -12v-180h-6q-34 10 -78 10q-132 0 -223.5 -91.5t-91.5 -242.5v-598zM362 1280l109 297h234l-183 -297h-160z" />
    <glyph glyph-name="uni0156" unicode="&#x156;" horiz-adv-x="1433" 
d="M367 1343v-540h436q152 0 230.5 71.5t78.5 198.5q0 137 -70.5 203.5t-228.5 66.5h-446zM772 635h-405v-635h-209v1524h712q204 0 330.5 -115.5t126.5 -304.5q0 -145 -65.5 -240t-212.5 -141v-6q125 -37 174.5 -120t60.5 -253q13 -172 29 -245t41 -89v-10h-224
q-25 20 -33.5 80t-21.5 262q-10 159 -81 226t-222 67zM631 -498v95q83 23 98 102q-48 -6 -82.5 21t-34.5 71q0 48 32 78.5t79 30.5q54 0 88.5 -44t34.5 -112q0 -100 -57.5 -165t-157.5 -77z" />
    <glyph glyph-name="uni0157" unicode="&#x157;" horiz-adv-x="776" 
d="M322 0h-191v1100h188v-199h7q53 99 136.5 156t188.5 57q40 0 70 -12v-180h-6q-34 10 -78 10q-132 0 -223.5 -91.5t-91.5 -242.5v-598zM133 -498v95q83 23 98 102q-47 -6 -81.5 21t-34.5 71q0 49 31.5 79t78.5 30q54 0 88.5 -44t34.5 -112q0 -100 -57.5 -165t-157.5 -77z
" />
    <glyph glyph-name="Rcaron" unicode="&#x158;" horiz-adv-x="1433" 
d="M367 1343v-540h436q152 0 230.5 71.5t78.5 198.5q0 137 -70.5 203.5t-228.5 66.5h-446zM772 635h-405v-635h-209v1524h712q204 0 330.5 -115.5t126.5 -304.5q0 -145 -65.5 -240t-212.5 -141v-6q125 -37 174.5 -120t60.5 -253q13 -172 29 -245t41 -89v-10h-224
q-25 20 -33.5 80t-21.5 262q-10 159 -81 226t-222 67zM1030 1839l-207 -231h-211l-200 231h196l111 -125h4l115 125h192z" />
    <glyph glyph-name="rcaron" unicode="&#x159;" horiz-adv-x="776" 
d="M322 0h-191v1100h188v-199h7q53 99 136.5 156t188.5 57q40 0 70 -12v-180h-6q-34 10 -78 10q-132 0 -223.5 -91.5t-91.5 -242.5v-598zM752 1534l-199 -254h-211l-192 254h192l107 -156h4l110 156h189z" />
    <glyph glyph-name="Sacute" unicode="&#x15a;" horiz-adv-x="1376" 
d="M717 -31q-155 0 -278.5 41t-203 113t-123 166t-49.5 205h207q19 -173 133.5 -265t319.5 -92q158 0 254 70.5t96 204.5q0 42 -11.5 76.5t-29 60.5t-51 48.5t-64 37.5t-83 31t-94 26t-109.5 25q-93 20 -158 38.5t-135.5 52.5t-113 76.5t-70 109t-27.5 151.5q0 189 145 298
t383 109q268 0 409 -120t171 -328h-203q-20 138 -117 211.5t-258 73.5q-153 0 -242 -61t-89 -173q0 -41 12.5 -73.5t40 -57.5t58.5 -43.5t80.5 -34.5t93.5 -27t110 -24q73 -15 124.5 -27.5t115 -33t106.5 -44t87.5 -59.5t70.5 -79t42.5 -102t16.5 -130q0 -212 -156.5 -331.5
t-410.5 -119.5zM588 1608l108 256h234l-182 -256h-160z" />
    <glyph glyph-name="sacute" unicode="&#x15b;" horiz-adv-x="1069" 
d="M553 -33q-224 0 -352 98.5t-140 268.5h193q31 -213 303 -213q125 0 186.5 48t61.5 126q0 36 -12 62.5t-32 45t-58.5 33.5t-78.5 25.5t-106 23.5q-58 12 -91.5 20t-83 23t-78 30.5t-62.5 40.5t-51.5 54.5t-30 71t-12.5 92.5q0 142 106.5 224.5t296.5 82.5q200 0 309 -85
t129 -234h-190q-25 176 -252 176q-107 0 -160 -43t-53 -111q0 -24 7.5 -44t17.5 -34.5t33 -27t41 -20.5t55.5 -17.5t62.5 -15t76 -15.5q56 -11 92.5 -19.5t83.5 -23.5t77 -31.5t62 -42.5t50 -57.5t30 -75.5t12 -98q0 -163 -121 -250.5t-321 -87.5zM438 1280l109 297h233
l-182 -297h-160z" />
    <glyph glyph-name="Scircumflex" unicode="&#x15c;" horiz-adv-x="1376" 
d="M717 -31q-155 0 -278.5 41t-203 113t-123 166t-49.5 205h207q19 -173 133.5 -265t319.5 -92q158 0 254 70.5t96 204.5q0 42 -11.5 76.5t-29 60.5t-51 48.5t-64 37.5t-83 31t-94 26t-109.5 25q-93 20 -158 38.5t-135.5 52.5t-113 76.5t-70 109t-27.5 151.5q0 189 145 298
t383 109q268 0 409 -120t171 -328h-203q-20 138 -117 211.5t-258 73.5q-153 0 -242 -61t-89 -173q0 -41 12.5 -73.5t40 -57.5t58.5 -43.5t80.5 -34.5t93.5 -27t110 -24q73 -15 124.5 -27.5t115 -33t106.5 -44t87.5 -59.5t70.5 -79t42.5 -102t16.5 -130q0 -212 -156.5 -331.5
t-410.5 -119.5zM354 1608l207 231h211l201 -231h-197l-110 125h-4l-115 -125h-193z" />
    <glyph glyph-name="scircumflex" unicode="&#x15d;" horiz-adv-x="1069" 
d="M553 -33q-224 0 -352 98.5t-140 268.5h193q31 -213 303 -213q125 0 186.5 48t61.5 126q0 36 -12 62.5t-32 45t-58.5 33.5t-78.5 25.5t-106 23.5q-58 12 -91.5 20t-83 23t-78 30.5t-62.5 40.5t-51.5 54.5t-30 71t-12.5 92.5q0 142 106.5 224.5t296.5 82.5q200 0 309 -85
t129 -234h-190q-25 176 -252 176q-107 0 -160 -43t-53 -111q0 -24 7.5 -44t17.5 -34.5t33 -27t41 -20.5t55.5 -17.5t62.5 -15t76 -15.5q56 -11 92.5 -19.5t83.5 -23.5t77 -31.5t62 -42.5t50 -57.5t30 -75.5t12 -98q0 -163 -121 -250.5t-321 -87.5zM229 1288l199 252h211
l192 -252h-192l-107 154h-4l-110 -154h-189z" />
    <glyph glyph-name="uni015E" unicode="&#x15e;" horiz-adv-x="1376" 
d="M621 -426q-135 0 -228 64l33 63q74 -33 154 -33q129 0 129 72q0 67 -86 67q-44 0 -88 -14l-33 51l123 129q-134 11 -239.5 56t-173.5 115t-106 158.5t-43 191.5h207q19 -173 133.5 -265t319.5 -92q158 0 254 70.5t96 204.5q0 42 -11.5 76.5t-29 60.5t-51 48.5t-64 37.5
t-83 31t-94 26t-109.5 25q-93 20 -158 38.5t-135.5 52.5t-113 76.5t-70 109t-27.5 151.5q0 189 145 298t383 109q268 0 409 -120t171 -328h-203q-20 138 -117 211.5t-258 73.5q-153 0 -242 -61t-89 -173q0 -41 12.5 -73.5t40 -57.5t58.5 -43.5t80.5 -34.5t93.5 -27t110 -24
q73 -15 124.5 -27.5t115 -33t106.5 -44t87.5 -59.5t70.5 -79t42.5 -102t16.5 -130q0 -208 -151 -327t-396 -124l-96 -84v-4q34 4 69 -0.5t68 -19t53.5 -46t20.5 -75.5q0 -80 -63.5 -123t-167.5 -43z" />
    <glyph glyph-name="uni015F" unicode="&#x15f;" horiz-adv-x="1069" 
d="M469 -426q-134 0 -227 64l32 63q74 -33 154 -33q129 0 129 72q0 67 -86 67q-44 0 -88 -14l-33 51l121 127q-187 17 -293 113t-117 250h193q31 -213 303 -213q125 0 186.5 48t61.5 126q0 36 -12 62.5t-32 45t-58.5 33.5t-78.5 25.5t-106 23.5q-58 12 -91.5 20t-83 23
t-78 30.5t-62.5 40.5t-51.5 54.5t-30 71t-12.5 92.5q0 142 106.5 224.5t296.5 82.5q200 0 309 -85t129 -234h-190q-25 176 -252 176q-107 0 -160 -43t-53 -111q0 -24 7.5 -44t17.5 -34.5t33 -27t41 -20.5t55.5 -17.5t62.5 -15t76 -15.5q56 -11 92.5 -19.5t83.5 -23.5
t77 -31.5t62 -42.5t50 -57.5t30 -75.5t12 -98q0 -157 -111.5 -243.5t-299.5 -92.5l-95 -84v-4q34 4 69 -0.5t68 -19t53.5 -46t20.5 -75.5q0 -80 -63.5 -123t-167.5 -43z" />
    <glyph glyph-name="Scaron" unicode="&#x160;" horiz-adv-x="1376" 
d="M717 -31q-155 0 -278.5 41t-203 113t-123 166t-49.5 205h207q19 -173 133.5 -265t319.5 -92q158 0 254 70.5t96 204.5q0 42 -11.5 76.5t-29 60.5t-51 48.5t-64 37.5t-83 31t-94 26t-109.5 25q-93 20 -158 38.5t-135.5 52.5t-113 76.5t-70 109t-27.5 151.5q0 189 145 298
t383 109q268 0 409 -120t171 -328h-203q-20 138 -117 211.5t-258 73.5q-153 0 -242 -61t-89 -173q0 -41 12.5 -73.5t40 -57.5t58.5 -43.5t80.5 -34.5t93.5 -27t110 -24q73 -15 124.5 -27.5t115 -33t106.5 -44t87.5 -59.5t70.5 -79t42.5 -102t16.5 -130q0 -212 -156.5 -331.5
t-410.5 -119.5zM967 1839l-207 -231h-211l-201 231h197l110 -125h4l115 125h193z" />
    <glyph glyph-name="scaron" unicode="&#x161;" horiz-adv-x="1069" 
d="M553 -33q-224 0 -352 98.5t-140 268.5h193q31 -213 303 -213q125 0 186.5 48t61.5 126q0 36 -12 62.5t-32 45t-58.5 33.5t-78.5 25.5t-106 23.5q-58 12 -91.5 20t-83 23t-78 30.5t-62.5 40.5t-51.5 54.5t-30 71t-12.5 92.5q0 142 106.5 224.5t296.5 82.5q200 0 309 -85
t129 -234h-190q-25 176 -252 176q-107 0 -160 -43t-53 -111q0 -24 7.5 -44t17.5 -34.5t33 -27t41 -20.5t55.5 -17.5t62.5 -15t76 -15.5q56 -11 92.5 -19.5t83.5 -23.5t77 -31.5t62 -42.5t50 -57.5t30 -75.5t12 -98q0 -163 -121 -250.5t-321 -87.5zM823 1534l-198 -254h-211
l-193 254h193l106 -156h4l111 156h188z" />
    <glyph glyph-name="Tcommaaccent" unicode="&#x162;" horiz-adv-x="1339" 
d="M1276 1339h-502v-1339h-211v1339h-500v185h1213v-185zM575 -498v95q84 24 99 102q-48 -6 -82.5 21t-34.5 71q0 48 32 78.5t79 30.5q54 0 88.5 -44t34.5 -112q0 -100 -58 -165t-158 -77z" />
    <glyph glyph-name="tcommaaccent" unicode="&#x163;" horiz-adv-x="718" 
d="M639 10q-77 -18 -154 -18q-249 3 -249 223v737h-173v148h173v346h188v-346h227v-148h-227v-694q0 -57 28.5 -79.5t84.5 -22.5q49 0 96 14h6v-160zM319 -498v95q84 24 99 102q-48 -6 -82.5 21t-34.5 71q0 48 32 78.5t79 30.5q54 0 88.5 -44t34.5 -112q0 -100 -58 -165
t-158 -77z" />
    <glyph glyph-name="Tcaron" unicode="&#x164;" horiz-adv-x="1339" 
d="M1276 1339h-502v-1339h-211v1339h-500v185h1213v-185zM979 1839l-207 -231h-211l-201 231h197l111 -125h4l114 125h193z" />
    <glyph glyph-name="tcaron" unicode="&#x165;" horiz-adv-x="718" 
d="M557 1186l27 338h172l-64 -338h-135zM639 10q-77 -18 -154 -18q-249 3 -249 223v737h-173v148h173v346h188v-346h227v-148h-227v-694q0 -57 28.5 -79.5t84.5 -22.5q49 0 96 14h6v-160z" />
    <glyph glyph-name="Tbar" unicode="&#x166;" horiz-adv-x="1339" 
d="M1116 723h-342v-723h-211v723h-340v164h340v452h-500v185h1213v-185h-502v-452h342v-164z" />
    <glyph glyph-name="tbar" unicode="&#x167;" horiz-adv-x="718" 
d="M639 10q-77 -18 -154 -18q-249 3 -249 223v387h-173v139h173v211h-173v148h173v346h188v-346h227v-148h-227v-211h227v-139h-227v-344q0 -57 28.5 -79.5t84.5 -22.5q49 0 96 14h6v-160z" />
    <glyph glyph-name="Utilde" unicode="&#x168;" horiz-adv-x="1441" 
d="M721 -23q-131 0 -236.5 30t-185 91.5t-123 162.5t-43.5 235v1028h209v-1010q0 -358 383 -358q375 0 375 358v1010h209v-1028q0 -134 -44.5 -235.5t-125 -162.5t-185.5 -91t-233 -30zM858 1610q-46 0 -96.5 20t-92 40t-63.5 20q-24 0 -40 -23t-19 -55h-131q4 105 49.5 162
t122.5 57q50 0 96.5 -20t85.5 -40t70 -20q49 0 57 76h131q-10 -217 -170 -217z" />
    <glyph glyph-name="utilde" unicode="&#x169;" horiz-adv-x="1155" 
d="M498 -25q-171 0 -272 98t-101 269v758h190v-748q0 -104 63 -162.5t177 -58.5q124 0 200 84.5t76 214.5v670h191v-1100h-188v154h-5q-63 -88 -141 -133.5t-190 -45.5zM711 1292q-46 0 -96.5 20t-92 40t-63.5 20q-24 0 -40.5 -23t-19.5 -55h-131q4 105 49.5 162t122.5 57
q39 0 77.5 -12.5t63.5 -27t55 -27t56 -12.5q50 0 58 75h131q-10 -217 -170 -217z" />
    <glyph glyph-name="Umacron" unicode="&#x16a;" horiz-adv-x="1441" 
d="M721 -23q-131 0 -236.5 30t-185 91.5t-123 162.5t-43.5 235v1028h209v-1010q0 -358 383 -358q375 0 375 358v1010h209v-1028q0 -134 -44.5 -235.5t-125 -162.5t-185.5 -91t-233 -30zM430 1628v154h584v-154h-584z" />
    <glyph glyph-name="umacron" unicode="&#x16b;" horiz-adv-x="1155" 
d="M498 -25q-171 0 -272 98t-101 269v758h190v-748q0 -104 63 -162.5t177 -58.5q124 0 200 84.5t76 214.5v670h191v-1100h-188v154h-5q-63 -88 -141 -133.5t-190 -45.5zM295 1350v153h559v-153h-559z" />
    <glyph glyph-name="Ubreve" unicode="&#x16c;" horiz-adv-x="1441" 
d="M721 -23q-131 0 -236.5 30t-185 91.5t-123 162.5t-43.5 235v1028h209v-1010q0 -358 383 -358q375 0 375 358v1010h209v-1028q0 -134 -44.5 -235.5t-125 -162.5t-185.5 -91t-233 -30zM721 1597q-115 0 -194 72t-85 191h136q19 -121 141 -121q63 0 101 32t46 89h133
q-5 -113 -81.5 -188t-196.5 -75z" />
    <glyph glyph-name="ubreve" unicode="&#x16d;" horiz-adv-x="1155" 
d="M498 -25q-171 0 -272 98t-101 269v758h190v-748q0 -104 63 -162.5t177 -58.5q124 0 200 84.5t76 214.5v670h191v-1100h-188v154h-5q-63 -88 -141 -133.5t-190 -45.5zM573 1270q-115 0 -193.5 71.5t-84.5 190.5h135q19 -121 141 -121q63 0 101.5 32t46.5 89h133
q-5 -113 -81.5 -187.5t-197.5 -74.5z" />
    <glyph glyph-name="Uring" unicode="&#x16e;" horiz-adv-x="1441" 
d="M721 -23q-131 0 -236.5 30t-185 91.5t-123 162.5t-43.5 235v1028h209v-1010q0 -358 383 -358q375 0 375 358v1010h209v-1028q0 -134 -44.5 -235.5t-125 -162.5t-185.5 -91t-233 -30zM723 1511q-88 0 -149.5 60.5t-61.5 146.5q0 85 61.5 144t149.5 59q86 0 147.5 -59
t61.5 -144q0 -86 -61.5 -146.5t-147.5 -60.5zM723 1597q49 0 81 34t32 87q0 51 -32 85t-81 34q-51 0 -83 -34t-32 -85q0 -53 32 -87t83 -34z" />
    <glyph glyph-name="uring" unicode="&#x16f;" horiz-adv-x="1155" 
d="M498 -25q-171 0 -272 98t-101 269v758h190v-748q0 -104 63 -162.5t177 -58.5q124 0 200 84.5t76 214.5v670h191v-1100h-188v154h-5q-63 -88 -141 -133.5t-190 -45.5zM575 1227q-88 0 -149 60.5t-61 146.5q0 85 61 143.5t149 58.5q87 0 148 -59t61 -143
q0 -86 -61.5 -146.5t-147.5 -60.5zM575 1313q49 0 81 34t32 87q0 51 -32 84.5t-81 33.5q-51 0 -82.5 -33.5t-31.5 -84.5q0 -53 31.5 -87t82.5 -34z" />
    <glyph glyph-name="Uhungarumlaut" unicode="&#x170;" horiz-adv-x="1441" 
d="M721 -23q-131 0 -236.5 30t-185 91.5t-123 162.5t-43.5 235v1028h209v-1010q0 -358 383 -358q375 0 375 358v1010h209v-1028q0 -134 -44.5 -235.5t-125 -162.5t-185.5 -91t-233 -30zM492 1608l61 256h203l-119 -256h-145zM791 1608l63 256h199l-121 -256h-141z" />
    <glyph glyph-name="uhungarumlaut" unicode="&#x171;" horiz-adv-x="1155" 
d="M498 -25q-171 0 -272 98t-101 269v758h190v-748q0 -104 63 -162.5t177 -58.5q124 0 200 84.5t76 214.5v670h191v-1100h-188v154h-5q-63 -88 -141 -133.5t-190 -45.5zM362 1280l70 297h193l-123 -297h-140zM655 1280l68 297h190l-120 -297h-138z" />
    <glyph glyph-name="Uogonek" unicode="&#x172;" horiz-adv-x="1441" 
d="M819 -391q-113 0 -171 48.5t-58 131.5q0 107 125 188q-130 1 -234.5 31.5t-183.5 91.5t-121.5 161.5t-42.5 234.5v1028h209v-1010q0 -358 383 -358q375 0 375 358v1010h209v-1028q0 -186 -83 -304.5t-231 -171.5q-99 -35 -164 -86t-65 -116q0 -72 88 -72q49 0 84 14h6
v-133q-61 -18 -125 -18z" />
    <glyph glyph-name="uogonek" unicode="&#x173;" horiz-adv-x="1155" 
d="M926 -391q-113 0 -171.5 48.5t-58.5 131.5q0 69 48 122t116 89h-26v154h-5q-63 -88 -141 -133.5t-190 -45.5q-171 0 -272 98t-101 269v758h190v-748q0 -104 63 -162.5t177 -58.5q124 0 200 84.5t76 214.5v670h191v-1100q-65 -35 -107.5 -85.5t-42.5 -96.5q0 -72 89 -72
q48 0 83 14h7v-133q-61 -18 -125 -18z" />
    <glyph glyph-name="Wcircumflex" unicode="&#x174;" horiz-adv-x="1976" 
d="M434 0l-397 1524h219l219 -897q16 -67 34 -168t28 -169l10 -67h4q41 256 80 406l246 895h221l237 -895q17 -67 37 -168.5t32 -169.5l11 -68h4q39 254 76 404l227 897h215l-424 -1524h-202l-250 975q-16 60 -34 155.5t-28 160.5l-10 65h-4q-39 -246 -74 -379l-268 -977
h-209zM678 1608l207 231h211l200 -231h-196l-111 125h-4l-115 -125h-192z" />
    <glyph glyph-name="wcircumflex" unicode="&#x175;" horiz-adv-x="1599" 
d="M369 0l-349 1100h203l172 -611q16 -56 34 -136t28 -133l10 -52h4q37 184 74 317l166 615h180l164 -615q14 -52 31 -131.5t28 -133.5l10 -54h4q31 188 72 323l182 611h197l-358 -1100h-191l-162 606l-69 307h-4q-41 -203 -68 -307l-166 -606h-192zM498 1288l198 252h211
l193 -252h-193l-106 154h-4l-111 -154h-188z" />
    <glyph glyph-name="Ycircumflex" unicode="&#x176;" horiz-adv-x="1388" 
d="M795 0h-209v639l-549 885h233l275 -459q28 -48 65.5 -119.5t60.5 -118.5l23 -47h4q89 176 152 285l276 459h224l-555 -895v-629zM389 1608l207 231h211l201 -231h-197l-111 125h-4l-114 -125h-193z" />
    <glyph glyph-name="ycircumflex" unicode="&#x177;" horiz-adv-x="1062" 
d="M266 -383q-103 0 -162 23v163h9q33 -20 114 -20q60 0 98 29t66 104q0 1 10.5 33.5t20.5 66.5t8 39l-420 1045h207l227 -611q20 -56 43.5 -130t36.5 -120l13 -46h4q51 173 94 296l219 611h199l-467 -1200q-65 -166 -136.5 -224.5t-183.5 -58.5zM236 1288l198 252h211
l193 -252h-193l-106 154h-4l-111 -154h-188z" />
    <glyph glyph-name="Ydieresis" unicode="&#x178;" horiz-adv-x="1388" 
d="M795 0h-209v639l-549 885h233l275 -459q28 -48 65.5 -119.5t60.5 -118.5l23 -47h4q89 176 152 285l276 459h224l-555 -895v-629zM901 1831q49 0 82 -32.5t33 -82.5q0 -47 -33 -79.5t-82 -32.5t-82 32.5t-33 79.5q0 50 33 82.5t82 32.5zM496 1831q49 0 81.5 -32.5
t32.5 -82.5q0 -48 -32.5 -80t-81.5 -32t-82 32.5t-33 79.5q0 50 32.5 82.5t82.5 32.5z" />
    <glyph glyph-name="Zacute" unicode="&#x179;" horiz-adv-x="1368" 
d="M80 0v195l743 948q29 37 75 88.5t77 84.5l31 32v6q-169 -8 -273 -8h-598v178h1104v-164l-733 -948q-33 -41 -83 -98t-84 -94l-34 -36v-6q172 8 285 8h684v-186h-1194zM590 1608l108 256h234l-182 -256h-160z" />
    <glyph glyph-name="zacute" unicode="&#x17a;" horiz-adv-x="1048" 
d="M90 0v147l492 641q20 25 53 62.5l55 62.5l23 25v6q-131 -6 -207 -6h-379v162h825v-119l-499 -653q-21 -26 -56 -66t-59 -67l-25 -27v-6q139 6 219 6h445v-168h-887zM459 1280l108 297h234l-183 -297h-159z" />
    <glyph glyph-name="Zdotaccent" unicode="&#x17b;" horiz-adv-x="1368" 
d="M80 0v195l743 948q29 37 75 88.5t77 84.5l31 32v6q-169 -8 -273 -8h-598v178h1104v-164l-733 -948q-33 -41 -83 -98t-84 -94l-34 -36v-6q172 8 285 8h684v-186h-1194zM678 1837q51 0 84 -33t33 -84t-33 -83.5t-84 -32.5t-84 32.5t-33 83.5t33 84t84 33z" />
    <glyph glyph-name="zdotaccent" unicode="&#x17c;" horiz-adv-x="1048" 
d="M90 0v147l492 641q20 25 53 62.5l55 62.5l23 25v6q-131 -6 -207 -6h-379v162h825v-119l-499 -653q-21 -26 -56 -66t-59 -67l-25 -27v-6q139 6 219 6h445v-168h-887zM547 1526q51 0 84 -33t33 -84t-33 -84t-84 -33t-84 33t-33 84t33 84t84 33z" />
    <glyph glyph-name="Zcaron" unicode="&#x17d;" horiz-adv-x="1368" 
d="M80 0v195l743 948q29 37 75 88.5t77 84.5l31 32v6q-169 -8 -273 -8h-598v178h1104v-164l-733 -948q-33 -41 -83 -98t-84 -94l-34 -36v-6q172 8 285 8h684v-186h-1194zM987 1839l-207 -231h-211l-200 231h196l111 -125h4l115 125h192z" />
    <glyph glyph-name="zcaron" unicode="&#x17e;" horiz-adv-x="1048" 
d="M90 0v147l492 641q20 25 53 62.5l55 62.5l23 25v6q-131 -6 -207 -6h-379v162h825v-119l-499 -653q-21 -26 -56 -66t-59 -67l-25 -27v-6q139 6 219 6h445v-168h-887zM848 1534l-199 -254h-211l-192 254h192l107 -156h4l110 156h189z" />
    <glyph glyph-name="uni0192" unicode="&#x192;" horiz-adv-x="811" 
d="M262 -258q-84 -84 -293 -59v151q84 -7 128 16t55 99l112 774h-196v143h217l51 355q15 118 76 182q105 111 356 80v-156q-127 11 -180.5 -17t-65.5 -114l-47 -330h242v-143h-262l-111 -789q-18 -128 -82 -192z" />
    <glyph glyph-name="AEacute" unicode="&#x1fc;" horiz-adv-x="2068" 
d="M733 1339l-258 -727h473v727h-215zM1944 1524v-185h-785v-460h701v-174h-701v-512h809v-193h-1020v444h-532l-156 -444h-211l551 1524h1344zM1137 1608l108 256h234l-183 -256h-159z" />
    <glyph glyph-name="aeacute" unicode="&#x1fd;" horiz-adv-x="1880" 
d="M1315 979q-133 0 -210 -92t-95 -246h598q-4 157 -83.5 247.5t-209.5 90.5zM506 117q78 0 141.5 27t101.5 70t58 93t20 99v180q-77 -49 -241 -78q-62 -11 -101 -20t-81 -25.5t-64.5 -37.5t-37.5 -54t-15 -78q0 -176 219 -176zM1792 313q-31 -159 -153 -251.5t-300 -92.5
q-293 0 -421 242h-5q-80 -126 -186.5 -181t-243.5 -55q-184 0 -290.5 81t-106.5 235q0 75 23 131t60.5 91.5t101 60.5t128.5 38t160 25q54 6 90.5 12.5t72.5 18.5t57 28t33.5 41t12.5 58q0 90 -61 141t-174 51q-127 0 -193 -56t-71 -157h-185q3 71 32 133.5t82.5 112t139 78
t193.5 28.5q286 0 366 -184q127 184 361 184q231 0 366 -170q127 -164 127 -452h-800q10 -171 92.5 -275t238.5 -104q101 0 172 51t95 137h186zM879 1280l108 297h234l-183 -297h-159z" />
    <glyph glyph-name="Oslashacute" unicode="&#x1fe;" horiz-adv-x="1691" 
d="M313 762q0 -227 99 -383l798 856q-141 141 -364 141q-169 0 -291 -81t-182 -218.5t-60 -314.5zM846 152q168 0 289.5 80.5t181 217t59.5 312.5q0 226 -94 381l-797 -856q138 -135 361 -135zM846 -33q-298 0 -496 176l-207 -221l-86 80l213 227q-170 213 -170 533
q0 229 89.5 408t260 282.5t396.5 103.5q301 0 500 -180l184 199l86 -76l-193 -207q170 -214 170 -530q0 -227 -90 -407t-261 -284t-396 -104zM748 1608l108 256h234l-183 -256h-159z" />
    <glyph glyph-name="oslashacute" unicode="&#x1ff;" horiz-adv-x="1216" 
d="M264 549q0 -136 51 -244l531 572q-92 98 -238 98q-163 0 -253.5 -120t-90.5 -306zM608 125q163 0 253.5 119t90.5 305q0 142 -51 244l-528 -572q93 -96 235 -96zM610 -31q-209 0 -352 127l-145 -155l-74 65l151 164q-118 155 -118 379q0 160 64.5 290.5t188 208.5
t285.5 78q208 0 351 -127l141 154l74 -66l-150 -159q119 -156 119 -379q0 -162 -63.5 -293t-186.5 -209t-285 -78zM518 1280l109 297h233l-182 -297h-160z" />
    <glyph glyph-name="uni0218" unicode="&#x218;" horiz-adv-x="1376" 
d="M717 -31q-155 0 -278.5 41t-203 113t-123 166t-49.5 205h207q19 -173 133.5 -265t319.5 -92q158 0 254 70.5t96 204.5q0 42 -11.5 76.5t-29 60.5t-51 48.5t-64 37.5t-83 31t-94 26t-109.5 25q-93 20 -158 38.5t-135.5 52.5t-113 76.5t-70 109t-27.5 151.5q0 189 145 298
t383 109q268 0 409 -120t171 -328h-203q-20 138 -117 211.5t-258 73.5q-153 0 -242 -61t-89 -173q0 -41 12.5 -73.5t40 -57.5t58.5 -43.5t80.5 -34.5t93.5 -27t110 -24q73 -15 124.5 -27.5t115 -33t106.5 -44t87.5 -59.5t70.5 -79t42.5 -102t16.5 -130q0 -212 -156.5 -331.5
t-410.5 -119.5zM588 -498v95q83 23 98 102q-48 -6 -82.5 21t-34.5 71q0 48 32 78.5t79 30.5q54 0 88.5 -44t34.5 -112q0 -100 -57.5 -165t-157.5 -77z" />
    <glyph glyph-name="uni0219" unicode="&#x219;" horiz-adv-x="1069" 
d="M553 -33q-224 0 -352 98.5t-140 268.5h193q31 -213 303 -213q125 0 186.5 48t61.5 126q0 36 -12 62.5t-32 45t-58.5 33.5t-78.5 25.5t-106 23.5q-58 12 -91.5 20t-83 23t-78 30.5t-62.5 40.5t-51.5 54.5t-30 71t-12.5 92.5q0 142 106.5 224.5t296.5 82.5q200 0 309 -85
t129 -234h-190q-25 176 -252 176q-107 0 -160 -43t-53 -111q0 -24 7.5 -44t17.5 -34.5t33 -27t41 -20.5t55.5 -17.5t62.5 -15t76 -15.5q56 -11 92.5 -19.5t83.5 -23.5t77 -31.5t62 -42.5t50 -57.5t30 -75.5t12 -98q0 -163 -121 -250.5t-321 -87.5zM436 -498v95q84 24 99 102
q-48 -6 -82.5 21t-34.5 71q0 49 31.5 79t78.5 30q54 0 88.5 -44t34.5 -112q0 -100 -57.5 -165t-157.5 -77z" />
    <glyph glyph-name="uni021A" unicode="&#x21a;" horiz-adv-x="1339" 
d="M1276 1339h-502v-1339h-211v1339h-500v185h1213v-185zM575 -498v95q84 24 99 102q-48 -6 -82.5 21t-34.5 71q0 48 32 78.5t79 30.5q54 0 88.5 -44t34.5 -112q0 -100 -58 -165t-158 -77z" />
    <glyph glyph-name="uni021B" unicode="&#x21b;" horiz-adv-x="718" 
d="M639 10q-77 -18 -154 -18q-249 3 -249 223v737h-173v148h173v346h188v-346h227v-148h-227v-694q0 -57 28.5 -79.5t84.5 -22.5q49 0 96 14h6v-160zM319 -498v95q84 24 99 102q-48 -6 -82.5 21t-34.5 71q0 48 32 78.5t79 30.5q54 0 88.5 -44t34.5 -112q0 -100 -58 -165
t-158 -77z" />
    <glyph glyph-name="uni0237" unicode="&#x237;" horiz-adv-x="454" 
d="M61 -348q-33 0 -106 10v152h6q35 -7 59 -7q57 2 84 27t27 82v1184h191v-1194q0 -144 -74 -205q-65 -49 -187 -49z" />
    <glyph glyph-name="circumflex" unicode="&#x2c6;" horiz-adv-x="1024" 
d="M211 1288l199 252h211l192 -252h-192l-107 154h-4l-111 -154h-188z" />
    <glyph glyph-name="caron" unicode="&#x2c7;" horiz-adv-x="1024" 
d="M813 1534l-199 -254h-211l-192 254h192l107 -156h4l111 156h188z" />
    <glyph glyph-name="uni02C9" unicode="&#x2c9;" horiz-adv-x="1024" 
d="M233 1350v153h560v-153h-560z" />
    <glyph glyph-name="breve" unicode="&#x2d8;" horiz-adv-x="1024" 
d="M551 1270q-115 0 -194 71.5t-85 190.5h136q19 -121 141 -121q63 0 101 32t46 89h133q-5 -113 -81 -187.5t-197 -74.5z" />
    <glyph glyph-name="dotaccent" unicode="&#x2d9;" horiz-adv-x="1024" 
d="M512 1526q51 0 84 -33t33 -84t-33 -84t-84 -33t-84 33t-33 84t33 84t84 33z" />
    <glyph glyph-name="ring" unicode="&#x2da;" horiz-adv-x="1024" 
d="M512 1227q-88 0 -149.5 60.5t-61.5 146.5q0 85 61.5 143.5t149.5 58.5q87 0 148 -59t61 -143q0 -86 -61.5 -146.5t-147.5 -60.5zM512 1313q49 0 81 34t32 87q0 51 -32 84.5t-81 33.5q-51 0 -83 -33.5t-32 -84.5q0 -53 32 -87t83 -34z" />
    <glyph glyph-name="ogonek" unicode="&#x2db;" horiz-adv-x="1024" 
d="M492 -391q-113 0 -171.5 48.5t-58.5 131.5q0 69 48 122t116 89h141q-129 -105 -129 -182q0 -72 88 -72q49 0 84 14h6v-133q-61 -18 -124 -18z" />
    <glyph glyph-name="tilde" unicode="&#x2dc;" horiz-adv-x="1024" 
d="M645 1292q-46 0 -96.5 20t-92 40t-63.5 20q-24 0 -40 -23t-19 -55h-131q4 105 49.5 162t122.5 57q39 0 77.5 -12.5t63.5 -27t55 -27t56 -12.5q49 0 57 75h131q-10 -217 -170 -217z" />
    <glyph glyph-name="hungarumlaut" unicode="&#x2dd;" horiz-adv-x="1024" 
d="M262 1280l70 297h192l-123 -297h-139zM555 1280l68 297h190l-121 -297h-137z" />
    <glyph glyph-name="pi" unicode="&#x3c0;" horiz-adv-x="1376" 
d="M61 952v148h1244v-148h-211v-694q0 -57 23.5 -79.5t76.5 -22.5q44 0 86 14h8v-162q-66 -16 -143 -16q-109 0 -174.5 53t-65.5 170v737h-467v-952h-188v952h-189z" />
    <glyph glyph-name="Wgrave" unicode="&#x1e80;" horiz-adv-x="1976" 
d="M434 0l-397 1524h219l219 -897q16 -67 34 -168t28 -169l10 -67h4q41 256 80 406l246 895h221l237 -895q17 -67 37 -168.5t32 -169.5l11 -68h4q39 254 76 404l227 897h215l-424 -1524h-202l-250 975q-16 60 -34 155.5t-28 160.5l-10 65h-4q-39 -246 -74 -379l-268 -977
h-209zM909 1608l-182 256h234l108 -256h-160z" />
    <glyph glyph-name="wgrave" unicode="&#x1e81;" horiz-adv-x="1599" 
d="M369 0l-349 1100h203l172 -611q16 -56 34 -136t28 -133l10 -52h4q37 184 74 317l166 615h180l164 -615q14 -52 31 -131.5t28 -133.5l10 -54h4q31 188 72 323l182 611h197l-358 -1100h-191l-162 606l-69 307h-4q-41 -203 -68 -307l-166 -606h-192zM729 1280l-182 297h233
l109 -297h-160z" />
    <glyph glyph-name="Wacute" unicode="&#x1e82;" horiz-adv-x="1976" 
d="M434 0l-397 1524h219l219 -897q16 -67 34 -168t28 -169l10 -67h4q41 256 80 406l246 895h221l237 -895q17 -67 37 -168.5t32 -169.5l11 -68h4q39 254 76 404l227 897h215l-424 -1524h-202l-250 975q-16 60 -34 155.5t-28 160.5l-10 65h-4q-39 -246 -74 -379l-268 -977
h-209zM899 1608l109 256h233l-182 -256h-160z" />
    <glyph glyph-name="wacute" unicode="&#x1e83;" horiz-adv-x="1599" 
d="M369 0l-349 1100h203l172 -611q16 -56 34 -136t28 -133l10 -52h4q37 184 74 317l166 615h180l164 -615q14 -52 31 -131.5t28 -133.5l10 -54h4q31 188 72 323l182 611h197l-358 -1100h-191l-162 606l-69 307h-4q-41 -203 -68 -307l-166 -606h-192zM711 1280l108 297h234
l-183 -297h-159z" />
    <glyph glyph-name="Wdieresis" unicode="&#x1e84;" horiz-adv-x="1976" 
d="M434 0l-397 1524h219l219 -897q16 -67 34 -168t28 -169l10 -67h4q41 256 80 406l246 895h221l237 -895q17 -67 37 -168.5t32 -169.5l11 -68h4q39 254 76 404l227 897h215l-424 -1524h-202l-250 975q-16 60 -34 155.5t-28 160.5l-10 65h-4q-39 -246 -74 -379l-268 -977
h-209zM1190 1831q50 0 82.5 -32.5t32.5 -82.5q0 -47 -33 -79.5t-82 -32.5t-82 32.5t-33 79.5q0 50 32.5 82.5t82.5 32.5zM784 1831q50 0 82.5 -32.5t32.5 -82.5q0 -47 -33 -79.5t-82 -32.5t-81.5 32t-32.5 80q0 50 32.5 82.5t81.5 32.5z" />
    <glyph glyph-name="wdieresis" unicode="&#x1e85;" horiz-adv-x="1599" 
d="M369 0l-349 1100h203l172 -611q16 -56 34 -136t28 -133l10 -52h4q37 184 74 317l166 615h180l164 -615q14 -52 31 -131.5t28 -133.5l10 -54h4q31 188 72 323l182 611h197l-358 -1100h-191l-162 606l-69 307h-4q-41 -203 -68 -307l-166 -606h-192zM999 1520q49 0 82 -33
t33 -82q0 -48 -33 -80.5t-82 -32.5t-81.5 32.5t-32.5 80.5q0 50 32.5 82.5t81.5 32.5zM598 1520q50 0 82.5 -33t32.5 -82q0 -48 -33 -80.5t-82 -32.5t-82 32.5t-33 80.5q0 49 32.5 82t82.5 33z" />
    <glyph glyph-name="Ygrave" unicode="&#x1ef2;" horiz-adv-x="1388" 
d="M795 0h-209v639l-549 885h233l275 -459q28 -48 65.5 -119.5t60.5 -118.5l23 -47h4q89 176 152 285l276 459h224l-555 -895v-629zM621 1608l-183 256h234l108 -256h-159z" />
    <glyph glyph-name="ygrave" unicode="&#x1ef3;" horiz-adv-x="1062" 
d="M266 -383q-103 0 -162 23v163h9q33 -20 114 -20q60 0 98 29t66 104q0 1 10.5 33.5t20.5 66.5t8 39l-420 1045h207l227 -611q20 -56 43.5 -130t36.5 -120l13 -46h4q51 173 94 296l219 611h199l-467 -1200q-65 -166 -136.5 -224.5t-183.5 -58.5zM467 1280l-182 297h233
l109 -297h-160z" />
    <glyph glyph-name="uni2009" unicode="&#x2009;" horiz-adv-x="194" 
 />
    <glyph glyph-name="endash" unicode="&#x2013;" horiz-adv-x="1122" 
d="M100 461v164h922v-164h-922z" />
    <glyph glyph-name="emdash" unicode="&#x2014;" horiz-adv-x="1734" 
d="M100 461v164h1536v-164h-1536z" />
    <glyph glyph-name="quoteleft" unicode="&#x2018;" horiz-adv-x="415" 
d="M215 1049q-56 0 -90.5 50t-34.5 126q0 116 56.5 197t160.5 110v-107q-89 -40 -98 -155q51 3 84 -27t33 -82q0 -49 -31.5 -80.5t-79.5 -31.5z" />
    <glyph glyph-name="quoteright" unicode="&#x2019;" horiz-adv-x="415" 
d="M109 1049v106q89 40 98 156q-52 -3 -84.5 26.5t-32.5 81.5q0 49 31.5 81t79.5 32q56 0 90.5 -50t34.5 -126q0 -116 -56.5 -197t-160.5 -110z" />
    <glyph glyph-name="quotesinglbase" unicode="&#x201a;" horiz-adv-x="415" 
d="M109 -256v106q89 40 98 156q-51 -3 -84 27t-33 82q0 49 31.5 80.5t79.5 31.5q56 0 90.5 -50t34.5 -126q0 -116 -56.5 -197t-160.5 -110z" />
    <glyph glyph-name="quotedblleft" unicode="&#x201c;" horiz-adv-x="761" 
d="M215 1049q-56 0 -90.5 50t-34.5 126q0 116 56.5 197t160.5 110v-107q-89 -40 -98 -155q51 3 84 -27t33 -82q0 -49 -31.5 -80.5t-79.5 -31.5zM561 1049q-56 0 -90.5 50t-34.5 126q0 116 56.5 197t160.5 110v-107q-89 -40 -98 -155q51 3 84 -27t33 -82q0 -49 -31.5 -80.5
t-79.5 -31.5z" />
    <glyph glyph-name="quotedblright" unicode="&#x201d;" horiz-adv-x="761" 
d="M455 1049v106q89 40 98 156q-52 -3 -84.5 26.5t-32.5 81.5q0 49 31.5 81t79.5 32q56 0 90.5 -50t34.5 -126q0 -116 -56.5 -197t-160.5 -110zM109 1049v106q89 40 98 156q-52 -3 -84.5 26.5t-32.5 81.5q0 49 31.5 81t79.5 32q56 0 90.5 -50t34.5 -126q0 -116 -56.5 -197
t-160.5 -110z" />
    <glyph glyph-name="quotedblbase" unicode="&#x201e;" horiz-adv-x="761" 
d="M455 -256v106q89 40 98 156q-51 -3 -84 27t-33 82q0 49 31.5 80.5t79.5 31.5q56 0 90.5 -50t34.5 -126q0 -116 -56.5 -197t-160.5 -110zM109 -256v106q89 40 98 156q-51 -3 -84 27t-33 82q0 49 31.5 80.5t79.5 31.5q56 0 90.5 -50t34.5 -126q0 -116 -56.5 -197
t-160.5 -110z" />
    <glyph glyph-name="dagger" unicode="&#x2020;" horiz-adv-x="1210" 
d="M1118 954h-416v-1183h-194v1183h-418v168h418v402h194v-402h416v-168z" />
    <glyph glyph-name="daggerdbl" unicode="&#x2021;" horiz-adv-x="1210" 
d="M1118 168h-416v-397h-194v397h-418v170h418v616h-418v168h418v402h194v-402h416v-168h-416v-616h416v-170z" />
    <glyph glyph-name="bullet" unicode="&#x2022;" horiz-adv-x="700" 
d="M352 432q-108 0 -185 76t-77 182q0 108 77 185t185 77q106 0 182 -77.5t76 -184.5q0 -106 -76 -182t-182 -76z" />
    <glyph glyph-name="ellipsis" unicode="&#x2026;" horiz-adv-x="1452" 
d="M727 233q53 0 88 -35t35 -87t-35 -86.5t-88 -34.5t-88 34.5t-35 86.5t35 87t88 35zM221 233q53 0 88 -35t35 -87t-35 -86.5t-88 -34.5t-88 34.5t-35 86.5t35 87t88 35zM1231 233q53 0 88 -35t35 -87t-35 -86.5t-88 -34.5t-88 34.5t-35 86.5t35 87t88 35z" />
    <glyph glyph-name="perthousand" unicode="&#x2030;" horiz-adv-x="2635" 
d="M424 647q-155 0 -251.5 116t-96.5 308q0 190 98.5 306t249.5 116q153 0 250.5 -114.5t97.5 -307.5q0 -192 -96 -308t-252 -116zM416 0l831 1458h150l-832 -1458h-149zM424 782q88 0 134 79t46 210q0 126 -48 207.5t-132 81.5t-130 -80t-46 -209q0 -128 46 -208.5
t130 -80.5zM2212 -31q-156 0 -252 115.5t-96 306.5t98.5 306.5t249.5 115.5q154 0 251 -114t97 -308q0 -191 -96 -306.5t-252 -115.5zM1389 -31q-156 0 -252.5 115.5t-96.5 306.5q0 192 98.5 307t250.5 115q154 0 250 -113.5t96 -308.5q0 -191 -95 -306.5t-251 -115.5z
M2212 104q88 0 134 78t46 209q0 127 -48 209t-132 82t-130 -80.5t-46 -210.5q0 -127 46 -207t130 -80zM1389 104q87 0 132.5 78.5t45.5 208.5q0 127 -47 209t-131 82q-85 0 -131 -80t-46 -211q0 -128 46 -207.5t131 -79.5z" />
    <glyph glyph-name="uni2032" unicode="&#x2032;" horiz-adv-x="403" 
d="M66 1018l100 506h172l-100 -506h-172z" />
    <glyph glyph-name="uni2033" unicode="&#x2033;" horiz-adv-x="735" 
d="M66 1018l100 506h172l-100 -506h-172zM397 1018l101 506h172l-101 -506h-172z" />
    <glyph glyph-name="guilsinglleft" unicode="&#x2039;" horiz-adv-x="659" 
d="M498 166l-336 307v201l336 309v-207l-232 -198v-5l232 -202v-205z" />
    <glyph glyph-name="guilsinglright" unicode="&#x203a;" horiz-adv-x="659" 
d="M162 983l336 -309v-201l-336 -307v205l231 200v4l-231 203v205z" />
    <glyph glyph-name="fraction" unicode="&#x2044;" horiz-adv-x="421" 
d="M-569 -266l1329 1790h176l-1331 -1790h-174z" />
    <glyph glyph-name="Euro" unicode="&#x20ac;" horiz-adv-x="1345" 
d="M1278 463q-5 -137 -66 -248.5t-173.5 -178.5t-256.5 -67q-222 0 -379 148t-204 409h-136v117h121q-2 27 -2 84q0 55 2 82h-121v117h136q45 260 197 413.5t370 153.5q203 0 334.5 -117.5t156.5 -304.5h-192q-25 121 -101 187.5t-200 66.5q-149 0 -240 -104.5t-121 -294.5
h416v-117h-428q-2 -27 -2 -82q0 -57 2 -84h428v-117h-413q32 -190 128 -289.5t246 -99.5q136 0 217 89.5t97 236.5h184z" />
    <glyph glyph-name="uni2113" unicode="&#x2113;" horiz-adv-x="813" 
d="M174 553v700q0 146 80 216.5t209 70.5q138 0 205 -77.5t67 -258.5q0 -113 -18.5 -210t-50 -170.5t-79.5 -135.5t-101.5 -107.5t-120.5 -84.5v-189q0 -78 33 -113.5t100 -35.5q88 0 172 45h6v-162q-31 -21 -86 -34t-111 -13q-305 0 -305 303v113q-92 -33 -129 -41v137
q70 22 129 47zM475 788q94 164 94 416q0 103 -27 144t-77 41q-100 0 -100 -138v-608q58 52 110 145z" />
    <glyph glyph-name="trademark" unicode="&#x2122;" horiz-adv-x="1777" 
d="M721 1395h-244v-654h-151v654h-246v129h641v-129zM864 741v783h213l103 -336q14 -45 32.5 -120.5t30.5 -127.5l12 -53h5q44 199 75 301l103 336h217v-783h-139v287l8 356h-6q-48 -188 -97 -344l-94 -299h-141l-92 299q-22 71 -45.5 157t-36.5 137l-13 50h-6
q8 -217 8 -356v-287h-137z" />
    <glyph glyph-name="Omega" unicode="&#x2126;" horiz-adv-x="1576" 
d="M96 0v174h283v4q-293 180 -293 615q0 226 88.5 400.5t248 270t365.5 95.5q154 0 285 -56t223 -155.5t143.5 -242.5t51.5 -312q0 -433 -295 -615v-4h283v-174h-602l-3 166q104 16 183.5 73.5t127 144.5t71.5 192t24 223q0 261 -133.5 419t-358.5 158q-226 0 -358.5 -158
t-132.5 -419q0 -118 24 -222.5t72 -191.5t127 -145t182 -74l-2 -166h-604z" />
    <glyph glyph-name="estimated" unicode="&#x212e;" horiz-adv-x="1402" 
d="M1292 616h-909v-415q128 -125 352 -125q180 0 284.5 77.5t158.5 227.5h106q-42 -183 -183 -293.5t-366 -110.5q-196 0 -338.5 84t-215 231.5t-72.5 340.5q0 189 78 337.5t218.5 231t319.5 82.5q217 0 367 -121q110 -91 156 -225.5t44 -321.5zM725 1192q-218 0 -342 -127
v-358h641v385q-103 100 -299 100z" />
    <glyph glyph-name="onethird" unicode="&#x2153;" horiz-adv-x="1851" 
d="M295 586v661h-227v109q228 7 249 176h142v-946h-164zM70 -266l1329 1790h176l-1331 -1790h-174zM1436 -244q-171 0 -272 88t-103 236h153q5 -91 59 -143t157 -52q88 0 139 43.5t51 126.5q0 75 -52.5 115.5t-150.5 40.5h-59v125h57q85 0 131.5 36t46.5 101t-44.5 102
t-116.5 37q-86 0 -135 -49.5t-52 -128.5h-155q3 135 95 218t249 83q140 0 228.5 -70t88.5 -188q0 -148 -166 -194v-4q201 -45 201 -236q0 -137 -100 -212t-250 -75z" />
    <glyph glyph-name="twothirds" unicode="&#x2154;" horiz-adv-x="2009" 
d="M63 586q2 61 21 115.5t43.5 93t66.5 78.5t73 63.5t79 56.5q16 11 50 32.5t50 32.5t42 30t39 34t27 35t20 42.5t6 47.5q0 73 -44.5 116.5t-119.5 43.5q-81 0 -126.5 -53t-47.5 -142h-158q0 151 93 241.5t249 90.5q143 0 232.5 -85.5t89.5 -209.5q0 -62 -16.5 -109.5
t-61.5 -90.5t-69.5 -60.5t-93.5 -60.5q-10 -7 -15 -10q-44 -26 -69.5 -42t-64 -43.5t-61.5 -55.5t-33 -56h481v-135h-682zM258 -266l1329 1790h176l-1331 -1790h-174zM1593 -244q-171 0 -271.5 88t-102.5 236h153q5 -91 58.5 -143t156.5 -52q88 0 139.5 43.5t51.5 126.5
q0 75 -52.5 115.5t-150.5 40.5h-59v125h57q85 0 131.5 36t46.5 101t-45 102t-117 37q-86 0 -134.5 -49t-51.5 -129h-156q3 135 95 218t249 83q140 0 229 -70t89 -188q0 -148 -166 -194v-4q201 -45 201 -236q0 -137 -100.5 -212t-250.5 -75z" />
    <glyph glyph-name="oneeighth" unicode="&#x215b;" horiz-adv-x="1871" 
d="M299 586v661h-227v109q229 7 250 176h141v-946h-164zM68 -266l1329 1790h176l-1331 -1790h-174zM1434 -244q-75 0 -142.5 17.5t-122 52t-86.5 91.5t-32 130q0 175 194 244v4q-145 59 -145 190q0 116 92.5 183t237.5 67t236 -65.5t91 -177.5q0 -141 -145 -195v-4
q91 -28 142.5 -90t51.5 -150q0 -74 -30.5 -132.5t-83 -93.5t-118 -53t-140.5 -18zM1430 340q82 0 127 37t45 100q0 62 -45 98.5t-127 36.5t-126 -36t-44 -99t44 -100t126 -37zM1430 -117q97 0 152.5 45.5t55.5 122.5q0 81 -54 127.5t-154 46.5q-99 0 -154 -47t-55 -127
t54.5 -124t154.5 -44z" />
    <glyph glyph-name="threeeighths" unicode="&#x215c;" horiz-adv-x="1992" 
d="M422 567q-171 0 -272 88t-103 236h154q5 -91 58.5 -143t156.5 -52q88 0 139 43.5t51 126.5q0 75 -52.5 115.5t-150.5 40.5h-59v125h57q85 0 132 36t47 101t-45 102t-117 37q-86 0 -135 -49.5t-52 -128.5h-155q3 135 95 218t249 83q140 0 228.5 -70t88.5 -188
q0 -148 -166 -194v-4q201 -45 201 -236q0 -137 -100 -212t-250 -75zM225 -266l1329 1790h177l-1332 -1790h-174zM1554 -244q-75 0 -142.5 17.5t-122 52t-86.5 91.5t-32 130q0 174 195 244v4q-145 59 -145 190q0 116 92 183t237 67t236.5 -65.5t91.5 -177.5q0 -141 -145 -195
v-4q91 -28 142.5 -90t51.5 -150q0 -98 -53.5 -167t-136 -99.5t-183.5 -30.5zM1550 340q82 0 127 37t45 100q0 62 -45 98.5t-127 36.5t-126 -36t-44 -99t44 -100t126 -37zM1550 -117q98 0 153.5 45.5t55.5 122.5q0 81 -54.5 127.5t-154.5 46.5q-99 0 -154 -47t-55 -127
t54.5 -124t154.5 -44z" />
    <glyph glyph-name="fiveeighths" unicode="&#x215d;" horiz-adv-x="1974" 
d="M418 567q-152 0 -253.5 76.5t-113.5 198.5h164q15 -66 67 -104t132 -38q86 0 139 54t53 141q0 91 -54 144t-138 53q-114 0 -181 -78h-149l96 510h539v-138h-430l-47 -247h6q74 84 203 84q134 0 227.5 -90t93.5 -238q0 -146 -100.5 -237t-253.5 -91zM203 -266l1329 1790
h176l-1331 -1790h-174zM1536 -244q-75 0 -142.5 17.5t-122 52t-86.5 91.5t-32 130q0 174 195 244v4q-146 59 -146 190q0 116 92.5 183t237.5 67t236.5 -65.5t91.5 -177.5q0 -141 -146 -195v-4q91 -28 143 -90t52 -150q0 -98 -53.5 -167t-136 -99.5t-183.5 -30.5zM1532 340
q82 0 127 37t45 100q0 62 -45 98.5t-127 36.5t-126 -36t-44 -99t44 -100t126 -37zM1532 -117q98 0 153.5 45.5t55.5 122.5q0 81 -54.5 127.5t-154.5 46.5q-99 0 -154 -47t-55 -127t54.5 -124t154.5 -44z" />
    <glyph glyph-name="seveneighths" unicode="&#x215e;" horiz-adv-x="1878" 
d="M373 586h-174q10 238 119.5 450t265.5 348v7q-70 -9 -228 -9h-303v142h682v-133q-148 -141 -249.5 -349t-112.5 -456zM51 -266l1329 1790h176l-1331 -1790h-174zM1440 -244q-75 0 -142.5 17.5t-122 52t-86.5 91.5t-32 130q0 175 194 244v4q-145 59 -145 190
q0 116 92.5 183t237.5 67t236 -65.5t91 -177.5q0 -141 -145 -195v-4q91 -28 142.5 -90t51.5 -150q0 -74 -30.5 -132.5t-83 -93.5t-118 -53t-140.5 -18zM1436 340q82 0 127 37t45 100q0 62 -45 98.5t-127 36.5t-126 -36t-44 -99t44 -100t126 -37zM1436 -117q98 0 153.5 45.5
t55.5 122.5q0 81 -54.5 127.5t-154.5 46.5q-99 0 -154 -47t-55 -127t54.5 -124t154.5 -44z" />
    <glyph glyph-name="partialdiff" unicode="&#x2202;" horiz-adv-x="1216" 
d="M909 850q-38 235 -172.5 356.5t-388.5 165.5v166q205 -26 353 -102.5t236.5 -198.5t129.5 -275.5t41 -347.5q0 -97 -20 -188.5t-63.5 -174.5t-105.5 -145.5t-154 -99.5t-202 -37q-214 0 -341.5 128t-127.5 323q0 155 66 282.5t186 202t270 74.5q85 0 164.5 -33.5
t128.5 -95.5zM567 127q104 0 184.5 60.5t120 152.5t39.5 197q0 130 -74 208t-210 78q-153 0 -246.5 -111t-93.5 -290q0 -133 72.5 -214t207.5 -81z" />
    <glyph glyph-name="Delta" unicode="&#x2206;" horiz-adv-x="1452" 
d="M59 0v182l541 1342h248l545 -1344v-180h-1334zM614 1059l-354 -889h918l-353 889q-29 74 -54.5 150.5t-36.5 116.5l-11 40h-4q-39 -141 -105 -307z" />
    <glyph glyph-name="product" unicode="&#x220f;" horiz-adv-x="1533" 
d="M168 1524h1198v-1737h-211v1552h-776v-1552h-211v1737z" />
    <glyph glyph-name="summation" unicode="&#x2211;" horiz-adv-x="1372" 
d="M1272 -213h-1166v203l601 682v4l-601 655v193h1145v-178h-899v-5l574 -618v-86l-588 -662v-4h934v-184z" />
    <glyph glyph-name="minus" unicode="&#x2212;" horiz-adv-x="1230" 
d="M129 621v149h973v-149h-973z" />
    <glyph glyph-name="uni2215" unicode="&#x2215;" horiz-adv-x="421" 
d="M-569 -266l1329 1790h176l-1331 -1790h-174z" />
    <glyph glyph-name="uni2219" unicode="&#x2219;" horiz-adv-x="479" 
d="M240 788q52 0 87 -35t35 -87t-34.5 -86.5t-87.5 -34.5t-88 34.5t-35 86.5t35 87t88 35z" />
    <glyph glyph-name="radical" unicode="&#x221a;" horiz-adv-x="1316" 
d="M57 489v179h314l145 -381q27 -73 55.5 -161.5t42.5 -141.5l15 -52h4q43 189 92 353l373 1239h198l-544 -1737h-238l-276 702h-181z" />
    <glyph glyph-name="infinity" unicode="&#x221e;" horiz-adv-x="1523" 
d="M397 279q-104 0 -178.5 52t-109.5 134.5t-35 183.5t36 183t110.5 134t176.5 52q118 0 207 -66.5t164 -181.5q74 116 158.5 182t197.5 66q147 0 236.5 -101.5t89.5 -267.5t-89.5 -268t-236.5 -102q-114 0 -198.5 66t-157.5 183q-48 -75 -97.5 -126.5t-121 -87
t-152.5 -35.5zM1114 444q80 0 120 57t40 148t-39.5 147t-120.5 56q-67 0 -122 -54.5t-111 -150.5q59 -96 113 -149.5t120 -53.5zM408 852q-80 0 -119 -56t-39 -147t39 -148t119 -57q124 0 245 203q-115 205 -245 205z" />
    <glyph glyph-name="integral" unicode="&#x222b;" horiz-adv-x="718" 
d="M250 -72v1313q0 152 82 222.5t223 70.5q91 0 156 -18v-160h-6q-52 18 -119 18q-146 0 -146 -149v-1315q0 -150 -82.5 -220.5t-222.5 -70.5q-83 0 -155 21v159h6q57 -20 118 -20q146 0 146 149z" />
    <glyph glyph-name="approxequal" unicode="&#x2248;" horiz-adv-x="1230" 
d="M883 735q-91 0 -284 42t-247 42q-91 0 -94 -100h-145q3 119 67 184.5t168 65.5q95 0 283 -42t237 -42q100 0 103 98h147q-3 -116 -62.5 -182t-172.5 -66zM883 362q-91 0 -284 42t-247 42q-91 0 -94 -100h-145q3 119 67 184.5t168 65.5q95 0 283 -42t237 -42q100 0 103 98
h147q-3 -116 -62.5 -182t-172.5 -66z" />
    <glyph glyph-name="notequal" unicode="&#x2260;" horiz-adv-x="1230" 
d="M1100 401h-547l-127 -251h-145l127 251h-277v150h352l119 231h-471v150h547l127 252h145l-127 -252h277v-150h-352l-119 -231h471v-150z" />
    <glyph glyph-name="lessequal" unicode="&#x2264;" horiz-adv-x="1122" 
d="M991 248l-868 340v198l868 340v-170l-469 -174q-47 -17 -115.5 -40t-113.5 -38l-45 -14v-4q168 -51 274 -90l469 -176v-172zM123 0v150h868v-150h-868z" />
    <glyph glyph-name="greaterequal" unicode="&#x2265;" horiz-adv-x="1122" 
d="M999 588l-868 -340v172l469 176q47 17 115.5 39.5t113.5 36.5l45 14v4q-168 53 -274 92l-469 174v170l868 -340v-198zM999 150v-150h-868v150h868z" />
    <glyph glyph-name="uni24C5" unicode="&#x24c5;" horiz-adv-x="1767" 
d="M883 -37q-216 0 -394.5 102.5t-281.5 284.5t-103 406q0 225 103 407t281 284.5t395 102.5q162 0 306.5 -60.5t249 -165t165.5 -252.5t61 -316t-61 -315.5t-165.5 -252t-249 -165t-306.5 -60.5zM883 49q192 0 347.5 91.5t244 253.5t88.5 362q0 201 -88.5 363.5t-244 254.5
t-347.5 92q-191 0 -346.5 -91.5t-244.5 -254.5t-89 -364q0 -200 89 -362t244.5 -253.5t346.5 -91.5zM754 1061v-277h192q74 0 114 37t40 101q0 67 -39.5 103t-110.5 36h-196zM975 657h-221v-327h-162v866h377q144 0 221 -80q72 -82 72 -190q0 -124 -76 -196.5t-211 -72.5z
" />
    <glyph glyph-name="lozenge" unicode="&#x25ca;" horiz-adv-x="1196" 
d="M707 1524l430 -764l-428 -760h-220l-430 764l428 760h220zM272 768l205 -381q38 -70 68.5 -134t41.5 -93l11 -29h4q33 98 119 256l201 367l-205 381q-38 70 -68.5 134t-41.5 93l-11 29h-4q-33 -98 -119 -256z" />
    <glyph glyph-name="zero.denominator" unicode="&#xe402;" horiz-adv-x="956" 
d="M479 -244q-180 0 -291.5 134.5t-111.5 357.5q0 219 114.5 353t288.5 134q177 0 290.5 -132t113.5 -355t-111.5 -357.5t-292.5 -134.5zM479 -113q117 0 176.5 96.5t59.5 264.5q0 160 -61.5 258t-174.5 98t-174 -96t-61 -260t61 -262.5t174 -98.5z" />
    <glyph glyph-name="one.denominator" unicode="&#xe403;" horiz-adv-x="579" 
d="M289 -225v661h-228v109q229 7 250 176h142v-946h-164z" />
    <glyph glyph-name="two.denominator" unicode="&#xe404;" horiz-adv-x="806" 
d="M57 -225q2 61 21 115.5t43.5 93t66.5 78.5t73 63.5t79 56.5q16 10 50.5 32t49.5 32.5t41.5 30t39 34.5t27 35.5t20 42.5t5.5 47q0 74 -44 117t-119 43q-81 0 -126.5 -53t-47.5 -142h-158q0 151 93 241.5t249 90.5q143 0 232 -85t89 -210q0 -62 -19 -111.5t-57 -87.5
t-75 -64.5t-91 -60.5q-3 -1 -5 -2.5t-4.5 -3t-4.5 -2.5q-45 -26 -69.5 -41.5t-63 -43.5t-61.5 -55.5t-33 -55.5h481v-135h-682z" />
    <glyph glyph-name="three.denominator" unicode="&#xe405;" horiz-adv-x="825" 
d="M416 -244q-171 0 -272 88t-103 236h154q5 -91 58.5 -143t156.5 -52q88 0 139 43.5t51 126.5q0 75 -52.5 115.5t-150.5 40.5h-59v125h57q85 0 131.5 36t46.5 101t-44.5 102t-116.5 37q-86 0 -135 -49.5t-52 -128.5h-155q3 135 95 218t249 83q140 0 228.5 -70t88.5 -188
q0 -148 -166 -194v-4q201 -45 201 -236q0 -137 -100 -212t-250 -75z" />
    <glyph glyph-name="four.denominator" unicode="&#xe406;" horiz-adv-x="866" 
d="M172 106q90 9 145 9h205v262q0 30 4 73t8 71l3 28h-7q-63 -97 -108 -152l-137 -164q-18 -23 -46.5 -53.5t-47.5 -49.5l-19 -19v-5zM829 -10h-149v-215h-158v215h-463v162l465 573h156v-610h149v-125z" />
    <glyph glyph-name="five.denominator" unicode="&#xe407;" horiz-adv-x="825" 
d="M412 -244q-152 0 -253.5 76.5t-113.5 198.5h164q15 -66 67 -104t132 -38q86 0 139 54t53 141q0 91 -54 144t-138 53q-114 0 -181 -78h-149l96 510h539v-138h-430l-47 -247h6q74 84 202 84q134 0 228 -90t94 -238q0 -146 -100.5 -237t-253.5 -91z" />
    <glyph glyph-name="six.denominator" unicode="&#xe408;" horiz-adv-x="870" 
d="M463 -246q-167 0 -268 109q-119 125 -119 383q0 236 100 362q102 127 283 127q136 0 217 -68.5t100 -172.5h-162q-10 47 -48 79.5t-103 32.5q-215 0 -227 -332h4q84 132 243 132q132 0 226 -93t94 -229q1 -141 -97 -235.5t-243 -94.5zM455 -115q82 0 136 55t54 142
q0 84 -54 139t-136 55q-89 0 -144 -54t-55 -140q0 -87 57 -142t142 -55z" />
    <glyph glyph-name="seven.denominator" unicode="&#xe409;" horiz-adv-x="757" 
d="M365 -225h-175q10 238 119.5 450t265.5 348v7q-69 -9 -227 -9h-303v142h682v-133q-148 -141 -249.5 -349t-112.5 -456z" />
    <glyph glyph-name="eight.denominator" unicode="&#xe40a;" horiz-adv-x="874" 
d="M442 -244q-75 0 -142.5 17.5t-122 52t-86.5 91.5t-32 130q0 174 195 244v4q-145 59 -145 190q0 116 92 183t237 67t236.5 -65.5t91.5 -177.5q0 -141 -145 -195v-4q91 -28 142.5 -90t51.5 -150q0 -98 -53.5 -167t-136 -99.5t-183.5 -30.5zM438 340q82 0 127 37t45 100
q0 62 -45 98.5t-127 36.5t-126 -36t-44 -99t44 -100t126 -37zM438 -117q98 0 153.5 45.5t55.5 122.5q0 81 -54.5 127.5t-154.5 46.5q-99 0 -154 -47t-55 -127t54.5 -124t154.5 -44z" />
    <glyph glyph-name="nine.denominator" unicode="&#xe40b;" horiz-adv-x="870" 
d="M426 215q90 0 144.5 54.5t54.5 140.5t-56.5 142t-142.5 56t-140.5 -55.5t-54.5 -140.5q0 -86 55 -141.5t140 -55.5zM430 -246q-140 0 -232 72.5t-104 179.5h164q10 -51 53 -86t115 -35q100 0 149 70q59 73 68 254h-4q-92 -123 -240 -123q-136 0 -231 92.5t-96 229.5
q0 141 100 234t252 93q144 0 240 -80q73 -60 105 -159.5t32 -249.5q0 -277 -119 -396q-99 -96 -252 -96z" />
    <glyph glyph-name="zero.numerator" unicode="&#xe416;" horiz-adv-x="956" 
d="M479 567q-180 0 -291.5 134.5t-111.5 357.5q0 219 114.5 353t288.5 134q177 0 290.5 -132t113.5 -355t-111.5 -357.5t-292.5 -134.5zM479 698q117 0 176.5 96.5t59.5 264.5q0 160 -61.5 258t-174.5 98t-174 -96t-61 -260t61 -262.5t174 -98.5z" />
    <glyph glyph-name="one.numerator" unicode="&#xe417;" horiz-adv-x="579" 
d="M289 586v661h-228v109q229 7 250 176h142v-946h-164z" />
    <glyph glyph-name="two.numerator" unicode="&#xe418;" horiz-adv-x="806" 
d="M57 586q2 61 21 115.5t43.5 93t66.5 78.5t73 63.5t79 56.5q16 10 50.5 32t49.5 32.5t41.5 30t39 34.5t27 35.5t20 42.5t5.5 47q0 74 -44 117t-119 43q-81 0 -126.5 -53t-47.5 -142h-158q0 151 93 241.5t249 90.5q143 0 232 -85t89 -210q0 -62 -16.5 -109.5t-61.5 -90.5
t-69.5 -60.5t-93.5 -60.5q-10 -7 -15 -10q-59 -34 -93.5 -56.5t-78 -63t-55.5 -77.5h481v-135h-682z" />
    <glyph glyph-name="three.numerator" unicode="&#xe419;" horiz-adv-x="825" 
d="M416 567q-171 0 -272 88t-103 236h154q5 -91 58.5 -143t156.5 -52q88 0 139 43.5t51 126.5q0 75 -52.5 115.5t-150.5 40.5h-59v125h57q85 0 131.5 36t46.5 101t-44.5 102t-116.5 37q-86 0 -135 -49.5t-52 -128.5h-155q3 135 95 218t249 83q140 0 228.5 -70t88.5 -188
q0 -148 -166 -194v-4q201 -45 201 -236q0 -137 -100 -212t-250 -75z" />
    <glyph glyph-name="four.numerator" unicode="&#xe41a;" horiz-adv-x="866" 
d="M172 918q90 8 145 8h205v262q0 30 4 73t8 71l3 28h-7q-63 -97 -108 -152l-137 -164q-18 -23 -46.5 -53.5t-47.5 -49.5l-19 -19v-4zM829 801h-149v-215h-158v215h-463v162l465 573h156v-610h149v-125z" />
    <glyph glyph-name="five.numerator" unicode="&#xe41b;" horiz-adv-x="825" 
d="M412 567q-152 0 -253.5 76.5t-113.5 198.5h164q15 -66 67 -104t132 -38q86 0 139 54t53 141q0 91 -54 144t-138 53q-114 0 -181 -78h-149l96 510h539v-138h-430l-47 -247h6q74 84 202 84q134 0 228 -90t94 -238q0 -146 -100.5 -237t-253.5 -91z" />
    <glyph glyph-name="six.numerator" unicode="&#xe41c;" horiz-adv-x="870" 
d="M463 565q-167 0 -268 109q-119 125 -119 383q0 236 100 362q102 127 283 127q136 0 217 -68.5t100 -172.5h-162q-10 47 -48 79.5t-103 32.5q-215 0 -227 -332h4q84 132 243 132q132 0 226 -93t94 -229q1 -141 -97 -235.5t-243 -94.5zM455 696q82 0 136 55t54 142
q0 84 -54 139t-136 55q-89 0 -144 -54t-55 -140q0 -87 57 -142t142 -55z" />
    <glyph glyph-name="seven.numerator" unicode="&#xe41d;" horiz-adv-x="757" 
d="M365 586h-175q10 238 119.5 450t265.5 348v7q-69 -9 -227 -9h-303v142h682v-133q-148 -141 -249.5 -349t-112.5 -456z" />
    <glyph glyph-name="eight.numerator" unicode="&#xe41e;" horiz-adv-x="874" 
d="M442 567q-75 0 -142.5 17.5t-122 52t-86.5 91.5t-32 130q0 174 195 244v4q-145 59 -145 190q0 116 92 183t237 67t236.5 -65.5t91.5 -177.5q0 -141 -145 -195v-4q91 -28 142.5 -90t51.5 -150q0 -98 -53.5 -167t-136 -99.5t-183.5 -30.5zM438 1151q82 0 127 37t45 100
q0 62 -45 98.5t-127 36.5t-126 -36t-44 -99t44 -100t126 -37zM438 694q98 0 153.5 45.5t55.5 122.5q0 81 -54.5 127.5t-154.5 46.5q-99 0 -154 -47t-55 -127t54.5 -124t154.5 -44z" />
    <glyph glyph-name="nine.numerator" unicode="&#xe41f;" horiz-adv-x="870" 
d="M426 1026q90 0 144.5 54.5t54.5 140.5t-56.5 142t-142.5 56t-140.5 -55.5t-54.5 -140.5q0 -86 55 -141.5t140 -55.5zM430 565q-140 0 -232 72.5t-104 179.5h164q10 -51 53 -86t115 -35q100 0 149 70q59 73 68 254h-4q-92 -123 -240 -123q-136 0 -231 92.5t-96 229.5
q0 141 100 234t252 93q144 0 240 -80q73 -60 105 -159.5t32 -249.5q0 -276 -119 -395q-100 -97 -252 -97z" />
    <glyph glyph-name="zero.tab" unicode="&#xe44f;" 
d="M666 -33q-260 0 -405.5 206t-145.5 558t149.5 557t403.5 205q255 0 400.5 -203t145.5 -559q0 -355 -142.5 -559.5t-405.5 -204.5zM668 135q342 0 342 596q0 282 -84 439t-258 157q-177 0 -264 -156t-87 -440q0 -281 87.5 -438.5t263.5 -157.5z" />
    <glyph glyph-name="one.tab" unicode="&#xe450;" 
d="M668 0v1030h-400v131q211 4 318.5 80t126.5 227h153v-1468h-198z" />
    <glyph glyph-name="two.tab" unicode="&#xe451;" 
d="M135 0q11 236 156 401q23 26 48 49.5t58 48.5t53 40.5t63 42.5t56.5 35.5t64.5 39.5t58 35q79 45 124 75.5t87 72t60 89.5t18 109q0 130 -82.5 209.5t-220.5 79.5q-139 0 -223 -90q-82 -91 -82 -262h-203q0 233 135 371q136 145 389 145q221 0 356.5 -126.5t135.5 -322.5
q0 -76 -22 -140t-48 -105.5t-87.5 -89.5t-99 -71t-122.5 -72q-13 -7 -19 -11q-5 -3 -46 -27.5t-50 -30.5t-47 -30t-50.5 -33.5t-44.5 -32.5t-46 -37t-38 -36.5t-36.5 -40.5t-26.5 -41t-22 -45l-4 -17h782v-182h-1024z" />
    <glyph glyph-name="three.tab" unicode="&#xe452;" 
d="M680 -33q-254 0 -412 131q-169 137 -172 375h193q5 -161 106.5 -252.5t278.5 -91.5q151 0 239 76t88 221q0 133 -93.5 202.5t-270.5 69.5h-92v152h90q160 0 243 64t83 180q0 113 -85.5 179t-216.5 66q-150 0 -236.5 -87.5t-88.5 -227.5h-191q2 209 142 339t381 130
q211 0 349 -108.5t138 -292.5q0 -226 -242 -306v-6q293 -76 293 -370q0 -139 -69.5 -240.5t-187 -152t-267.5 -50.5z" />
    <glyph glyph-name="four.tab" unicode="&#xe453;" 
d="M283 500q133 8 217 8h329v496q0 35 2.5 88.5t5.5 89.5l3 37h-4q-68 -115 -127 -191l-271 -344q-25 -32 -64 -77t-65 -74l-26 -29v-4zM1233 354h-211v-354h-193v354h-706v176l737 945h162v-967h211v-154z" />
    <glyph glyph-name="five.tab" unicode="&#xe454;" 
d="M657 -31q-225 0 -370.5 120.5t-159.5 301.5h195q25 -117 106.5 -184.5t224.5 -67.5q152 0 242 93t90 249q0 154 -90 245t-225 91q-113 0 -193.5 -38t-126.5 -97h-188l157 776h779v-172h-639l-94 -434h4q128 131 338 131q93 0 178.5 -34.5t153 -97t107.5 -160t40 -214.5
q0 -231 -149 -369.5t-380 -138.5z" />
    <glyph glyph-name="six.tab" unicode="&#xe455;" 
d="M709 -33q-231 0 -373 139q-111 101 -157 252t-46 379q0 349 146 551q150 205 426 205q105 0 191.5 -33t141.5 -87.5t87.5 -119t43.5 -135.5h-194q-12 84 -82 148.5t-184 64.5q-199 0 -290.5 -152t-99.5 -448h5q71 119 169.5 174.5t231.5 55.5q132 0 243 -66t176 -179
t66 -247q1 -136 -65 -251.5t-182 -183t-254 -67.5zM705 125q139 0 230 94.5t91 243.5t-93.5 243.5t-234.5 94.5q-153 0 -247.5 -92t-94.5 -244q0 -149 100 -244.5t249 -95.5z" />
    <glyph glyph-name="seven.tab" unicode="&#xe456;" 
d="M371 0q23 377 195.5 730.5t420.5 557.5v4q-114 -8 -268 -8h-549v174h1008v-158q-112 -102 -211.5 -235t-183.5 -297t-138.5 -363t-64.5 -405h-209z" />
    <glyph glyph-name="eight.tab" unicode="&#xe457;" 
d="M672 -33q-82 0 -159 15.5t-148.5 50.5t-124.5 86t-85 128t-32 171q0 149 83.5 244t229.5 135v6q-118 35 -182 114.5t-64 192.5t65 202t173 136t238 47q201 0 338 -106t137 -277q0 -112 -63.5 -192t-180.5 -117v-6q142 -36 223.5 -135t81.5 -244q0 -95 -30 -172
t-80.5 -128t-119 -85.5t-143.5 -50t-157 -15.5zM666 870q129 0 205.5 63t76.5 171t-76 169.5t-206 61.5t-207.5 -61.5t-77.5 -169.5t77.5 -171t207.5 -63zM672 129q157 0 245.5 77t88.5 214q0 139 -90 220t-250 81q-159 0 -249.5 -81t-90.5 -220q0 -138 91.5 -214.5
t254.5 -76.5z" />
    <glyph glyph-name="nine.tab" unicode="&#xe458;" 
d="M639 657q158 0 253 94t95 246q0 149 -99.5 243.5t-246.5 94.5q-148 0 -241 -94t-93 -244q0 -147 96 -243.5t236 -96.5zM649 -33q-212 0 -352 113.5t-154 279.5h199q15 -98 93 -164.5t210 -66.5q159 0 244 98q117 128 129 478h-4q-151 -207 -402 -207q-202 0 -344.5 144.5
t-144.5 350.5q-1 102 38.5 194.5t107.5 159.5t165 106.5t207 39.5q197 0 344 -113q120 -92 169.5 -249t49.5 -406q0 -453 -200 -633q-134 -125 -355 -125z" />
    <glyph glyph-name="cent.tab" unicode="&#xe459;" 
d="M1178 389q-15 -184 -126 -294t-296 -124v-215h-121v217q-143 16 -251 97t-164 205t-56 274q0 228 128.5 390t342.5 185v176h121v-174q173 -15 283.5 -117.5t138.5 -267.5h-191q-17 96 -77 156.5t-154 73.5v-842q103 13 163.5 81.5t71.5 178.5h187zM356 549
q0 -165 73 -279.5t206 -138.5v838q-133 -24 -206 -139.5t-73 -280.5z" />
    <glyph glyph-name="dollar.tab" unicode="&#xe45a;" 
d="M332 1094q0 -95 66 -148t212 -86v471q-127 -9 -202.5 -71t-75.5 -166zM1032 408q0 55 -18 94t-59.5 66.5t-92 45.5t-131.5 37v-506q129 11 215 81.5t86 181.5zM731 -225h-121v213q-132 9 -234 51.5t-163.5 109t-94.5 145t-38 167.5h196q16 -139 95.5 -219.5t238.5 -94.5
v531q-75 17 -128 32t-110 38t-95 52t-70 69t-47 93.5t-15 120.5q0 179 127 285t338 115v149h121v-149q414 -29 463 -383h-193q-12 98 -81 157t-189 72v-493q67 -14 116.5 -26.5t104 -31.5t93 -40.5t75 -53t58.5 -69t35.5 -88t13.5 -111.5q0 -188 -138.5 -302t-357.5 -126
v-213z" />
    <glyph glyph-name="Euro.tab" unicode="&#xe45b;" 
d="M1272 463q-5 -137 -66 -248.5t-173.5 -178.5t-256.5 -67q-222 0 -379 148t-204 409h-136v117h121q-2 27 -2 84q0 55 2 82h-121v117h136q45 260 197 413.5t370 153.5q203 0 334.5 -117.5t156.5 -304.5h-192q-25 121 -101 187.5t-200 66.5q-149 0 -240 -104.5t-121 -294.5
h416v-117h-428q-2 -27 -2 -82q0 -57 2 -84h428v-117h-414q32 -190 128.5 -289.5t246.5 -99.5q136 0 216.5 89.5t96.5 236.5h185z" />
    <glyph glyph-name="R.alt" unicode="&#xe491;" horiz-adv-x="1413" 
d="M369 1341v-542h434q307 0 307 272q0 270 -297 270h-444zM1126 0l-346 629h-411v-629h-211v1524h686q240 0 366 -148q109 -125 109 -297q0 -160 -87.5 -273.5t-240.5 -154.5l373 -651h-238z" />
    <glyph glyph-name="uniF8FF" unicode="&#xf8ff;" horiz-adv-x="1802" 
d="M139 0v1526h1526v-1526h-1526zM389 918v-306h359v-360h307v360h358v306h-358v348h-307v-348h-359z" />
    <glyph glyph-name="idotaccent" horiz-adv-x="452" 
d="M225 1526q51 0 84 -33t33 -84t-33 -84t-84 -33t-83.5 33t-32.5 84t32.5 84t83.5 33zM131 0v1100h191v-1100h-191z" />
    <glyph glyph-name="space_uni0326" horiz-adv-x="1024" 
d="M416 -498v95q83 23 98 102q-48 -6 -82.5 21t-34.5 71q0 48 32 78.5t79 30.5q54 0 88.5 -44t34.5 -112q0 -100 -57.5 -165t-157.5 -77z" />
    <glyph glyph-name="space.tab" horiz-adv-x="665" 
 />
    <glyph glyph-name="sterling.tab" 
d="M1231 106q-152 -131 -332 -131q-65 0 -127 17.5t-103 38t-97 38t-111 17.5q-39 0 -81 -16t-66 -31.5t-64 -44.5l-111 153q42 30 71 53.5t60 56.5t49.5 65.5t30.5 75.5t12 91q0 66 -24 150h-180v143h127q-23 59 -35 94t-23.5 90.5t-11.5 106.5q0 185 133.5 301.5
t358.5 116.5q208 0 335 -113q149 -129 152 -366h-195q-3 161 -83.5 238t-213.5 77q-135 0 -208.5 -68.5t-73.5 -189.5q0 -18 2 -37t4 -33.5t8 -37.5t8.5 -34t11.5 -37.5t11.5 -34t13.5 -38t13 -35.5h301v-143h-261q13 -60 13 -117q0 -103 -47 -180t-148 -158l4 -6
q61 31 100.5 42t94.5 11q64 0 126.5 -21t120 -42t107.5 -21q105 0 221 101z" />
    <glyph glyph-name="yen.tab" 
d="M1155 293h-381v-293h-196v293h-381v117h381v165h-381v117h348l-461 766h221l180 -325q34 -59 81 -152.5t78 -156.5l30 -64h4q112 240 188 373l181 325h213l-457 -766h352v-117h-381v-165h381v-117z" />
    <glyph glyph-name="florin.tab" 
d="M522 -258q-84 -84 -293 -59v151q84 -7 128 16t55 99l112 774h-217v143h238l51 355q15 118 76 182q105 111 356 80v-156q-127 11 -180.5 -17t-65.5 -114l-47 -330h262v-143h-282l-111 -789q-18 -128 -82 -192z" />
    <glyph glyph-name="currency.tab" 
d="M279 256l-93 88l142 145q-78 113 -78 259q0 143 78 253l-142 146l93 88l137 -141q110 82 250 82q139 0 249 -82l138 141l92 -88l-141 -146q75 -110 75 -253q0 -141 -78 -256l144 -148l-92 -88l-140 141q-101 -75 -247 -75q-147 0 -248 75zM666 455q114 0 178.5 81.5
t64.5 211.5q0 129 -64.5 211.5t-178.5 82.5t-180 -83t-66 -211q0 -129 66 -211t180 -82z" />
    <glyph glyph-name="percent.tab" horiz-adv-x="1843" 
d="M440 647q-155 0 -251.5 116t-96.5 308q0 190 98.5 306t249.5 116q153 0 250.5 -114.5t97.5 -307.5q0 -192 -96 -308t-252 -116zM430 0l834 1458h149l-831 -1458h-152zM440 782q88 0 134.5 79t46.5 210q0 125 -48.5 207t-132.5 82t-130 -80t-46 -209q0 -128 46 -208.5
t130 -80.5zM1403 -31q-156 0 -252 115.5t-96 306.5t98.5 306.5t249.5 115.5q154 0 251 -114t97 -308q0 -191 -96 -306.5t-252 -115.5zM1403 104q88 0 133 78t45 209q0 127 -47 209t-131 82t-130 -80.5t-46 -210.5q0 -127 46 -207t130 -80z" />
    <glyph glyph-name="perthousand.tab" horiz-adv-x="2457" 
d="M420 649q-149 0 -238.5 115t-89.5 307t92 307t236 115q147 0 237.5 -113.5t90.5 -308.5q0 -192 -89.5 -307t-238.5 -115zM362 0l832 1458h149l-831 -1458h-150zM420 784q160 0 160 287q0 130 -40 210.5t-120 80.5t-118 -78.5t-38 -212.5q0 -131 38.5 -209t117.5 -78z
M1286 -31q-149 0 -238.5 115t-89.5 307t92 307t236 115q147 0 237.5 -113.5t90.5 -308.5q0 -192 -89.5 -307t-238.5 -115zM2038 -31q-149 0 -238.5 115t-89.5 307t92 307t236 115q147 0 237 -113.5t90 -308.5q0 -192 -89 -307t-238 -115zM1286 104q160 0 160 287
q0 130 -40 210.5t-120 80.5t-118 -78.5t-38 -212.5q0 -131 38.5 -209t117.5 -78zM2038 104q160 0 160 287q0 130 -40 210.5t-120 80.5t-118 -78.5t-38 -212.5q0 -131 38.5 -209t117.5 -78z" />
    <glyph glyph-name="minus.tab" 
d="M180 621v149h973v-149h-973z" />
    <glyph glyph-name="plusminus.tab" 
d="M1153 682h-408v-363h-157v363h-408v149h408v361h157v-361h408v-149zM180 0v150h973v-150h-973z" />
    <glyph glyph-name="multiply.tab" 
d="M1012 242l-344 348l-346 -348l-105 100l348 352l-348 350l105 103l346 -348l344 348l106 -103l-348 -350l348 -350z" />
    <glyph glyph-name="divide.tab" 
d="M666 1188q52 0 87 -35t35 -88q0 -52 -34.5 -86.5t-87.5 -34.5t-88 34.5t-35 86.5q0 53 35.5 88t87.5 35zM180 621v149h971v-149h-971zM666 444q52 0 87 -35t35 -87t-34.5 -86.5t-87.5 -34.5t-88 34.5t-35 86.5t35 87t88 35z" />
    <glyph glyph-name="equal.tab" 
d="M182 782v150h969v-150h-969zM182 401v150h969v-150h-969z" />
    <glyph glyph-name="notequal.tab" 
d="M1151 401h-547l-127 -251h-145l127 251h-277v150h353l118 231h-471v150h547l127 252h145l-127 -252h277v-150h-352l-119 -231h471v-150z" />
    <glyph glyph-name="approxequal.tab" 
d="M934 735q-91 0 -284 42t-247 42q-91 0 -94 -100h-145q3 119 67 184.5t168 65.5q95 0 283.5 -42t237.5 -42q99 0 102 98h147q-3 -116 -62.5 -182t-172.5 -66zM934 362q-91 0 -284 42t-247 42q-91 0 -94 -100h-145q3 119 67 184.5t168 65.5q95 0 283.5 -42t237.5 -42
q99 0 102 98h147q-3 -116 -62.5 -182t-172.5 -66z" />
    <glyph glyph-name="less.tab" 
d="M1096 199l-869 368v191l869 368v-170l-469 -190q-47 -19 -116 -44t-114 -40l-45 -16v-4q169 -56 275 -99l469 -190v-174z" />
    <glyph glyph-name="greater.tab" 
d="M236 1126l868 -368v-191l-868 -368v172l471 188q46 19 114 44t113 41l45 15v5q-168 55 -272 98l-471 190v174z" />
    <glyph glyph-name="lessequal.tab" 
d="M1096 248l-869 340v198l869 340v-170l-469 -174q-47 -17 -116 -40l-114 -38l-45 -14v-4q169 -51 275 -90l469 -176v-172zM227 0v150h869v-150h-869z" />
    <glyph glyph-name="greaterequal.tab" 
d="M1104 588l-868 -340v172l469 176q47 17 115.5 39.5t113.5 36.5l45 14v4q-168 53 -274 92l-469 174v170l868 -340v-198zM1104 150v-150h-868v150h868z" />
    <glyph glyph-name="period.tab" horiz-adv-x="665" 
d="M334 233q53 0 88 -35t35 -87t-35 -86.5t-88 -34.5t-88 34.5t-35 86.5t35 87t88 35z" />
    <glyph glyph-name="comma.tab" horiz-adv-x="665" 
d="M238 -279v117q89 38 98 160q-55 -6 -90 28.5t-35 86.5t34 86t85 34q60 0 95.5 -53.5t35.5 -138.5q0 -124 -57.5 -206.5t-165.5 -113.5z" />
    <glyph glyph-name="colon.tab" horiz-adv-x="665" 
d="M334 881q52 0 87.5 -35.5t35.5 -87.5t-35 -86.5t-88 -34.5t-88 34.5t-35 86.5t35.5 87.5t87.5 35.5zM334 233q53 0 88 -35t35 -87t-35 -86.5t-88 -34.5t-88 34.5t-35 86.5t35 87t88 35z" />
    <glyph glyph-name="semicolon.tab" horiz-adv-x="665" 
d="M334 881q52 0 87.5 -35.5t35.5 -87.5t-35 -86.5t-88 -34.5t-88 34.5t-35 86.5t35.5 87.5t87.5 35.5zM238 -279v117q89 38 98 160q-55 -6 -90 28.5t-35 86.5t34 86t85 34q60 0 95.5 -53.5t35.5 -138.5q0 -124 -57.5 -206.5t-165.5 -113.5z" />
    <glyph glyph-name="Racute.alt" horiz-adv-x="1413" 
d="M369 1341v-542h434q307 0 307 272q0 270 -297 270h-444zM1126 0l-346 629h-411v-629h-211v1524h686q240 0 366 -148q109 -125 109 -297q0 -160 -87.5 -273.5t-240.5 -154.5l373 -651h-238zM623 1608l108 256h234l-183 -256h-159z" />
    <glyph glyph-name="Rcaron.alt" horiz-adv-x="1413" 
d="M369 1341v-542h434q307 0 307 272q0 270 -297 270h-444zM1126 0l-346 629h-411v-629h-211v1524h686q240 0 366 -148q109 -125 109 -297q0 -160 -87.5 -273.5t-240.5 -154.5l373 -651h-238zM1020 1839l-207 -231h-211l-201 231h197l111 -125h4l114 125h193z" />
    <glyph glyph-name="Rcommaaccent.alt" horiz-adv-x="1413" 
d="M369 1341v-542h434q307 0 307 272q0 270 -297 270h-444zM1126 0l-346 629h-411v-629h-211v1524h686q240 0 366 -148q109 -125 109 -297q0 -160 -87.5 -273.5t-240.5 -154.5l373 -651h-238zM614 -498v95q84 24 99 102q-48 -6 -82.5 21t-34.5 71q0 48 32 78.5t79 30.5
q54 0 88 -44t34 -112q0 -100 -57.5 -165t-157.5 -77z" />
    <glyph glyph-name="space_uni0326.alt" horiz-adv-x="1024" 
d="M608 1696v-94q-83 -23 -98 -103q48 6 82.5 -21t34.5 -71q0 -48 -32 -78.5t-79 -30.5q-54 0 -88.5 44t-34.5 112q0 100 57.5 165t157.5 77z" />
    <glyph glyph-name="registered.alt" horiz-adv-x="1767" 
d="M883 -37q-216 0 -394.5 102.5t-281.5 284.5t-103 406q0 225 103 407t281 284.5t395 102.5q162 0 306.5 -60.5t249 -165t165.5 -252.5t61 -316t-61 -315.5t-165.5 -252t-249 -165t-306.5 -60.5zM883 49q192 0 347.5 91.5t244 253.5t88.5 362q0 201 -88.5 363.5t-244 254.5
t-347.5 92q-191 0 -346.5 -91.5t-244.5 -254.5t-89 -364q0 -200 89 -362t244.5 -253.5t346.5 -91.5zM719 1065v-268h209q75 0 114 35.5t39 97.5q0 135 -147 135h-215zM901 674h-182v-344h-162v866h408q125 0 202.5 -66t77.5 -178q0 -163 -162 -213v-4q69 -20 99.5 -62.5
t38.5 -125.5q2 -21 5 -50t4.5 -44.5t4 -35.5t5 -30t5.5 -21t6.5 -16t8.5 -8v-12h-164q-4 3 -7 9t-5.5 17t-4.5 21.5t-4 29.5t-3.5 33.5t-4 41.5t-4.5 46q-6 78 -44 112t-118 34z" />
    <glyph glyph-name="caron.alt" horiz-adv-x="1024" 
d="M406 1186l26 338h172l-63 -338h-135z" />
    <glyph glyph-name="dollar.cap" horiz-adv-x="1368" 
d="M334 1143q0 -100 69 -154.5t224 -91.5v496q-134 -9 -213.5 -74.5t-79.5 -175.5zM1069 426q0 112 -72 164t-243 92v-532q135 11 225 84.5t90 191.5zM754 -236h-127v224q-139 10 -245.5 54.5t-170.5 113.5t-98 150.5t-39 174.5h200q32 -297 353 -329v559q-66 15 -114.5 28
t-102 32.5t-91 41.5t-73.5 53.5t-57.5 69t-34.5 87.5t-13 110q0 185 133 295.5t353 121.5v156h127v-156q217 -17 336.5 -120t144.5 -279h-197q-14 102 -86.5 163.5t-197.5 76.5v-521q70 -14 121.5 -26.5t108.5 -32t97 -42t78 -55t60.5 -72t36.5 -92t14 -116.5
q0 -131 -68.5 -230.5t-184 -153.5t-263.5 -62v-224z" />
    <glyph glyph-name="Euro.cap" horiz-adv-x="1404" 
d="M1333 481q-4 -106 -42 -199.5t-104 -163.5t-162 -110.5t-208 -40.5q-232 0 -396.5 155.5t-211.5 428.5h-143v121h127q-3 43 -3 88q0 42 3 86h-127v121h141q46 272 205.5 433t388.5 161q211 0 348 -122t164 -317h-199q-27 126 -107 195t-208 69q-157 0 -252 -109.5
t-127 -309.5h436v-121h-448q-2 -29 -2 -86q0 -59 2 -88h448v-121h-434q34 -199 135 -304.5t258 -105.5q143 0 228.5 93.5t101.5 246.5h188z" />
    <glyph glyph-name="sterling.cap" horiz-adv-x="1271" 
d="M1225 111q-163 -138 -348 -138q-68 0 -132.5 18.5t-107 40t-101 40t-116.5 18.5q-41 0 -85 -17t-68 -32.5t-68 -46.5l-113 158q56 40 91.5 71.5t71.5 75.5t53 97t17 116q0 73 -26 156h-189v149h134q-72 183 -72 305q0 192 139.5 314.5t372.5 122.5q216 0 350 -119
q155 -132 158 -383h-199q-3 170 -88 251t-225 81q-143 0 -220 -71.5t-77 -199.5q0 -15 1.5 -30.5t3 -28.5t5.5 -31.5t6 -29t8.5 -31t8.5 -28.5t10.5 -31.5t10.5 -29t11 -31.5t11 -30h313v-149h-270q12 -61 12 -125q0 -108 -49.5 -188.5t-155.5 -164.5l6 -6q62 33 103.5 44.5
t97.5 11.5q68 0 134 -22.5t126 -45t113 -22.5q108 0 231 106z" />
    <glyph glyph-name="yen.cap" horiz-adv-x="1302" 
d="M1161 307h-399v-307h-201v307h-399v121h399v174h-399v121h364l-481 801h227l191 -342q35 -62 84 -159t81 -163l31 -67h5q118 250 198 389l189 342h219l-479 -801h370v-121h-399v-174h399v-121z" />
    <glyph glyph-name="zero.cap" horiz-adv-x="1423" 
d="M713 -35q-186 0 -322.5 98.5t-208 278.5t-71.5 422q0 367 164.5 582t439.5 215q276 0 438 -213t162 -584q0 -242 -70.5 -422t-207 -278.5t-324.5 -98.5zM715 139q195 0 291 163.5t96 461.5q0 292 -98.5 458.5t-288.5 166.5q-193 0 -292 -165t-99 -460q0 -293 99.5 -459
t291.5 -166z" />
    <glyph glyph-name="one.cap" horiz-adv-x="841" 
d="M444 0v1100h-352v135q76 2 140.5 18t121 49.5t92.5 92.5t46 139h157v-1534h-205z" />
    <glyph glyph-name="two.cap" horiz-adv-x="1280" 
d="M86 0q11 249 162 420q28 31 64 62t61 51t76 53.5t67 44t79.5 48.5t70.5 42q68 39 107.5 64t82.5 60t64.5 67.5t36 76.5t14.5 96q0 138 -85.5 221t-232.5 83q-146 0 -235 -95q-86 -95 -86 -274h-209q0 243 143 389q70 73 175 111.5t229 38.5q230 0 371 -132t141 -337
q0 -100 -26.5 -175t-96.5 -138.5t-118.5 -95.5t-163.5 -96q-4 -3 -6 -4t-5 -3t-6 -3q-11 -7 -48.5 -29.5l-52.5 -31.5t-50.5 -32t-53 -35.5t-48.5 -36t-48 -40t-40.5 -40.5t-37.5 -45t-27 -46.5t-20 -50.5h819v-188h-1067z" />
    <glyph glyph-name="three.cap" horiz-adv-x="1310" 
d="M670 -35q-264 0 -430 137q-178 144 -181 392h197q6 -169 114 -265t294 -96q158 0 253 79.5t95 231.5q0 139 -101 213t-286 74h-97v158h95q169 0 257.5 67t88.5 187q0 118 -91.5 188t-228.5 70q-160 0 -251 -91.5t-93 -240.5h-196q2 220 148.5 356t397.5 136
q144 0 259 -49t184 -146t69 -225q0 -237 -254 -320v-6q308 -80 308 -387q0 -145 -73.5 -251t-197 -159t-280.5 -53z" />
    <glyph glyph-name="four.cap" 
d="M254 520q139 8 227 8h346v523q0 36 3.5 92.5t6.5 94.5l3 38h-4q-73 -121 -134 -199l-284 -364q-26 -34 -67 -81t-69 -78l-28 -30v-4zM1276 371h-250v-371h-199v371h-737v182l770 987h166v-1012h250v-157z" />
    <glyph glyph-name="five.cap" horiz-adv-x="1261" 
d="M621 -33q-234 0 -386 126t-167 317h200q26 -125 112.5 -196t237.5 -71q158 0 252.5 98.5t94.5 262.5q0 161 -94.5 256.5t-235.5 95.5q-119 0 -204 -40t-134 -103h-193l166 811h811v-178h-667l-101 -455h4q134 137 355 137q97 0 186.5 -36t160 -101.5t113 -167.5
t42.5 -225q0 -160 -72 -281.5t-197.5 -185.5t-283.5 -64z" />
    <glyph glyph-name="six.cap" horiz-adv-x="1337" 
d="M715 -35q-236 0 -387 144q-117 106 -166 264.5t-49 396.5q0 368 153 576q157 215 445 215q110 0 199.5 -34.5t147 -92t91.5 -125t45 -140.5h-199q-12 89 -86 156.5t-194 67.5q-209 0 -305.5 -160t-104.5 -471h4q76 125 179 183.5t241 58.5t255 -69.5t184.5 -188
t68.5 -257.5q1 -142 -68.5 -263t-190 -191t-263.5 -70zM711 129q146 0 242 98.5t96 255.5t-98 257t-246 100q-162 0 -261.5 -98t-99.5 -257q0 -156 105 -256t262 -100z" />
    <glyph glyph-name="seven.cap" horiz-adv-x="1185" 
d="M285 0q24 393 209 764t450 586v4q-118 -8 -278 -8h-598v178h1073v-162q-120 -107 -227 -246t-197 -310.5t-148 -380t-69 -425.5h-215z" />
    <glyph glyph-name="eight.cap" horiz-adv-x="1341" 
d="M678 -35q-90 0 -173 16t-159.5 52.5t-133 89.5t-90.5 133.5t-34 179.5q0 156 90.5 255t245.5 143v6q-124 37 -191 119.5t-67 199.5q0 120 66.5 213t181.5 142t258 49q220 0 364 -110.5t144 -291.5q0 -117 -66.5 -200t-189.5 -121v-6q151 -39 239 -143t88 -255
q0 -99 -32 -179.5t-86 -134t-128.5 -89.5t-155.5 -52t-171 -16zM672 909q143 0 227 65.5t84 178.5q0 115 -83.5 179.5t-227.5 64.5q-145 0 -227.5 -64.5t-82.5 -179.5q0 -114 82.5 -179t227.5 -65zM678 133q174 0 273.5 80.5t99.5 224.5q0 146 -101 232t-278 86
q-175 0 -275 -86t-100 -232t100 -225.5t281 -79.5z" />
    <glyph glyph-name="nine.cap" horiz-adv-x="1337" 
d="M641 684q166 0 266.5 100t100.5 258q0 156 -105 255.5t-260 99.5t-252.5 -98.5t-97.5 -256.5q0 -155 100 -256.5t248 -101.5zM653 -35q-222 0 -368 119t-160 293h203q15 -104 98 -174t223 -70q165 0 254 103q125 136 137 501h-4q-75 -102 -182.5 -158.5t-239.5 -56.5
q-139 0 -256.5 69t-186 188t-69.5 259q-1 143 69 263t195 190t277 70q205 0 358 -119q126 -95 178 -259t52 -425q0 -477 -211 -664q-138 -129 -367 -129z" />
    <glyph glyph-name="percent.cap" horiz-adv-x="1916" 
d="M442 676q-161 0 -261.5 121.5t-100.5 322.5q0 198 103 319.5t259 121.5q159 0 261 -120t102 -321q0 -202 -100 -323t-263 -121zM444 0l871 1524h155l-870 -1524h-156zM442 817q92 0 140.5 83t48.5 220q0 131 -50.5 217t-138.5 86t-137 -84.5t-49 -218.5t49 -218.5
t137 -84.5zM1475 -33q-163 0 -263 121.5t-100 321.5q0 199 102.5 319.5t260.5 120.5q160 0 260 -119t100 -321q0 -200 -99 -321.5t-261 -121.5zM1475 106q91 0 138.5 83.5t47.5 220.5q0 132 -49.5 217.5t-136.5 85.5q-90 0 -138.5 -84t-48.5 -219q0 -134 49 -219t138 -85z
" />
    <glyph glyph-name="perthousand.cap" horiz-adv-x="2750" 
d="M442 676q-161 0 -261.5 121.5t-100.5 322.5q0 198 103 319.5t259 121.5q159 0 261 -120t102 -321q0 -202 -100 -323t-263 -121zM432 0l871 1524h155l-870 -1524h-156zM442 817q92 0 140.5 83t48.5 220q0 131 -50.5 217t-138.5 86t-137 -84.5t-49 -218.5t49 -218.5
t137 -84.5zM2310 -33q-163 0 -263.5 121.5t-100.5 321.5q0 199 103 319.5t261 120.5t259.5 -119t101.5 -321q0 -200 -99.5 -321.5t-261.5 -121.5zM1450 -33q-163 0 -263 121.5t-100 321.5q0 199 102.5 319.5t260.5 120.5q160 0 260 -119t100 -321q0 -200 -99 -321.5
t-261 -121.5zM2310 106q91 0 140 83.5t49 220.5q0 131 -51 217t-138 86q-89 0 -137.5 -84t-48.5 -219q0 -134 48.5 -219t137.5 -85zM1450 106q91 0 138.5 83.5t47.5 220.5q0 132 -49.5 217.5t-136.5 85.5q-89 0 -137.5 -84t-48.5 -219q0 -134 48.5 -219t137.5 -85z" />
    <glyph glyph-name="questiondown.cap" horiz-adv-x="1120" 
d="M678 1081q-1 -102 -24 -174.5t-66.5 -128t-126.5 -127.5q-88 -76 -113 -105q-69 -80 -69 -175q0 -100 71.5 -165t196.5 -65q154 0 237 90t88 236h193q-2 -96 -34.5 -182.5t-93.5 -157t-161.5 -112.5t-228.5 -42q-213 0 -341 112t-128 282q0 60 15 112t44.5 94.5
t59.5 73.5t73 66q140 118 181 172q27 37 37 81t12 115h178zM590 1290q-52 0 -87.5 35t-35.5 88q0 52 35 86.5t88 34.5t88 -34.5t35 -86.5q0 -53 -35.5 -88t-87.5 -35z" />
    <glyph glyph-name="exclamdown.cap" horiz-adv-x="540" 
d="M322 1081l53 -604v-477h-207v477l49 604h105zM270 1290q-52 0 -87.5 35t-35.5 88q0 52 35 86.5t88 34.5t88 -34.5t35 -86.5q0 -53 -35.5 -88t-87.5 -35z" />
    <glyph glyph-name="hyphen.cap" horiz-adv-x="806" 
d="M96 578v196h615v-196h-615z" />
    <glyph glyph-name="endash.cap" horiz-adv-x="1122" 
d="M100 594v164h922v-164h-922z" />
    <glyph glyph-name="emdash.cap" horiz-adv-x="1734" 
d="M100 594v164h1536v-164h-1536z" />
    <glyph glyph-name="guilsinglleft.cap" horiz-adv-x="659" 
d="M498 272l-336 308v200l336 310v-224l-211 -182v-4l211 -186v-222z" />
    <glyph glyph-name="guilsinglright.cap" horiz-adv-x="659" 
d="M162 1090l336 -310v-200l-336 -308v222l211 184v4l-211 186v222z" />
    <glyph glyph-name="guillemotleft.cap" horiz-adv-x="1054" 
d="M469 274l-307 308v198l307 307v-221l-188 -182v-4l188 -184v-222zM893 274l-305 308v198l305 307v-221l-186 -182v-4l186 -184v-222z" />
    <glyph glyph-name="guillemotright.cap" horiz-adv-x="1054" 
d="M893 582l-307 -308v222l188 184v4l-188 182v221l307 -307v-198zM467 582l-305 -308v222l186 184v4l-186 182v221l305 -307v-198z" />
    <glyph glyph-name="parenleft.cap" horiz-adv-x="692" 
d="M487 -193q-153 214 -238 447.5t-85 513.5q0 487 323 901h154q-258 -413 -258 -901q0 -275 64.5 -505.5t193.5 -455.5h-154z" />
    <glyph glyph-name="parenright.cap" horiz-adv-x="692" 
d="M51 -193q131 226 196.5 456t65.5 505q0 493 -262 901h158q319 -414 319 -901q0 -279 -84 -512.5t-235 -448.5h-158z" />
    <glyph glyph-name="bracketleft.cap" horiz-adv-x="729" 
d="M178 -193v1862h467v-151h-274v-1551h274v-160h-467z" />
    <glyph glyph-name="bracketright.cap" horiz-adv-x="729" 
d="M82 -193v160h272v1551h-272v151h469v-1862h-469z" />
    <glyph glyph-name="braceleft.cap" horiz-adv-x="692" 
d="M582 -193q-174 0 -260 81t-86 270v366q0 73 -38.5 108t-129.5 38v153q91 3 129.5 37.5t38.5 106.5v358q0 189 85.5 266.5t260.5 77.5h63v-151h-57q-87 0 -122.5 -41t-35.5 -154v-371q0 -166 -125 -202v-7q65 -22 95 -70.5t30 -131.5v-381q0 -111 35.5 -152t122.5 -41h57
v-160h-63z" />
    <glyph glyph-name="braceright.cap" horiz-adv-x="692" 
d="M82 -193v160h37q87 0 122 38.5t35 148.5v381q0 85 29.5 132.5t95.5 69.5v6q-66 20 -95.5 69t-29.5 134v373q0 112 -36 155.5t-121 43.5h-37v151h41q175 0 260.5 -80t85.5 -268v-358q0 -75 33.5 -109t120.5 -37v-155q-83 -3 -118.5 -37.5t-35.5 -106.5v-364
q0 -190 -85 -268.5t-261 -78.5h-41z" />
    <glyph glyph-name="grave.cap" horiz-adv-x="1024" 
d="M446 1608l-182 256h234l108 -256h-160z" />
    <glyph glyph-name="dieresis.cap" horiz-adv-x="1024" 
d="M715 1831q49 0 81.5 -32.5t32.5 -82.5q0 -48 -32.5 -80t-81.5 -32t-82 32.5t-33 79.5q0 50 33 82.5t82 32.5zM309 1831q49 0 82 -32.5t33 -82.5q0 -47 -33 -79.5t-82 -32.5t-81.5 32t-32.5 80q0 50 32.5 82.5t81.5 32.5z" />
    <glyph glyph-name="macron.cap" horiz-adv-x="1024" 
d="M221 1628v154h584v-154h-584z" />
    <glyph glyph-name="acute.cap" horiz-adv-x="1024" 
d="M418 1608l108 256h234l-182 -256h-160z" />
    <glyph glyph-name="circumflex.cap" horiz-adv-x="1024" 
d="M203 1608l207 231h211l200 -231h-196l-111 125h-4l-115 -125h-192z" />
    <glyph glyph-name="caron.cap" horiz-adv-x="1024" 
d="M821 1839l-207 -231h-211l-200 231h196l111 -125h4l115 125h192z" />
    <glyph glyph-name="breve.cap" horiz-adv-x="1024" 
d="M551 1597q-115 0 -194 72t-85 191h136q19 -121 141 -121q63 0 101 32t46 89h133q-5 -113 -81.5 -188t-196.5 -75z" />
    <glyph glyph-name="dotaccent.cap" horiz-adv-x="1024" 
d="M512 1837q51 0 84 -33t33 -84t-33 -83.5t-84 -32.5t-84 32.5t-33 83.5t33 84t84 33z" />
    <glyph glyph-name="ring.cap" horiz-adv-x="1024" 
d="M512 1573q-88 0 -149.5 60.5t-61.5 146.5q0 85 61.5 143.5t149.5 58.5q87 0 148 -59t61 -143q0 -86 -61.5 -146.5t-147.5 -60.5zM512 1659q49 0 81 34t32 87q0 51 -32 84.5t-81 33.5q-51 0 -83 -33.5t-32 -84.5q0 -53 32 -87t83 -34z" />
    <glyph glyph-name="tilde.cap" horiz-adv-x="1024" 
d="M645 1610q-46 0 -96.5 20t-92 40t-63.5 20q-24 0 -40 -23t-19 -55h-131q4 105 49.5 162t122.5 57q50 0 96.5 -20t85.5 -40t70 -20q49 0 57 76h131q-10 -217 -170 -217z" />
    <glyph glyph-name="hungarumlaut.cap" horiz-adv-x="1024" 
d="M256 1608l61 256h203l-119 -256h-145zM555 1608l63 256h199l-121 -256h-141z" />
    <glyph glyph-name="eight.subscript" horiz-adv-x="874" 
d="M442 -412q-75 0 -142.5 17.5t-122 52t-86.5 91.5t-32 130q0 174 195 244v4q-145 59 -145 190q0 116 92 183t237 67t236.5 -65.5t91.5 -177.5q0 -141 -145 -195v-4q91 -28 142.5 -90t51.5 -150q0 -98 -53.5 -167t-136 -99.5t-183.5 -30.5zM438 172q82 0 127 37t45 100
q0 62 -45 98.5t-127 36.5t-126 -36t-44 -99t44 -100t126 -37zM438 -285q98 0 153.5 45.5t55.5 122.5q0 81 -54.5 127.5t-154.5 46.5q-99 0 -154 -47t-55 -127t54.5 -124t154.5 -44z" />
    <glyph glyph-name="eight.superscript" horiz-adv-x="874" 
d="M442 567q-75 0 -142.5 17.5t-122 52t-86.5 91.5t-32 130q0 174 195 244v4q-145 59 -145 190q0 116 92 183t237 67t236.5 -65.5t91.5 -177.5q0 -141 -145 -195v-4q91 -28 142.5 -90t51.5 -150q0 -98 -53.5 -167t-136 -99.5t-183.5 -30.5zM438 1151q82 0 127 37t45 100
q0 62 -45 98.5t-127 36.5t-126 -36t-44 -99t44 -100t126 -37zM438 694q98 0 153.5 45.5t55.5 122.5q0 81 -54.5 127.5t-154.5 46.5q-99 0 -154 -47t-55 -127t54.5 -124t154.5 -44z" />
    <glyph glyph-name="five.subscript" horiz-adv-x="825" 
d="M412 -412q-152 0 -253.5 76.5t-113.5 198.5h164q15 -66 67 -104t132 -38q86 0 139 54t53 141q0 91 -54 144t-138 53q-114 0 -181 -78h-149l96 510h539v-137h-430l-47 -248h6q74 84 202 84q134 0 228 -90t94 -238q0 -146 -100.5 -237t-253.5 -91z" />
    <glyph glyph-name="five.superscript" horiz-adv-x="825" 
d="M412 567q-152 0 -253.5 76.5t-113.5 198.5h164q15 -66 67 -104t132 -38q86 0 139 54t53 141q0 91 -54 144t-138 53q-114 0 -181 -78h-149l96 510h539v-138h-430l-47 -247h6q74 84 202 84q134 0 228 -90t94 -238q0 -146 -100.5 -237t-253.5 -91z" />
    <glyph glyph-name="four.subscript" horiz-adv-x="866" 
d="M172 -61q90 8 145 8h205v262q0 30 4 73t8 71l3 28h-7q-63 -97 -108 -152l-137 -163q-18 -23 -46.5 -53.5t-47.5 -50.5l-19 -19v-4zM829 -178h-149v-215h-158v215h-463v162l465 573h156v-610h149v-125z" />
    <glyph glyph-name="four.superscript" horiz-adv-x="866" 
d="M172 918q90 8 145 8h205v262q0 30 4 73t8 71l3 28h-7q-63 -97 -108 -152l-137 -164q-18 -23 -46.5 -53.5t-47.5 -49.5l-19 -19v-4zM829 801h-149v-215h-158v215h-463v162l465 573h156v-610h149v-125z" />
    <glyph glyph-name="nine.subscript" horiz-adv-x="870" 
d="M426 47q90 0 144.5 54.5t54.5 140.5t-56.5 142t-142.5 56t-140.5 -55.5t-54.5 -140.5q0 -86 55 -141.5t140 -55.5zM430 -414q-140 0 -232 72.5t-104 179.5h164q10 -51 53 -86t115 -35q100 0 149 70q59 73 68 254h-4q-92 -123 -240 -123q-136 0 -231 92.5t-96 229.5
q0 141 100 234t252 93q144 0 240 -80q73 -60 105 -159.5t32 -249.5q0 -276 -119 -395q-100 -97 -252 -97z" />
    <glyph glyph-name="nine.superscript" horiz-adv-x="870" 
d="M426 1026q90 0 144.5 54.5t54.5 140.5t-56.5 142t-142.5 56t-140.5 -55.5t-54.5 -140.5q0 -86 55 -141.5t140 -55.5zM430 565q-140 0 -232 72.5t-104 179.5h164q10 -51 53 -86t115 -35q100 0 149 70q59 73 68 254h-4q-92 -123 -240 -123q-136 0 -231 92.5t-96 229.5
q0 141 100 234t252 93q144 0 240 -80q73 -60 105 -159.5t32 -249.5q0 -276 -119 -395q-100 -97 -252 -97z" />
    <glyph glyph-name="one.subscript" horiz-adv-x="579" 
d="M289 -393v661h-228v109q229 7 250 176h142v-946h-164z" />
    <glyph glyph-name="one.superscript" horiz-adv-x="579" 
d="M289 586v661h-228v109q229 7 250 176h142v-946h-164z" />
    <glyph glyph-name="seven.subscript" horiz-adv-x="757" 
d="M365 -393h-175q10 239 120 451t265 348v6q-69 -9 -227 -9h-303v142h682v-133q-148 -141 -249.5 -349t-112.5 -456z" />
    <glyph glyph-name="seven.superscript" horiz-adv-x="757" 
d="M365 586h-175q10 238 119.5 450t265.5 348v7q-69 -9 -227 -9h-303v142h682v-133q-148 -141 -249.5 -349t-112.5 -456z" />
    <glyph glyph-name="six.subscript" horiz-adv-x="870" 
d="M463 -414q-167 0 -268 109q-119 125 -119 383q0 236 100 362q102 127 283 127q136 0 217 -68.5t100 -172.5h-162q-10 47 -48 79.5t-103 32.5q-215 0 -227 -332h4q84 132 243 132q132 0 226 -93t94 -229q1 -141 -97 -235.5t-243 -94.5zM455 -283q82 0 136 55t54 142
q0 85 -54 140t-136 55q-89 0 -144 -54t-55 -141t57 -142t142 -55z" />
    <glyph glyph-name="six.superscript" horiz-adv-x="870" 
d="M463 565q-167 0 -268 109q-119 125 -119 383q0 236 100 362q102 127 283 127q136 0 217 -68.5t100 -172.5h-162q-10 47 -48 79.5t-103 32.5q-215 0 -227 -332h4q84 132 243 132q132 0 226 -93t94 -229q1 -141 -97 -235.5t-243 -94.5zM455 696q82 0 136 55t54 142
q0 84 -54 139t-136 55q-89 0 -144 -54t-55 -140q0 -87 57 -142t142 -55z" />
    <glyph glyph-name="three.subscript" horiz-adv-x="825" 
d="M416 -412q-171 0 -272 88t-103 236h154q5 -91 58.5 -143t156.5 -52q88 0 139 43.5t51 126.5q0 75 -52.5 115.5t-150.5 40.5h-59v125h57q85 0 131.5 36t46.5 101t-44.5 102t-116.5 37q-86 0 -135 -49.5t-52 -128.5h-155q3 135 95 218t249 83q140 0 228.5 -70t88.5 -188
q0 -148 -166 -194v-4q201 -45 201 -236q0 -137 -100 -212t-250 -75z" />
    <glyph glyph-name="three.superscript" horiz-adv-x="825" 
d="M416 567q-171 0 -272 88t-103 236h154q5 -91 58.5 -143t156.5 -52q88 0 139 43.5t51 126.5q0 75 -52.5 115.5t-150.5 40.5h-59v125h57q85 0 131.5 36t46.5 101t-44.5 102t-116.5 37q-86 0 -135 -49.5t-52 -128.5h-155q3 135 95 218t249 83q140 0 228.5 -70t88.5 -188
q0 -148 -166 -194v-4q201 -45 201 -236q0 -137 -100 -212t-250 -75z" />
    <glyph glyph-name="two.subscript" horiz-adv-x="806" 
d="M57 -393q2 61 21 115.5t43.5 93t66.5 78.5t73 63.5t79 56.5q16 10 50.5 32t49.5 32.5t41.5 30t39 34.5t27 35.5t20 42.5t5.5 47q0 74 -44 117t-119 43q-81 0 -126.5 -53t-47.5 -142h-158q0 151 93 241.5t249 90.5q143 0 232 -85t89 -210q0 -62 -16.5 -109.5t-61.5 -90.5
t-69.5 -60.5t-93.5 -60.5q-10 -7 -15 -10q-59 -34 -93.5 -56.5t-78 -63t-55.5 -77.5h481v-135h-682z" />
    <glyph glyph-name="two.superscript" horiz-adv-x="806" 
d="M57 586q2 61 21 115.5t43.5 93t66.5 78.5t73 63.5t79 56.5q16 10 50.5 32t49.5 32.5t41.5 30t39 34.5t27 35.5t20 42.5t5.5 47q0 74 -44 117t-119 43q-81 0 -126.5 -53t-47.5 -142h-158q0 151 93 241.5t249 90.5q143 0 232 -85t89 -210q0 -62 -16.5 -109.5t-61.5 -90.5
t-69.5 -60.5t-93.5 -60.5q-10 -7 -15 -10q-59 -34 -93.5 -56.5t-78 -63t-55.5 -77.5h481v-135h-682z" />
    <glyph glyph-name="zero.subscript" horiz-adv-x="956" 
d="M479 -412q-180 0 -291.5 134.5t-111.5 357.5q0 219 114.5 353t288.5 134q177 0 290.5 -132t113.5 -355t-111.5 -357.5t-292.5 -134.5zM479 -281q117 0 176.5 96.5t59.5 264.5q0 160 -61.5 258t-174.5 98t-174 -96t-61 -260t61 -262.5t174 -98.5z" />
    <glyph glyph-name="zero.superscript" horiz-adv-x="956" 
d="M479 567q-180 0 -291.5 134.5t-111.5 357.5q0 219 114.5 353t288.5 134q177 0 290.5 -132t113.5 -355t-111.5 -357.5t-292.5 -134.5zM479 698q117 0 176.5 96.5t59.5 264.5q0 160 -61.5 258t-174.5 98t-174 -96t-61 -260t61 -262.5t174 -98.5z" />
    </font>
</defs>
</svg>
